<?xml version="1.0" encoding="utf-8"?>
<!-- Generator: Adobe Illustrator 25.4.1, SVG Export Plug-In . SVG Version: 6.00 Build 0)  -->
<svg version="1.1" id="Layer_1" xmlns="http://www.w3.org/2000/svg" xmlns:xlink="http://www.w3.org/1999/xlink" x="0px" y="0px"
	 viewBox="0 0 400 100" style="enable-background:new 0 0 400 100;" xml:space="preserve">
<style type="text/css">
	.st0{fill:none;}
	.st1{enable-background:new    ;}
	.st2{fill:#303030;}
	.st3{fill:none;stroke:#303030;stroke-miterlimit:10;}
	.st4{fill:#303030;stroke:#FAFAFA;stroke-miterlimit:10;}
	.st5{fill:none;stroke:#FAFAFA;stroke-miterlimit:10;}
	.st6{fill:#FAFAFA;}
</style>
<polyline class="st0" points="102.9,173.2 93.4,13.6 614.4,13.6 614.4,109.9 "/>
<rect x="43.4" y="17.2" class="st0" width="521" height="93"/>
<g class="st1">
	<path class="st2" d="M100.9,49.5c0,5.9,0.7,11,2,15.3c1.3,4.4,3.1,8,5.3,10.9c2.2,2.9,4.7,5.1,7.5,6.5c2.8,1.4,5.7,2.2,8.7,2.2
		c2.1,0,4.2-0.4,6.3-1.2c2.1-0.8,4.1-2,6-3.5s3.8-3.5,5.6-5.9s3.5-5.1,5.1-8.3l0.5-1l2,1.5l-0.5,1c-1.8,3.6-3.8,6.8-5.9,9.5
		c-2.2,2.7-4.5,5-6.9,6.9c-2.4,1.8-5,3.2-7.6,4.2c-2.6,0.9-5.3,1.4-8,1.4c-2.3,0-4.7-0.3-7-1c-2.3-0.7-4.5-1.7-6.5-3
		c-2.1-1.4-4-3.1-5.8-5.1c-1.8-2.1-3.3-4.5-4.6-7.2c-1.3-2.8-2.3-5.9-3.1-9.3s-1.1-7.3-1.1-11.5c0-5.5,0.5-10.5,1.4-15
		c0.9-4.5,2.2-8.5,3.8-12c1.6-3.5,3.4-6.5,5.5-9.1c2.1-2.6,4.3-4.7,6.6-6.4c2.3-1.7,4.7-2.9,7.1-3.7c2.4-0.8,4.7-1.2,6.9-1.2
		c2.9,0,5.6,0.5,8,1.5c2.4,1,4.5,2.4,6.3,4.2s3.1,4,4.1,6.6c1,2.6,1.5,5.5,1.5,8.6c0,3-0.5,5.9-1.4,8.5c-0.9,2.7-2.2,5-3.7,7
		c-1.5,2-3.3,3.6-5.3,4.8s-4.1,1.8-6.3,1.8c-1.5,0-2.8-0.3-4.1-0.8c-1.3-0.5-2.4-1.3-3.3-2.2c-0.9-0.9-1.7-2.1-2.2-3.5
		c-0.6-1.4-0.8-2.9-0.8-4.5c0-1.6,0.2-3.1,0.7-4.6c0.5-1.5,1.1-2.8,1.9-4.1c0.7-1.3,1.6-2.4,2.5-3.3c0.9-1,1.8-1.7,2.6-2.3l1.3,1.3
		c-0.7,0.8-1.3,1.6-1.9,2.5c-0.6,0.9-1.1,1.9-1.6,2.9c-0.5,1-0.8,2.1-1.1,3.3c-0.3,1.2-0.4,2.4-0.4,3.8c0,1.4,0.2,2.7,0.5,3.8
		c0.3,1.1,0.8,2.1,1.4,2.8c0.6,0.8,1.3,1.4,2.1,1.8c0.8,0.4,1.6,0.6,2.5,0.6c1.2,0,2.4-0.4,3.6-1.3c1.2-0.9,2.3-2.2,3.2-4
		c0.9-1.7,1.7-3.9,2.3-6.4s0.9-5.5,0.9-8.8c0-3-0.3-5.6-1-7.8c-0.7-2.2-1.6-4-2.8-5.4c-1.2-1.4-2.6-2.5-4.2-3.2
		c-1.6-0.7-3.3-1-5.1-1c-1.3,0-2.8,0.3-4.4,0.9c-1.7,0.6-3.4,1.5-5.1,2.8c-1.7,1.3-3.4,3-5.1,5.2c-1.7,2.1-3.1,4.8-4.5,7.9
		c-1.3,3.1-2.4,6.8-3.2,11.1C101.3,39.2,100.9,44,100.9,49.5z"/>
	<path class="st2" d="M188.8,66.1l-0.5,1c-1.1,2.2-2.6,4-4.4,5.3c-1.8,1.3-3.8,2.2-6,2.6c-0.6,1.7-1.3,3.2-2.3,4.6s-2,2.6-3.2,3.7
		c-1.2,1-2.5,1.9-4,2.4c-1.5,0.6-3.1,0.9-4.8,0.9c-2.5,0-4.8-0.5-6.8-1.6c-2-1.1-3.7-2.5-5.1-4.3c-1.4-1.8-2.5-3.9-3.2-6.3
		c-0.7-2.4-1.1-5-1.1-7.8c0-2.4,0.3-4.6,0.8-6.6c0.6-2,1.3-3.7,2.1-5.3c0.8-1.5,1.8-2.9,2.8-4.1c1-1.2,2.1-2.1,3.1-2.9
		c1-0.7,1.9-1.3,2.8-1.7c0.8-0.4,1.5-0.6,1.9-0.6l0.6,1.7c-1.3,1-2.5,2.3-3.6,4.1c-0.9,1.5-1.7,3.5-2.5,6c-0.7,2.5-1.1,5.6-1.1,9.2
		c0,2.2,0.2,4.4,0.6,6.5c0.4,2.1,1,4,1.9,5.6c0.8,1.6,1.8,2.9,3,3.9c1.2,1,2.5,1.5,4,1.5c2.1,0,3.8-0.8,5.1-2.5
		c1.4-1.6,2.4-3.9,3-6.8c-1.7-0.4-3.3-1-4.8-2c-1.5-1-2.9-2.2-4.1-3.6c-1.2-1.4-2.1-3.1-2.8-5c-0.7-1.9-1-3.9-1-6.2
		c0-1.8,0.2-3.4,0.7-4.8c0.5-1.4,1.1-2.5,1.9-3.5s1.7-1.6,2.7-2.1c1-0.5,2.1-0.7,3.2-0.7c1.3,0,2.7,0.4,4.1,1.1
		c1.4,0.8,2.7,1.9,3.8,3.4c1.1,1.5,2.1,3.4,2.8,5.7c0.7,2.3,1.1,4.9,1.1,8c0,1.1-0.1,2.3-0.2,3.4c-0.1,1.1-0.3,2.2-0.6,3.2
		c1.6-0.5,3-1.2,4.3-2.2c1.3-1,2.4-2.3,3.2-4l0.5-1L188.8,66.1z M162.5,57.7c0,1.9,0.3,3.7,0.8,5.3s1.3,3,2.2,4.2
		c0.9,1.2,2,2.2,3.2,3.1c1.2,0.8,2.5,1.4,3.9,1.7c0.2-0.9,0.3-1.9,0.3-2.9c0-1,0.1-2,0.1-3.1c0-2.3-0.2-4.4-0.5-6.3
		c-0.4-1.9-0.8-3.5-1.4-4.8s-1.3-2.3-2.1-3.1c-0.8-0.7-1.6-1.1-2.4-1.1c-1.1,0-2.1,0.6-2.8,1.8C162.9,53.9,162.5,55.6,162.5,57.7z"
		/>
	<path class="st2" d="M227.8,66.1l-0.5,1c-1.1,2.2-2.6,4-4.4,5.3s-3.8,2.2-6,2.6c-0.6,1.7-1.3,3.2-2.3,4.6s-2,2.6-3.2,3.7
		c-1.2,1-2.5,1.9-4,2.4s-3.1,0.9-4.8,0.9c-2.5,0-4.8-0.5-6.8-1.6c-2-1.1-3.7-2.5-5.1-4.3c-1.4-1.8-2.5-3.9-3.2-6.3
		c-0.7-2.4-1.1-5-1.1-7.8c0-2.4,0.3-4.6,0.8-6.6c0.6-2,1.3-3.7,2.1-5.3c0.8-1.5,1.8-2.9,2.8-4.1c1-1.2,2.1-2.1,3.1-2.9
		c1-0.7,1.9-1.3,2.8-1.7c0.8-0.4,1.5-0.6,1.9-0.6l0.6,1.7c-1.3,1-2.5,2.3-3.6,4.1c-0.9,1.5-1.7,3.5-2.5,6c-0.7,2.5-1.1,5.6-1.1,9.2
		c0,2.2,0.2,4.4,0.6,6.5c0.4,2.1,1,4,1.9,5.6c0.8,1.6,1.8,2.9,3,3.9c1.2,1,2.5,1.5,4,1.5c2.1,0,3.8-0.8,5.1-2.5
		c1.4-1.6,2.4-3.9,3-6.8c-1.7-0.4-3.3-1-4.8-2s-2.9-2.2-4.1-3.6c-1.2-1.4-2.1-3.1-2.8-5c-0.7-1.9-1-3.9-1-6.2c0-1.8,0.2-3.4,0.7-4.8
		c0.5-1.4,1.1-2.5,1.9-3.5c0.8-0.9,1.7-1.6,2.7-2.1c1-0.5,2.1-0.7,3.2-0.7c1.3,0,2.7,0.4,4.1,1.1c1.4,0.8,2.7,1.9,3.8,3.4
		s2.1,3.4,2.8,5.7c0.7,2.3,1.1,4.9,1.1,8c0,1.1-0.1,2.3-0.2,3.4c-0.1,1.1-0.3,2.2-0.6,3.2c1.6-0.5,3-1.2,4.3-2.2
		c1.3-1,2.4-2.3,3.2-4l0.5-1L227.8,66.1z M201.4,57.7c0,1.9,0.3,3.7,0.8,5.3s1.3,3,2.2,4.2s2,2.2,3.2,3.1c1.2,0.8,2.5,1.4,3.9,1.7
		c0.2-0.9,0.3-1.9,0.3-2.9c0-1,0.1-2,0.1-3.1c0-2.3-0.2-4.4-0.5-6.3c-0.4-1.9-0.8-3.5-1.4-4.8s-1.3-2.3-2.1-3.1
		c-0.8-0.7-1.6-1.1-2.4-1.1c-1.1,0-2.1,0.6-2.8,1.8C201.8,53.9,201.4,55.6,201.4,57.7z"/>
	<path class="st2" d="M267.1,66.1l-0.5,1c-1.4,2.7-2.7,5.3-3.9,7.7c-1.2,2.4-2.5,4.4-3.7,6.2s-2.5,3.1-3.8,4.1
		c-1.3,1-2.7,1.5-4.1,1.5s-2.9-0.4-4.3-1.2s-2.8-1.9-4.2-3.3c-1.4-1.4-2.8-3-4.2-4.9c-1.4-1.9-2.8-3.9-4.3-6.1l-1.7,0.3
		c-0.1,2.9-0.2,5.4-0.3,7.7s-0.3,4.2-0.5,5.6c-0.1,0.7-0.4,1.1-0.8,1.4c-0.4,0.3-1,0.4-1.8,0.4c-0.9,0-1.6-0.1-2.2-0.3
		c-0.6-0.2-1-0.5-1.4-0.9s-0.6-0.7-0.7-1.1c-0.1-0.4-0.2-0.8-0.2-1.2c0-2.1,0.3-4.7,1-7.8V50.1c0-6.2,0.3-11.7,1-16.2
		c0.7-4.6,1.5-8.4,2.6-11.4c1.1-3,2.4-5.2,3.9-6.7c1.5-1.4,3.1-2.2,4.7-2.2c1.8,0,3.1,0.6,3.8,1.7c0.8,1.2,1.1,2.7,1.1,4.8
		c0,1.8-0.3,4-0.8,6.8c-0.5,2.8-1.2,5.8-2.2,9.1c-0.9,3.3-2,6.7-3.2,10.3s-2.6,7-4,10.4v1.1c0.9-1.5,2-2.9,3.2-4.2
		c1.2-1.3,2.5-2.5,3.9-3.5s2.8-1.8,4.3-2.4c1.5-0.6,2.9-0.9,4.4-0.9c1.3,0,2.4,0.2,3.5,0.5c1.1,0.4,2,0.9,2.8,1.6s1.4,1.5,1.8,2.6
		s0.6,2.2,0.6,3.5c0,1.4-0.3,2.7-0.9,4.1s-1.5,2.7-2.8,4s-2.9,2.5-5,3.6s-4.5,2.1-7.3,3c0.2,0.3,0.5,0.8,1,1.5s1,1.5,1.6,2.3
		c0.6,0.9,1.3,1.8,2.1,2.7s1.5,1.8,2.3,2.5c0.8,0.8,1.6,1.4,2.4,1.9c0.8,0.5,1.5,0.8,2.1,0.8c0.9,0,1.8-0.4,2.7-1.1s1.9-1.8,2.9-3.1
		c1-1.4,2-3,3.1-4.9s2.2-4,3.4-6.4l0.5-1L267.1,66.1z M236.8,16.1c-0.7,0-1.3,0.7-1.8,2c-0.5,1.3-0.9,3.4-1.3,6.2
		c-0.4,2.8-0.7,6.4-0.9,10.7s-0.4,9.5-0.5,15.6c1.4-3.6,2.5-7,3.3-10.2s1.5-6,2-8.6c0.5-2.6,0.8-4.8,1-6.7s0.2-3.4,0.2-4.6
		c0-1.7-0.2-2.9-0.5-3.5S237.6,16.1,236.8,16.1z M232.5,61.9c0,0.7,0,1.4,0,2c0,0.6,0,1.1,0,1.7s0,1.1,0,1.6c0,0.6,0,1.2,0,1.9
		c3.3-0.5,6.1-1.1,8.4-2c2.3-0.8,4.2-1.8,5.6-2.8s2.5-2.3,3.1-3.5c0.7-1.3,1-2.6,1-4.1c0-0.7-0.1-1.5-0.4-2.2
		c-0.2-0.7-0.6-1.3-1-1.9s-1-1-1.7-1.3c-0.7-0.3-1.4-0.5-2.2-0.5c-1.1,0-2.3,0.3-3.4,0.9c-1.2,0.6-2.3,1.4-3.4,2.4
		c-1.1,1-2.2,2.2-3.2,3.5C234.2,59.1,233.3,60.5,232.5,61.9z"/>
	<path class="st2" d="M281,50.1c-0.9,0-1.8,0.3-2.7,1c-0.9,0.7-1.7,1.6-2.5,2.7c-0.8,1.2-1.5,2.5-2.3,4.1c-0.7,1.5-1.5,3.2-2.2,5
		v0.6c-0.1,2.9-0.2,5.9-0.3,9.1s-0.1,6.7-0.1,10.5c0,0.7-0.2,1.2-0.7,1.6s-1,0.8-1.5,1.1c-0.6,0.3-1.2,0.5-1.8,0.6
		c-0.6,0.1-1.1,0.2-1.5,0.2c-0.5,0-0.9-0.1-1.4-0.4c-0.4-0.3-0.6-0.9-0.6-2c0-0.5,0-1.1,0.1-1.8s0.2-1.5,0.4-2.4
		c0.1-0.8,0.3-1.7,0.5-2.6c0.2-0.9,0.4-1.7,0.5-2.5c0-2.8,0-5.3,0-7.5c0-2.2,0-4.2,0-5.9c0-1.7,0-3.2,0-4.5c0-1.3,0-2.4,0-3.4
		c0-1.6,0-2.7,0.1-3.4s0.1-1.2,0.2-1.5c0.2-0.5,0.5-0.8,0.9-1.1c0.4-0.3,0.9-0.5,1.4-0.6s1-0.2,1.5-0.3c0.5,0,0.9,0,1.1,0
		c0.6,0,1,0.2,1.2,0.5c0.2,0.4,0.3,0.9,0.3,1.7c0,1.7,0,3.2,0,4.6s0,2.7-0.1,4.1c0.6-1.5,1.3-2.9,2.2-4.2s1.8-2.5,2.8-3.5
		c1-1,2.1-1.8,3.2-2.4s2.3-0.9,3.5-0.9c1.5,0,2.7,0.3,3.6,0.9c1,0.6,1.7,1.4,2.3,2.5s1,2.3,1.3,3.8c0.3,1.4,0.5,3,0.6,4.7
		c0.9-1.7,1.9-3.2,3-4.7c1.1-1.4,2.2-2.7,3.4-3.8s2.4-1.9,3.8-2.5c1.3-0.6,2.7-0.9,4.1-0.9c2.5,0,4.3,0.8,5.4,2.3
		c1.1,1.5,1.7,3.6,1.7,6.3c0,1.7-0.1,3.5-0.4,5.6s-0.5,4.1-0.8,6.2s-0.6,4.2-0.8,6.2c-0.3,2-0.4,3.9-0.4,5.5c0,2,0.5,3,1.5,3
		c0.5,0,1.1-0.3,1.7-1s1.3-1.6,2.1-2.9s1.7-3,2.8-5c1.1-2,2.3-4.4,3.7-7.2l0.5-1l2,1.5l-0.5,1c-1.9,3.8-3.6,7-4.9,9.5
		c-1.4,2.5-2.6,4.5-3.6,6c-1.1,1.5-2.1,2.5-3.1,3.1s-2,0.9-3.2,0.9c-0.7,0-1.4-0.1-2-0.3s-1.2-0.5-1.7-1s-0.9-1.1-1.2-2
		s-0.4-1.9-0.4-3.2c0-2,0.1-4.2,0.4-6.6s0.6-4.9,0.9-7.3s0.6-4.7,0.9-6.9c0.3-2.2,0.4-3.9,0.4-5.3c0-1.2-0.3-2.2-0.8-2.9
		s-1.3-1.1-2.3-1.1s-2.1,0.4-3.2,1.2c-1.1,0.8-2.2,1.9-3.3,3.1c-1.1,1.3-2.1,2.7-3,4.3c-0.9,1.6-1.7,3.2-2.4,4.7c0,3.4,0,6.4-0.1,9
		c-0.1,2.6-0.2,4.7-0.3,6.5s-0.3,3.1-0.5,4.2s-0.4,1.7-0.6,2.1c-0.2,0.2-0.4,0.4-0.8,0.6s-0.8,0.4-1.3,0.5c-0.5,0.1-0.9,0.2-1.4,0.3
		c-0.4,0.1-0.8,0.1-1,0.1c-0.5,0-1-0.2-1.3-0.5c-0.4-0.3-0.6-0.9-0.6-1.8c0-0.4,0-1,0.1-1.7c0.1-0.7,0.2-1.5,0.3-2.4
		s0.3-1.8,0.4-2.8c0.2-1,0.3-2,0.5-3.1c0-1,0.1-2.1,0.1-3.3c0-1.2,0.1-2.4,0.1-3.6c0-1.2,0.1-2.3,0.1-3.4c0-1.1,0-2,0-2.8
		c0-1.7,0-3.2-0.1-4.5s-0.3-2.5-0.6-3.5s-0.7-1.7-1.1-2.3S281.8,50.1,281,50.1z"/>
	<path class="st2" d="M351.6,74.5c0,1.9,0.2,3.4,0.5,4.7s0.9,1.9,1.7,1.9c0.5,0,1-0.2,1.6-0.7c0.6-0.5,1.2-1.2,2-2.3
		s1.6-2.5,2.6-4.2s2.1-3.8,3.3-6.3l1.5-3l2,1.5l-1.5,3c-1.4,2.7-2.6,5.2-3.8,7.3c-1.2,2.2-2.3,4-3.4,5.5c-1.1,1.5-2.1,2.6-3.1,3.4
		c-1,0.8-2,1.2-3.1,1.2c-1.1,0-2-0.3-2.7-0.9s-1.3-1.4-1.8-2.4s-0.9-2.2-1.1-3.6c-0.3-1.4-0.4-2.8-0.5-4.3c-0.8,1.6-1.6,3-2.6,4.4
		c-0.9,1.4-1.9,2.5-3,3.5c-1,1-2.1,1.8-3.2,2.4s-2.2,0.9-3.3,0.9c-1.6,0-3.2-0.3-4.7-1s-2.9-1.7-4.1-3.1c-1.2-1.4-2.1-3.2-2.9-5.3
		c-0.7-2.1-1.1-4.6-1.1-7.5c0-3.4,0.4-6.5,1.3-9.3c0.9-2.8,2.1-5.2,3.6-7.3c1.5-2,3.2-3.6,5.2-4.7s4-1.7,6.2-1.7
		c1.3,0,2.5,0.3,3.6,0.9s2.1,1.3,2.9,2.1s1.5,1.7,2.1,2.6s0.9,1.7,1.1,2.4l0.6-4.7c0.1-0.6,0.4-1.1,0.9-1.6c0.5-0.4,1.1-0.8,1.8-1
		s1.3-0.4,1.9-0.5c0.6-0.1,1.1-0.2,1.3-0.2c0.4,0,0.7,0.1,0.8,0.2c0.1,0.1,0.2,0.4,0.2,0.8c0,0.5-0.1,1.5-0.4,3
		c-0.3,1.5-0.6,3.4-0.9,5.7s-0.6,5-0.9,8.1C351.8,67.4,351.6,70.8,351.6,74.5z M346.3,61.6c0-1.5-0.2-3-0.7-4.4
		c-0.5-1.4-1.1-2.7-1.9-3.9s-1.7-2-2.7-2.7s-2.1-1-3.2-1c-1.4,0-2.7,0.4-3.9,1.2c-1.2,0.8-2.3,1.9-3.2,3.4c-0.9,1.4-1.6,3.2-2.1,5.2
		c-0.5,2-0.8,4.3-0.8,6.7c0,4.9,0.8,8.6,2.3,11.2c1.5,2.6,3.6,3.8,6.1,3.8c1.1,0,2.3-0.4,3.4-1.3c1.2-0.9,2.3-2.2,3.3-3.9
		c1-1.7,1.8-3.7,2.4-6.1C345.9,67.4,346.3,64.7,346.3,61.6z"/>
	<path class="st2" d="M393.2,69.6c0,2.2-0.3,4.3-1,6.4c-0.7,2-1.6,3.8-2.9,5.4c-1.3,1.6-2.9,2.8-4.8,3.8c-1.9,0.9-4.1,1.4-6.5,1.4
		c-1.8,0-3.3-0.3-4.7-0.9c-1.4-0.6-2.6-1.3-3.5-2.3c-1-1-1.7-2.1-2.2-3.3s-0.8-2.5-0.8-3.8c0-1.3,0.3-2.5,0.8-3.6s1.2-2.1,2.1-2.9
		c0.9-0.8,1.8-1.4,3-1.9c1.1-0.5,2.3-0.7,3.5-0.7c0.8,0,1.6,0.1,2.4,0.3v1.4c-1,0-2.1,0.2-3.1,0.6c-1,0.4-1.9,1-2.6,1.7
		s-1.4,1.6-1.8,2.6s-0.7,2.1-0.7,3.3c0,2.1,0.7,3.9,2.2,5.2c1.5,1.3,3.5,1.9,6.1,1.9c1.3,0,2.5-0.3,3.6-0.8c1.1-0.5,2-1.2,2.8-2.1
		c0.8-0.9,1.4-2,1.8-3.2c0.4-1.2,0.6-2.6,0.6-4.1c0-1.4-0.3-2.7-0.8-3.9c-0.6-1.2-1.3-2.3-2.2-3.4s-1.9-2.1-3.1-3
		c-1.2-0.9-2.3-1.8-3.5-2.7c-1.2-0.9-2.4-1.7-3.5-2.5c-1.1-0.8-2.1-1.6-3-2.4l-4.9,10.8l-2-1.5l5-10.9c-1.2-1.1-2.1-2.2-2.7-3.2
		s-0.9-2.3-0.9-3.7c0-0.8,0.1-1.5,0.4-2.2c0.3-0.7,0.7-1.3,1.1-1.8c0.5-0.5,1-0.9,1.6-1.2s1.3-0.4,2-0.4c1.2,0,2.2,0.4,2.8,1
		c0.6,0.7,0.9,1.6,0.9,2.6c0,0.5,0,1-0.1,1.5s-0.2,1.1-0.4,1.6s-0.3,1-0.4,1.5c-0.1,0.5-0.3,0.8-0.4,1.2c1,0.7,2.1,1.5,3.5,2.2
		c1.4,0.7,2.8,1.4,4.3,2.2c1.5,0.7,3,1.6,4.4,2.4s2.8,1.9,3.9,2.9s2.1,2.3,2.8,3.7C392.9,66.4,393.2,67.9,393.2,69.6z M370.9,44.3
		c-0.5,0-0.8,0.2-1.1,0.5c-0.3,0.3-0.4,0.7-0.4,1.2c0,0.6,0.1,1.2,0.4,2c0.3,0.7,0.8,1.4,1.6,2.1c0.3-0.7,0.6-1.4,0.8-2
		c0.2-0.7,0.3-1.3,0.3-2c0-0.5-0.1-1-0.4-1.3S371.4,44.3,370.9,44.3z"/>
</g>
<g class="st1">
	<path class="st3" d="M100.9,49.5c0,5.9,0.7,11,2,15.3c1.3,4.4,3.1,8,5.3,10.9c2.2,2.9,4.7,5.1,7.5,6.5c2.8,1.4,5.7,2.2,8.7,2.2
		c2.1,0,4.2-0.4,6.3-1.2c2.1-0.8,4.1-2,6-3.5s3.8-3.5,5.6-5.9s3.5-5.1,5.1-8.3l0.5-1l2,1.5l-0.5,1c-1.8,3.6-3.8,6.8-5.9,9.5
		c-2.2,2.7-4.5,5-6.9,6.9c-2.4,1.8-5,3.2-7.6,4.2c-2.6,0.9-5.3,1.4-8,1.4c-2.3,0-4.7-0.3-7-1c-2.3-0.7-4.5-1.7-6.5-3
		c-2.1-1.4-4-3.1-5.8-5.1c-1.8-2.1-3.3-4.5-4.6-7.2c-1.3-2.8-2.3-5.9-3.1-9.3s-1.1-7.3-1.1-11.5c0-5.5,0.5-10.5,1.4-15
		c0.9-4.5,2.2-8.5,3.8-12c1.6-3.5,3.4-6.5,5.5-9.1c2.1-2.6,4.3-4.7,6.6-6.4c2.3-1.7,4.7-2.9,7.1-3.7c2.4-0.8,4.7-1.2,6.9-1.2
		c2.9,0,5.6,0.5,8,1.5c2.4,1,4.5,2.4,6.3,4.2s3.1,4,4.1,6.6c1,2.6,1.5,5.5,1.5,8.6c0,3-0.5,5.9-1.4,8.5c-0.9,2.7-2.2,5-3.7,7
		c-1.5,2-3.3,3.6-5.3,4.8s-4.1,1.8-6.3,1.8c-1.5,0-2.8-0.3-4.1-0.8c-1.3-0.5-2.4-1.3-3.3-2.2c-0.9-0.9-1.7-2.1-2.2-3.5
		c-0.6-1.4-0.8-2.9-0.8-4.5c0-1.6,0.2-3.1,0.7-4.6c0.5-1.5,1.1-2.8,1.9-4.1c0.7-1.3,1.6-2.4,2.5-3.3c0.9-1,1.8-1.7,2.6-2.3l1.3,1.3
		c-0.7,0.8-1.3,1.6-1.9,2.5c-0.6,0.9-1.1,1.9-1.6,2.9c-0.5,1-0.8,2.1-1.1,3.3c-0.3,1.2-0.4,2.4-0.4,3.8c0,1.4,0.2,2.7,0.5,3.8
		c0.3,1.1,0.8,2.1,1.4,2.8c0.6,0.8,1.3,1.4,2.1,1.8c0.8,0.4,1.6,0.6,2.5,0.6c1.2,0,2.4-0.4,3.6-1.3c1.2-0.9,2.3-2.2,3.2-4
		c0.9-1.7,1.7-3.9,2.3-6.4s0.9-5.5,0.9-8.8c0-3-0.3-5.6-1-7.8c-0.7-2.2-1.6-4-2.8-5.4c-1.2-1.4-2.6-2.5-4.2-3.2
		c-1.6-0.7-3.3-1-5.1-1c-1.3,0-2.8,0.3-4.4,0.9c-1.7,0.6-3.4,1.5-5.1,2.8c-1.7,1.3-3.4,3-5.1,5.2c-1.7,2.1-3.1,4.8-4.5,7.9
		c-1.3,3.1-2.4,6.8-3.2,11.1C101.3,39.2,100.9,44,100.9,49.5z"/>
	<path class="st3" d="M188.8,66.1l-0.5,1c-1.1,2.2-2.6,4-4.4,5.3c-1.8,1.3-3.8,2.2-6,2.6c-0.6,1.7-1.3,3.2-2.3,4.6s-2,2.6-3.2,3.7
		c-1.2,1-2.5,1.9-4,2.4c-1.5,0.6-3.1,0.9-4.8,0.9c-2.5,0-4.8-0.5-6.8-1.6c-2-1.1-3.7-2.5-5.1-4.3c-1.4-1.8-2.5-3.9-3.2-6.3
		c-0.7-2.4-1.1-5-1.1-7.8c0-2.4,0.3-4.6,0.8-6.6c0.6-2,1.3-3.7,2.1-5.3c0.8-1.5,1.8-2.9,2.8-4.1c1-1.2,2.1-2.1,3.1-2.9
		c1-0.7,1.9-1.3,2.8-1.7c0.8-0.4,1.5-0.6,1.9-0.6l0.6,1.7c-1.3,1-2.5,2.3-3.6,4.1c-0.9,1.5-1.7,3.5-2.5,6c-0.7,2.5-1.1,5.6-1.1,9.2
		c0,2.2,0.2,4.4,0.6,6.5c0.4,2.1,1,4,1.9,5.6c0.8,1.6,1.8,2.9,3,3.9c1.2,1,2.5,1.5,4,1.5c2.1,0,3.8-0.8,5.1-2.5
		c1.4-1.6,2.4-3.9,3-6.8c-1.7-0.4-3.3-1-4.8-2c-1.5-1-2.9-2.2-4.1-3.6c-1.2-1.4-2.1-3.1-2.8-5c-0.7-1.9-1-3.9-1-6.2
		c0-1.8,0.2-3.4,0.7-4.8c0.5-1.4,1.1-2.5,1.9-3.5s1.7-1.6,2.7-2.1c1-0.5,2.1-0.7,3.2-0.7c1.3,0,2.7,0.4,4.1,1.1
		c1.4,0.8,2.7,1.9,3.8,3.4c1.1,1.5,2.1,3.4,2.8,5.7c0.7,2.3,1.1,4.9,1.1,8c0,1.1-0.1,2.3-0.2,3.4c-0.1,1.1-0.3,2.2-0.6,3.2
		c1.6-0.5,3-1.2,4.3-2.2c1.3-1,2.4-2.3,3.2-4l0.5-1L188.8,66.1z M162.5,57.7c0,1.9,0.3,3.7,0.8,5.3s1.3,3,2.2,4.2
		c0.9,1.2,2,2.2,3.2,3.1c1.2,0.8,2.5,1.4,3.9,1.7c0.2-0.9,0.3-1.9,0.3-2.9c0-1,0.1-2,0.1-3.1c0-2.3-0.2-4.4-0.5-6.3
		c-0.4-1.9-0.8-3.5-1.4-4.8s-1.3-2.3-2.1-3.1c-0.8-0.7-1.6-1.1-2.4-1.1c-1.1,0-2.1,0.6-2.8,1.8C162.9,53.9,162.5,55.6,162.5,57.7z"
		/>
	<path class="st3" d="M227.8,66.1l-0.5,1c-1.1,2.2-2.6,4-4.4,5.3s-3.8,2.2-6,2.6c-0.6,1.7-1.3,3.2-2.3,4.6s-2,2.6-3.2,3.7
		c-1.2,1-2.5,1.9-4,2.4s-3.1,0.9-4.8,0.9c-2.5,0-4.8-0.5-6.8-1.6c-2-1.1-3.7-2.5-5.1-4.3c-1.4-1.8-2.5-3.9-3.2-6.3
		c-0.7-2.4-1.1-5-1.1-7.8c0-2.4,0.3-4.6,0.8-6.6c0.6-2,1.3-3.7,2.1-5.3c0.8-1.5,1.8-2.9,2.8-4.1c1-1.2,2.1-2.1,3.1-2.9
		c1-0.7,1.9-1.3,2.8-1.7c0.8-0.4,1.5-0.6,1.9-0.6l0.6,1.7c-1.3,1-2.5,2.3-3.6,4.1c-0.9,1.5-1.7,3.5-2.5,6c-0.7,2.5-1.1,5.6-1.1,9.2
		c0,2.2,0.2,4.4,0.6,6.5c0.4,2.1,1,4,1.9,5.6c0.8,1.6,1.8,2.9,3,3.9c1.2,1,2.5,1.5,4,1.5c2.1,0,3.8-0.8,5.1-2.5
		c1.4-1.6,2.4-3.9,3-6.8c-1.7-0.4-3.3-1-4.8-2s-2.9-2.2-4.1-3.6c-1.2-1.4-2.1-3.1-2.8-5c-0.7-1.9-1-3.9-1-6.2c0-1.8,0.2-3.4,0.7-4.8
		c0.5-1.4,1.1-2.5,1.9-3.5c0.8-0.9,1.7-1.6,2.7-2.1c1-0.5,2.1-0.7,3.2-0.7c1.3,0,2.7,0.4,4.1,1.1c1.4,0.8,2.7,1.9,3.8,3.4
		s2.1,3.4,2.8,5.7c0.7,2.3,1.1,4.9,1.1,8c0,1.1-0.1,2.3-0.2,3.4c-0.1,1.1-0.3,2.2-0.6,3.2c1.6-0.5,3-1.2,4.3-2.2
		c1.3-1,2.4-2.3,3.2-4l0.5-1L227.8,66.1z M201.4,57.7c0,1.9,0.3,3.7,0.8,5.3s1.3,3,2.2,4.2s2,2.2,3.2,3.1c1.2,0.8,2.5,1.4,3.9,1.7
		c0.2-0.9,0.3-1.9,0.3-2.9c0-1,0.1-2,0.1-3.1c0-2.3-0.2-4.4-0.5-6.3c-0.4-1.9-0.8-3.5-1.4-4.8s-1.3-2.3-2.1-3.1
		c-0.8-0.7-1.6-1.1-2.4-1.1c-1.1,0-2.1,0.6-2.8,1.8C201.8,53.9,201.4,55.6,201.4,57.7z"/>
	<path class="st3" d="M267.1,66.1l-0.5,1c-1.4,2.7-2.7,5.3-3.9,7.7c-1.2,2.4-2.5,4.4-3.7,6.2s-2.5,3.1-3.8,4.1
		c-1.3,1-2.7,1.5-4.1,1.5s-2.9-0.4-4.3-1.2s-2.8-1.9-4.2-3.3c-1.4-1.4-2.8-3-4.2-4.9c-1.4-1.9-2.8-3.9-4.3-6.1l-1.7,0.3
		c-0.1,2.9-0.2,5.4-0.3,7.7s-0.3,4.2-0.5,5.6c-0.1,0.7-0.4,1.1-0.8,1.4c-0.4,0.3-1,0.4-1.8,0.4c-0.9,0-1.6-0.1-2.2-0.3
		c-0.6-0.2-1-0.5-1.4-0.9s-0.6-0.7-0.7-1.1c-0.1-0.4-0.2-0.8-0.2-1.2c0-2.1,0.3-4.7,1-7.8V50.1c0-6.2,0.3-11.7,1-16.2
		c0.7-4.6,1.5-8.4,2.6-11.4c1.1-3,2.4-5.2,3.9-6.7c1.5-1.4,3.1-2.2,4.7-2.2c1.8,0,3.1,0.6,3.8,1.7c0.8,1.2,1.1,2.7,1.1,4.8
		c0,1.8-0.3,4-0.8,6.8c-0.5,2.8-1.2,5.8-2.2,9.1c-0.9,3.3-2,6.7-3.2,10.3s-2.6,7-4,10.4v1.1c0.9-1.5,2-2.9,3.2-4.2
		c1.2-1.3,2.5-2.5,3.9-3.5s2.8-1.8,4.3-2.4c1.5-0.6,2.9-0.9,4.4-0.9c1.3,0,2.4,0.2,3.5,0.5c1.1,0.4,2,0.9,2.8,1.6s1.4,1.5,1.8,2.6
		s0.6,2.2,0.6,3.5c0,1.4-0.3,2.7-0.9,4.1s-1.5,2.7-2.8,4s-2.9,2.5-5,3.6s-4.5,2.1-7.3,3c0.2,0.3,0.5,0.8,1,1.5s1,1.5,1.6,2.3
		c0.6,0.9,1.3,1.8,2.1,2.7s1.5,1.8,2.3,2.5c0.8,0.8,1.6,1.4,2.4,1.9c0.8,0.5,1.5,0.8,2.1,0.8c0.9,0,1.8-0.4,2.7-1.1s1.9-1.8,2.9-3.1
		c1-1.4,2-3,3.1-4.9s2.2-4,3.4-6.4l0.5-1L267.1,66.1z M236.8,16.1c-0.7,0-1.3,0.7-1.8,2c-0.5,1.3-0.9,3.4-1.3,6.2
		c-0.4,2.8-0.7,6.4-0.9,10.7s-0.4,9.5-0.5,15.6c1.4-3.6,2.5-7,3.3-10.2s1.5-6,2-8.6c0.5-2.6,0.8-4.8,1-6.7s0.2-3.4,0.2-4.6
		c0-1.7-0.2-2.9-0.5-3.5S237.6,16.1,236.8,16.1z M232.5,61.9c0,0.7,0,1.4,0,2c0,0.6,0,1.1,0,1.7s0,1.1,0,1.6c0,0.6,0,1.2,0,1.9
		c3.3-0.5,6.1-1.1,8.4-2c2.3-0.8,4.2-1.8,5.6-2.8s2.5-2.3,3.1-3.5c0.7-1.3,1-2.6,1-4.1c0-0.7-0.1-1.5-0.4-2.2
		c-0.2-0.7-0.6-1.3-1-1.9s-1-1-1.7-1.3c-0.7-0.3-1.4-0.5-2.2-0.5c-1.1,0-2.3,0.3-3.4,0.9c-1.2,0.6-2.3,1.4-3.4,2.4
		c-1.1,1-2.2,2.2-3.2,3.5C234.2,59.1,233.3,60.5,232.5,61.9z"/>
	<path class="st3" d="M281,50.1c-0.9,0-1.8,0.3-2.7,1c-0.9,0.7-1.7,1.6-2.5,2.7c-0.8,1.2-1.5,2.5-2.3,4.1c-0.7,1.5-1.5,3.2-2.2,5
		v0.6c-0.1,2.9-0.2,5.9-0.3,9.1s-0.1,6.7-0.1,10.5c0,0.7-0.2,1.2-0.7,1.6s-1,0.8-1.5,1.1c-0.6,0.3-1.2,0.5-1.8,0.6
		c-0.6,0.1-1.1,0.2-1.5,0.2c-0.5,0-0.9-0.1-1.4-0.4c-0.4-0.3-0.6-0.9-0.6-2c0-0.5,0-1.1,0.1-1.8s0.2-1.5,0.4-2.4
		c0.1-0.8,0.3-1.7,0.5-2.6c0.2-0.9,0.4-1.7,0.5-2.5c0-2.8,0-5.3,0-7.5c0-2.2,0-4.2,0-5.9c0-1.7,0-3.2,0-4.5c0-1.3,0-2.4,0-3.4
		c0-1.6,0-2.7,0.1-3.4s0.1-1.2,0.2-1.5c0.2-0.5,0.5-0.8,0.9-1.1c0.4-0.3,0.9-0.5,1.4-0.6s1-0.2,1.5-0.3c0.5,0,0.9,0,1.1,0
		c0.6,0,1,0.2,1.2,0.5c0.2,0.4,0.3,0.9,0.3,1.7c0,1.7,0,3.2,0,4.6s0,2.7-0.1,4.1c0.6-1.5,1.3-2.9,2.2-4.2s1.8-2.5,2.8-3.5
		c1-1,2.1-1.8,3.2-2.4s2.3-0.9,3.5-0.9c1.5,0,2.7,0.3,3.6,0.9c1,0.6,1.7,1.4,2.3,2.5s1,2.3,1.3,3.8c0.3,1.4,0.5,3,0.6,4.7
		c0.9-1.7,1.9-3.2,3-4.7c1.1-1.4,2.2-2.7,3.4-3.8s2.4-1.9,3.8-2.5c1.3-0.6,2.7-0.9,4.1-0.9c2.5,0,4.3,0.8,5.4,2.3
		c1.1,1.5,1.7,3.6,1.7,6.3c0,1.7-0.1,3.5-0.4,5.6s-0.5,4.1-0.8,6.2s-0.6,4.2-0.8,6.2c-0.3,2-0.4,3.9-0.4,5.5c0,2,0.5,3,1.5,3
		c0.5,0,1.1-0.3,1.7-1s1.3-1.6,2.1-2.9s1.7-3,2.8-5c1.1-2,2.3-4.4,3.7-7.2l0.5-1l2,1.5l-0.5,1c-1.9,3.8-3.6,7-4.9,9.5
		c-1.4,2.5-2.6,4.5-3.6,6c-1.1,1.5-2.1,2.5-3.1,3.1s-2,0.9-3.2,0.9c-0.7,0-1.4-0.1-2-0.3s-1.2-0.5-1.7-1s-0.9-1.1-1.2-2
		s-0.4-1.9-0.4-3.2c0-2,0.1-4.2,0.4-6.6s0.6-4.9,0.9-7.3s0.6-4.7,0.9-6.9c0.3-2.2,0.4-3.9,0.4-5.3c0-1.2-0.3-2.2-0.8-2.9
		s-1.3-1.1-2.3-1.1s-2.1,0.4-3.2,1.2c-1.1,0.8-2.2,1.9-3.3,3.1c-1.1,1.3-2.1,2.7-3,4.3c-0.9,1.6-1.7,3.2-2.4,4.7c0,3.4,0,6.4-0.1,9
		c-0.1,2.6-0.2,4.7-0.3,6.5s-0.3,3.1-0.5,4.2s-0.4,1.7-0.6,2.1c-0.2,0.2-0.4,0.4-0.8,0.6s-0.8,0.4-1.3,0.5c-0.5,0.1-0.9,0.2-1.4,0.3
		c-0.4,0.1-0.8,0.1-1,0.1c-0.5,0-1-0.2-1.3-0.5c-0.4-0.3-0.6-0.9-0.6-1.8c0-0.4,0-1,0.1-1.7c0.1-0.7,0.2-1.5,0.3-2.4
		s0.3-1.8,0.4-2.8c0.2-1,0.3-2,0.5-3.1c0-1,0.1-2.1,0.1-3.3c0-1.2,0.1-2.4,0.1-3.6c0-1.2,0.1-2.3,0.1-3.4c0-1.1,0-2,0-2.8
		c0-1.7,0-3.2-0.1-4.5s-0.3-2.5-0.6-3.5s-0.7-1.7-1.1-2.3S281.8,50.1,281,50.1z"/>
	<path class="st3" d="M351.6,74.5c0,1.9,0.2,3.4,0.5,4.7s0.9,1.9,1.7,1.9c0.5,0,1-0.2,1.6-0.7c0.6-0.5,1.2-1.2,2-2.3
		s1.6-2.5,2.6-4.2s2.1-3.8,3.3-6.3l1.5-3l2,1.5l-1.5,3c-1.4,2.7-2.6,5.2-3.8,7.3c-1.2,2.2-2.3,4-3.4,5.5c-1.1,1.5-2.1,2.6-3.1,3.4
		c-1,0.8-2,1.2-3.1,1.2c-1.1,0-2-0.3-2.7-0.9s-1.3-1.4-1.8-2.4s-0.9-2.2-1.1-3.6c-0.3-1.4-0.4-2.8-0.5-4.3c-0.8,1.6-1.6,3-2.6,4.4
		c-0.9,1.4-1.9,2.5-3,3.5c-1,1-2.1,1.8-3.2,2.4s-2.2,0.9-3.3,0.9c-1.6,0-3.2-0.3-4.7-1s-2.9-1.7-4.1-3.1c-1.2-1.4-2.1-3.2-2.9-5.3
		c-0.7-2.1-1.1-4.6-1.1-7.5c0-3.4,0.4-6.5,1.3-9.3c0.9-2.8,2.1-5.2,3.6-7.3c1.5-2,3.2-3.6,5.2-4.7s4-1.7,6.2-1.7
		c1.3,0,2.5,0.3,3.6,0.9s2.1,1.3,2.9,2.1s1.5,1.7,2.1,2.6s0.9,1.7,1.1,2.4l0.6-4.7c0.1-0.6,0.4-1.1,0.9-1.6c0.5-0.4,1.1-0.8,1.8-1
		s1.3-0.4,1.9-0.5c0.6-0.1,1.1-0.2,1.3-0.2c0.4,0,0.7,0.1,0.8,0.2c0.1,0.1,0.2,0.4,0.2,0.8c0,0.5-0.1,1.5-0.4,3
		c-0.3,1.5-0.6,3.4-0.9,5.7s-0.6,5-0.9,8.1C351.8,67.4,351.6,70.8,351.6,74.5z M346.3,61.6c0-1.5-0.2-3-0.7-4.4
		c-0.5-1.4-1.1-2.7-1.9-3.9s-1.7-2-2.7-2.7s-2.1-1-3.2-1c-1.4,0-2.7,0.4-3.9,1.2c-1.2,0.8-2.3,1.9-3.2,3.4c-0.9,1.4-1.6,3.2-2.1,5.2
		c-0.5,2-0.8,4.3-0.8,6.7c0,4.9,0.8,8.6,2.3,11.2c1.5,2.6,3.6,3.8,6.1,3.8c1.1,0,2.3-0.4,3.4-1.3c1.2-0.9,2.3-2.2,3.3-3.9
		c1-1.7,1.8-3.7,2.4-6.1C345.9,67.4,346.3,64.7,346.3,61.6z"/>
	<path class="st3" d="M393.2,69.6c0,2.2-0.3,4.3-1,6.4c-0.7,2-1.6,3.8-2.9,5.4c-1.3,1.6-2.9,2.8-4.8,3.8c-1.9,0.9-4.1,1.4-6.5,1.4
		c-1.8,0-3.3-0.3-4.7-0.9c-1.4-0.6-2.6-1.3-3.5-2.3c-1-1-1.7-2.1-2.2-3.3s-0.8-2.5-0.8-3.8c0-1.3,0.3-2.5,0.8-3.6s1.2-2.1,2.1-2.9
		c0.9-0.8,1.8-1.4,3-1.9c1.1-0.5,2.3-0.7,3.5-0.7c0.8,0,1.6,0.1,2.4,0.3v1.4c-1,0-2.1,0.2-3.1,0.6c-1,0.4-1.9,1-2.6,1.7
		s-1.4,1.6-1.8,2.6s-0.7,2.1-0.7,3.3c0,2.1,0.7,3.9,2.2,5.2c1.5,1.3,3.5,1.9,6.1,1.9c1.3,0,2.5-0.3,3.6-0.8c1.1-0.5,2-1.2,2.8-2.1
		c0.8-0.9,1.4-2,1.8-3.2c0.4-1.2,0.6-2.6,0.6-4.1c0-1.4-0.3-2.7-0.8-3.9c-0.6-1.2-1.3-2.3-2.2-3.4s-1.9-2.1-3.1-3
		c-1.2-0.9-2.3-1.8-3.5-2.7c-1.2-0.9-2.4-1.7-3.5-2.5c-1.1-0.8-2.1-1.6-3-2.4l-4.9,10.8l-2-1.5l5-10.9c-1.2-1.1-2.1-2.2-2.7-3.2
		s-0.9-2.3-0.9-3.7c0-0.8,0.1-1.5,0.4-2.2c0.3-0.7,0.7-1.3,1.1-1.8c0.5-0.5,1-0.9,1.6-1.2s1.3-0.4,2-0.4c1.2,0,2.2,0.4,2.8,1
		c0.6,0.7,0.9,1.6,0.9,2.6c0,0.5,0,1-0.1,1.5s-0.2,1.1-0.4,1.6s-0.3,1-0.4,1.5c-0.1,0.5-0.3,0.8-0.4,1.2c1,0.7,2.1,1.5,3.5,2.2
		c1.4,0.7,2.8,1.4,4.3,2.2c1.5,0.7,3,1.6,4.4,2.4s2.8,1.9,3.9,2.9s2.1,2.3,2.8,3.7C392.9,66.4,393.2,67.9,393.2,69.6z M370.9,44.3
		c-0.5,0-0.8,0.2-1.1,0.5c-0.3,0.3-0.4,0.7-0.4,1.2c0,0.6,0.1,1.2,0.4,2c0.3,0.7,0.8,1.4,1.6,2.1c0.3-0.7,0.6-1.4,0.8-2
		c0.2-0.7,0.3-1.3,0.3-2c0-0.5-0.1-1-0.4-1.3S371.4,44.3,370.9,44.3z"/>
</g>
<g>
	<g id="XMLID_00000007396626004945752900000014170694929939523479_">
		<g>
			<path class="st2" d="M79.8,30.6c4,6.6,2.6,13-5.7,17.5s1.9,11.8,5,15.1s8,10.2,0,18s-17.3-2.1-17.3-2.1c-6.9-9.9-5.7,4-5.7,4
				C55.4,97,44,94.9,44,94.9c-12.2-1.1-11-16.5-11-16.5c1.9-13.6-5.3-11.3-7-10.6c-0.3,0.1-0.5,0.2-0.8,0.3c-12.6,2.3-15.1-7-15.1-7
				C6,47,24.5,45.5,24.5,45.5c-9-8-8.3-17-8.3-17c1.4-21.5,21-22,21-22c-1.2,3.2-1,5.3-0.2,6.6c1.3,2.2,4.2,2.4,4.2,2.4
				c-0.2,10.4,9.7,6.1,9.7,6.1c3.3,4.7,8.5,0.7,8.5,0.7l0.2,8.8C66.6,26.6,75.8,24,79.8,30.6z"/>
		</g>
	</g>
	<path class="st4" d="M52.6,23.3v10.5c0,0,0.4,8.9,9.4,4.4l5.8-3.3c0.5-0.3,1-0.5,1.6-0.6c2.4-0.4,8.4-0.8,4.5,5.3
		c-0.5,0.8-1.2,1.4-2.1,1.9c-3.3,1.7-12.3,7.6-7,15.7c4.9,7.5,5.9,8.8,7.1,9.9c0.7,0.7,3.2,3.2,3.6,3.7c3.1,3.6,0.6,10.5-7.5,4.4
		c-0.5-0.4-1.6-1.3-1.8-1.6L62.5,70c0,0-9-7-12.3,4.1c-0.1,0.4-0.3,2.6-0.3,3.1l-0.3,4.9c0,1-0.1,2.4-0.5,3.3
		c-1.1,2.5-5.9,5.7-8-0.4c-0.4-1.1-0.7-2.5-0.8-3.3l-0.7-11.8c0,0,0.4-10.9-11.6-9.5l-5.2,1.2c-0.8,0.2-1.6,0.1-2.3-0.2
		c-2.1-0.9-5.8-3.1-0.4-7.1c0.7-0.5,1.4-0.8,2.2-1c2.1-0.5,6.6-1.5,7.4-2.2c1-0.7,4.8-3,2.1-8.8c-0.5-1.1-1.4-2.1-2.4-2.8
		c-2-1.2-5.7-4.6-6.4-12.2c0,0-0.4-13.9,13.5-14.8c0,0,0.4,2.4,4.8,3c0,0-0.1,8.6,9.7,6.1C50.9,21.7,52.2,23,52.6,23.3z"/>
	<path class="st5" d="M33.8,30.8c0,0,1.4,2,3.2,2.8c2.2,1,5.5,0.4,5.9-3.3c0.1-0.9-0.1-2.1-0.2-3.4"/>
	<ellipse transform="matrix(0.8785 -0.4778 0.4778 0.8785 -9.1815 18.0591)" class="st6" cx="30.9" cy="27.1" rx="1.5" ry="1.9"/>
	<circle class="st5" cx="46.5" cy="48.4" r="4.1"/>
	<circle class="st5" cx="51.5" cy="59.9" r="4.1"/>
</g>
</svg>
