<?xml version="1.0" standalone="no"?>
<!DOCTYPE svg PUBLIC "-//W3C//DTD SVG 20010904//EN"
 "http://www.w3.org/TR/2001/REC-SVG-20010904/DTD/svg10.dtd">
<svg version="1.0" xmlns="http://www.w3.org/2000/svg"
 width="600.000000pt" height="150.000000pt" viewBox="0 0 600.000000 150.000000"
 preserveAspectRatio="xMidYMid meet">

<g transform="translate(0.000000,150.000000) scale(0.100000,-0.100000)"
fill="#000000" stroke="none">
<path d="M669 1276 c-176 -63 -236 -295 -111 -428 19 -21 22 -29 11 -32 -8 -2
-30 -9 -50 -15 -96 -30 -134 -157 -68 -227 36 -38 99 -58 145 -45 71 20 82 16
89 -31 3 -24 7 -76 9 -116 3 -78 17 -107 69 -146 37 -27 117 -27 155 0 50 38
72 81 72 145 0 33 3 59 6 59 4 0 26 -18 49 -39 77 -70 155 -74 222 -9 68 66
58 141 -32 239 -69 74 -86 107 -64 120 60 33 98 72 114 114 18 45 18 48 -1 93
-14 34 -30 53 -59 69 -49 28 -87 29 -144 3 -53 -25 -51 -25 -51 3 0 12 -3 32
-6 43 -6 22 -4 22 -141 23 -33 0 -45 5 -58 25 -9 13 -15 30 -13 38 2 7 -7 23
-20 36 -14 14 -22 34 -22 57 0 33 -2 35 -32 35 -18 -1 -49 -7 -69 -14z m81
-41 c0 -20 -7 -26 -40 -35 -98 -26 -157 -129 -131 -228 8 -28 28 -57 61 -89
78 -75 66 -118 -40 -144 -91 -21 -126 -72 -80 -114 19 -17 27 -18 95 -6 56 9
79 9 96 1 35 -19 60 -92 66 -197 4 -62 11 -100 20 -109 16 -15 60 -18 81 -5
16 10 31 71 32 129 0 32 6 49 25 67 38 39 73 33 145 -25 65 -52 93 -60 125
-36 35 25 24 70 -34 131 -29 30 -63 80 -77 110 -34 73 -25 97 52 150 48 33 60
46 62 71 6 63 -55 74 -135 25 -92 -57 -137 -34 -129 65 3 45 8 60 22 65 32 13
34 10 34 -41 0 -56 8 -61 55 -30 74 50 147 44 193 -15 45 -58 20 -133 -63
-186 -30 -19 -54 -38 -55 -42 -1 -21 46 -92 89 -136 59 -60 77 -106 61 -156
-16 -47 -66 -85 -114 -85 -45 0 -63 9 -118 60 -64 59 -74 55 -83 -37 -8 -91
-15 -107 -58 -133 -60 -37 -142 -18 -172 40 -9 18 -15 56 -15 102 0 70 -11
128 -28 156 -7 10 -22 10 -79 0 -84 -14 -125 -2 -154 46 -44 72 -9 148 81 178
30 10 61 21 68 23 9 3 1 20 -26 52 -51 64 -62 92 -62 165 0 68 23 129 66 171
33 33 102 67 137 67 22 0 27 -4 27 -25z m36 -94 c27 -56 50 -73 94 -69 l35 3
5 -76 c8 -127 51 -148 166 -84 53 30 67 34 84 25 34 -18 21 -51 -35 -87 -64
-42 -85 -68 -85 -104 0 -45 46 -127 106 -191 40 -42 52 -61 47 -75 -16 -45
-43 -43 -98 8 -54 50 -107 71 -146 57 -46 -16 -60 -41 -70 -124 -11 -82 -21
-104 -48 -104 -31 0 -41 22 -41 95 0 91 -23 170 -61 208 -28 28 -33 29 -82 22
-89 -13 -119 -11 -130 7 -17 26 14 53 79 68 76 18 104 42 104 87 0 29 -9 46
-49 88 -74 78 -85 154 -33 224 25 34 95 73 122 68 8 -1 25 -22 36 -46z"/>
<path d="M660 1043 c0 -25 15 -38 25 -22 4 6 0 18 -9 27 -15 15 -16 15 -16 -5z"/>
<path d="M807 1034 c-4 -4 -7 -18 -7 -30 0 -32 -47 -45 -66 -19 -8 10 -17 16
-20 12 -11 -11 5 -37 30 -49 32 -14 73 10 82 48 7 25 -6 50 -19 38z"/>
<path d="M809 819 c-36 -36 -6 -99 48 -99 30 0 63 33 63 63 0 53 -71 76 -111
36z m75 -15 c9 -8 16 -19 16 -24 0 -13 -30 -40 -44 -40 -31 0 -47 45 -24 68
16 16 33 15 52 -4z"/>
<path d="M864 674 c-35 -53 21 -113 80 -86 58 26 36 112 -29 112 -26 0 -39 -6
-51 -26z m74 -6 c16 -16 15 -43 -2 -57 -21 -18 -56 3 -56 34 0 32 35 46 58 23z"/>
<path d="M1683 1230 c-78 -39 -142 -109 -188 -204 -49 -102 -67 -191 -68 -326
-1 -175 32 -277 119 -370 62 -66 129 -94 224 -95 93 0 164 31 236 104 65 65
127 170 113 188 -20 23 -33 14 -69 -49 -38 -66 -106 -132 -157 -154 -88 -38
-205 0 -268 85 -116 159 -111 505 9 687 89 133 239 154 298 41 27 -51 31 -174
9 -250 -38 -130 -147 -144 -158 -20 -4 39 1 58 24 103 42 79 25 110 -29 53
-62 -67 -80 -147 -50 -216 43 -97 164 -105 249 -16 84 89 104 234 48 344 -43
84 -100 119 -204 123 -69 3 -82 0 -138 -28z"/>
<path d="M3420 1153 c-43 -16 -79 -74 -106 -170 -15 -54 -19 -138 -34 -678 -1
-35 54 -58 87 -37 7 5 16 44 20 92 l8 85 31 -45 c41 -59 116 -128 148 -136 66
-16 117 28 186 159 42 80 48 118 18 116 -7 0 -36 -39 -64 -87 -65 -110 -88
-122 -140 -71 -20 19 -44 46 -55 61 l-19 26 52 25 c104 47 154 129 124 201
-16 38 -59 66 -101 66 -33 0 -90 -24 -131 -55 l-31 -24 24 67 c58 160 90 342
65 378 -8 13 -47 34 -59 33 -4 0 -15 -3 -23 -6z m25 -136 c-8 -75 -45 -240
-52 -233 -8 8 16 273 28 304 9 25 11 25 21 9 6 -11 7 -44 3 -80z m131 -352
c37 -56 -24 -132 -126 -158 l-55 -14 -3 35 c-4 41 35 103 88 140 43 29 75 28
96 -3z"/>
<path d="M5260 783 c-25 -32 -22 -83 6 -114 17 -18 16 -22 -11 -78 -15 -33
-25 -66 -22 -75 12 -31 35 -16 58 39 13 30 27 55 31 55 16 0 134 -98 156 -130
30 -44 26 -109 -9 -146 -27 -29 -92 -33 -127 -8 -33 23 -31 87 4 119 15 14 35
25 45 25 13 0 19 7 19 21 0 20 -4 21 -45 16 -134 -15 -150 -188 -22 -236 119
-45 247 56 247 194 0 83 -30 118 -166 190 l-72 38 10 35 c15 52 -2 82 -46 82
-26 0 -40 -7 -56 -27z m57 -45 c-3 -7 -5 -2 -5 12 0 14 2 19 5 13 2 -7 2 -19
0 -25z"/>
<path d="M2283 741 c-51 -37 -78 -81 -99 -160 -49 -193 102 -373 259 -308 36
15 107 89 107 111 0 8 15 20 34 26 36 12 106 80 106 104 0 8 -8 17 -17 21 -13
4 -26 -4 -46 -29 -16 -20 -32 -36 -37 -36 -4 0 -10 34 -12 75 -7 103 -37 162
-100 193 -43 22 -48 22 -82 8 -56 -23 -78 -67 -74 -148 3 -55 9 -75 34 -110
16 -24 46 -52 67 -63 44 -24 46 -43 11 -84 -69 -83 -154 13 -154 174 0 77 23
155 56 195 26 30 26 60 1 60 -8 0 -32 -13 -54 -29z m171 -95 c21 -43 35 -186
19 -186 -18 0 -63 41 -78 70 -8 16 -15 53 -15 83 0 85 40 103 74 33z"/>
<path d="M2833 741 c-51 -37 -78 -81 -99 -160 -49 -193 102 -373 259 -308 36
15 107 89 107 111 0 8 15 20 34 26 36 12 106 80 106 104 0 8 -8 17 -17 21 -13
4 -26 -4 -46 -29 -16 -20 -32 -36 -37 -36 -4 0 -10 34 -12 75 -7 103 -37 162
-100 193 -43 22 -48 22 -82 8 -56 -23 -78 -67 -74 -148 3 -55 9 -75 34 -110
16 -24 46 -52 67 -63 44 -24 46 -43 11 -84 -69 -83 -154 13 -154 174 0 77 23
155 56 195 26 30 26 60 1 60 -8 0 -32 -13 -54 -29z m171 -95 c21 -43 35 -186
19 -186 -18 0 -63 41 -78 70 -8 16 -15 53 -15 83 0 85 40 103 74 33z"/>
<path d="M3866 744 c-13 -13 -16 -43 -16 -171 0 -86 -5 -184 -12 -220 -10 -55
-9 -66 4 -79 17 -18 69 -12 86 9 5 7 12 73 14 148 5 126 7 140 34 189 16 29
39 59 52 68 21 14 25 13 40 -2 15 -15 16 -35 13 -159 -8 -282 -9 -262 20 -265
14 -2 36 5 49 16 21 17 23 28 28 148 4 112 8 134 28 169 32 56 88 108 110 103
24 -4 25 -60 4 -236 -15 -136 -10 -168 31 -191 58 -32 102 4 178 149 39 74 48
99 39 108 -22 22 -33 12 -76 -72 -23 -46 -51 -91 -62 -101 -20 -18 -20 -17
-20 26 0 24 7 94 15 154 20 154 5 208 -60 221 -50 9 -98 -12 -144 -62 -23 -24
-43 -44 -45 -44 -2 0 -7 16 -10 35 -16 83 -106 98 -177 29 l-39 -38 0 26 c0
15 -3 33 -6 42 -8 21 -58 21 -78 0z"/>
<path d="M4755 744 c-71 -37 -120 -115 -133 -211 -16 -124 19 -222 91 -256 68
-33 125 -14 178 58 l26 35 7 -32 c8 -42 43 -78 74 -78 16 0 38 14 61 38 46 49
127 202 118 225 -11 28 -32 19 -51 -20 -35 -74 -88 -153 -102 -153 -18 0 -19
178 0 300 14 89 12 110 -9 110 -29 0 -75 -23 -81 -42 -6 -20 -6 -20 -27 0 -50
45 -100 54 -152 26z m123 -66 c44 -48 54 -124 27 -216 -27 -91 -80 -131 -134
-102 -43 23 -65 154 -41 242 25 88 100 127 148 76z"/>
</g>
</svg>
