<?xml version="1.0" encoding="utf-8"?>
<!-- Generator: Adobe Illustrator 25.4.1, SVG Export Plug-In . SVG Version: 6.00 Build 0)  -->
<svg version="1.1" id="Layer_1" xmlns="http://www.w3.org/2000/svg" xmlns:xlink="http://www.w3.org/1999/xlink" x="0px" y="0px"
	 viewBox="0 0 400 120" style="enable-background:new 0 0 400 120;" xml:space="preserve">
<style type="text/css">
	.st0{fill:none;}
	.st1{fill:#C30F16;stroke:#C30F16;stroke-miterlimit:10;}
	.st2{font-family:'Rochester-Regular';}
	.st3{font-size:100px;}
	.st4{fill:#303030;}
	.st5{fill:#FAFAFA;}
	.st6{fill:none;stroke:#303030;stroke-miterlimit:10;}
	.st7{fill:none;stroke:#BEA6A1;stroke-miterlimit:10;}
	.st8{fill:#BEA6A1;stroke:#BEA6A1;stroke-miterlimit:10;}
	.st9{fill:none;stroke:#FAFAFA;stroke-miterlimit:10;}
</style>
<rect x="92.2" y="15.9" class="st0" width="521" height="93"/>
<text transform="matrix(1 0 0 1 92.1961 88.9312)" class="st1 st2 st3">Cookmas</text>
<g>
	<g>
		<path class="st4" d="M149.3,100.5c0.1,0.1,0.2,0.2,0.3,0.4c0,0.2,0,0.3-0.1,0.4c-0.1,0.1-0.2,0.2-0.3,0.2s-0.3,0-0.4-0.1
			c-0.4-0.3-0.9-0.5-1.5-0.7c-0.5-0.2-1.1-0.3-1.7-0.3c-0.7,0-1.4,0.1-2,0.4c-0.6,0.3-1.2,0.6-1.6,1.1c-0.5,0.5-0.8,1.1-1.1,1.7
			c-0.3,0.7-0.4,1.4-0.4,2.2c0,0.8,0.1,1.6,0.4,2.2c0.3,0.7,0.6,1.2,1.1,1.7c0.5,0.5,1,0.8,1.6,1.1s1.3,0.4,2,0.4
			c0.6,0,1.1-0.1,1.7-0.3s1-0.4,1.5-0.7c0.1-0.1,0.2-0.1,0.4-0.1c0.1,0,0.2,0.1,0.3,0.2c0.1,0.1,0.1,0.3,0.1,0.4
			c0,0.2-0.1,0.3-0.2,0.3c-0.3,0.2-0.7,0.4-1.1,0.5c-0.4,0.2-0.8,0.3-1.3,0.4s-0.9,0.1-1.4,0.1c-0.9,0-1.7-0.2-2.4-0.5
			c-0.8-0.3-1.4-0.8-2-1.3c-0.6-0.6-1-1.3-1.4-2c-0.3-0.8-0.5-1.7-0.5-2.6c0-0.9,0.2-1.8,0.5-2.6s0.8-1.5,1.4-2c0.6-0.6,1.2-1,2-1.4
			c0.8-0.3,1.6-0.5,2.5-0.5c0.7,0,1.3,0.1,2,0.3C148.2,99.9,148.7,100.2,149.3,100.5z"/>
		<path class="st4" d="M156,99.6c0.1,0,0.3,0.1,0.4,0.2c0.1,0.1,0.2,0.2,0.2,0.4v11.5c0,0.2-0.1,0.3-0.2,0.4
			c-0.1,0.1-0.2,0.2-0.4,0.2c-0.2,0-0.3-0.1-0.4-0.2c-0.1-0.1-0.1-0.2-0.1-0.4v-11.5c0-0.2,0.1-0.3,0.2-0.4
			C155.7,99.7,155.8,99.6,156,99.6z M155.9,105.2h8.5l0,1.1h-8.6L155.9,105.2z M164.4,99.6c0.2,0,0.3,0.1,0.4,0.2
			c0.1,0.1,0.2,0.2,0.2,0.4v11.5c0,0.2-0.1,0.3-0.2,0.4c-0.1,0.1-0.2,0.2-0.4,0.2c-0.2,0-0.3-0.1-0.4-0.2c-0.1-0.1-0.2-0.2-0.2-0.4
			v-11.5c0-0.2,0.1-0.3,0.2-0.4C164.1,99.7,164.3,99.6,164.4,99.6z"/>
		<path class="st4" d="M172.6,112.2c-0.2,0-0.3-0.1-0.4-0.2c-0.1-0.1-0.2-0.2-0.2-0.4v-11.5c0-0.1,0.1-0.3,0.2-0.4
			c0.1-0.1,0.2-0.2,0.4-0.2h4.9c0.7,0,1.3,0.1,1.8,0.4c0.5,0.3,1,0.7,1.3,1.2c0.3,0.5,0.5,1.1,0.5,1.8c0,0.5-0.1,1-0.3,1.4
			c-0.2,0.4-0.5,0.8-0.8,1.1c-0.3,0.3-0.7,0.5-1.2,0.7l-0.6-0.2c0.4,0,0.9,0.2,1.2,0.4c0.4,0.2,0.7,0.6,0.9,1
			c0.2,0.4,0.4,0.9,0.4,1.5c0,0.5,0,0.9,0.1,1.2s0.1,0.5,0.2,0.6c0.1,0.1,0.2,0.3,0.3,0.3c0.1,0.1,0.2,0.2,0.2,0.3s0,0.3,0,0.4
			c0,0.1-0.1,0.2-0.2,0.2c-0.1,0-0.2,0.1-0.3,0.1c-0.1,0-0.2,0-0.3-0.1c-0.2-0.1-0.4-0.2-0.5-0.5s-0.3-0.5-0.4-0.9
			c-0.1-0.4-0.2-0.9-0.2-1.7c0-0.5-0.1-0.8-0.2-1.1c-0.2-0.3-0.3-0.5-0.6-0.7s-0.5-0.3-0.8-0.3c-0.3-0.1-0.5-0.1-0.8-0.1h-4.2
			l0.2-0.3v5.1c0,0.1,0,0.3-0.1,0.4C172.9,112.2,172.7,112.2,172.6,112.2z M172.9,105.8h4.5c0.4,0,0.8-0.2,1.1-0.4
			c0.4-0.2,0.6-0.5,0.9-1c0.2-0.4,0.3-0.9,0.3-1.4c0-0.7-0.2-1.3-0.7-1.7s-1.1-0.7-1.8-0.7H173l0.1-0.2v5.7L172.9,105.8z"/>
		<path class="st4" d="M188.8,111.6c0,0.2-0.1,0.3-0.2,0.4c-0.1,0.1-0.2,0.2-0.4,0.2c-0.2,0-0.3-0.1-0.4-0.2
			c-0.1-0.1-0.1-0.2-0.1-0.4v-11.5c0-0.2,0.1-0.3,0.2-0.4c0.1-0.1,0.2-0.2,0.4-0.2c0.1,0,0.3,0.1,0.4,0.2c0.1,0.1,0.2,0.2,0.2,0.4
			V111.6z"/>
		<path class="st4" d="M199.2,112.4c-0.9,0-1.7-0.1-2.4-0.4c-0.7-0.3-1.3-0.7-1.9-1.3c-0.1-0.1-0.1-0.1-0.2-0.2
			c0-0.1-0.1-0.2-0.1-0.3c0-0.1,0.1-0.3,0.2-0.4s0.2-0.2,0.4-0.2s0.3,0.1,0.4,0.2c0.5,0.5,1,0.9,1.6,1.2c0.6,0.3,1.2,0.4,1.9,0.4
			c0.6,0,1.1-0.1,1.5-0.3c0.5-0.2,0.8-0.4,1.1-0.8c0.3-0.3,0.4-0.7,0.4-1.2c0-0.6-0.2-1-0.5-1.3s-0.7-0.6-1.2-0.8
			c-0.5-0.2-1-0.4-1.6-0.6c-0.5-0.2-1-0.3-1.4-0.5c-0.5-0.2-0.8-0.4-1.2-0.7c-0.3-0.3-0.6-0.6-0.8-1c-0.2-0.4-0.3-0.9-0.3-1.4
			c0-0.6,0.2-1.2,0.5-1.7s0.8-0.9,1.4-1.2c0.6-0.3,1.3-0.4,2.2-0.4c0.7,0,1.4,0.1,2,0.4s1.2,0.6,1.6,1.1c0.2,0.2,0.3,0.4,0.3,0.5
			c0,0.1-0.1,0.3-0.2,0.4c-0.1,0.1-0.3,0.2-0.4,0.2c-0.1,0-0.2,0-0.3-0.1c-0.2-0.3-0.5-0.5-0.8-0.7c-0.3-0.2-0.7-0.4-1-0.5
			c-0.4-0.1-0.8-0.2-1.2-0.2c-0.6,0-1.1,0.1-1.5,0.3c-0.4,0.2-0.8,0.4-1.1,0.7c-0.3,0.3-0.4,0.7-0.4,1.2c0,0.5,0.1,0.9,0.4,1.2
			c0.3,0.3,0.7,0.6,1.1,0.8s1,0.4,1.5,0.6c0.5,0.1,1,0.3,1.5,0.5c0.5,0.2,0.9,0.4,1.3,0.7c0.4,0.3,0.7,0.6,0.9,1s0.3,0.9,0.3,1.6
			c0,0.6-0.2,1.2-0.5,1.7c-0.3,0.5-0.8,0.9-1.4,1.2C200.7,112.2,200,112.4,199.2,112.4z"/>
		<path class="st4" d="M210,99.6c0.1,0,0.2,0,0.3,0.1s0.2,0.1,0.2,0.2l5,7.5l-0.5,0l5-7.4c0.1-0.2,0.3-0.3,0.5-0.2
			c0.1,0,0.3,0.1,0.4,0.2c0.1,0.1,0.2,0.2,0.2,0.4v11.5c0,0.1-0.1,0.3-0.2,0.4c-0.1,0.1-0.2,0.2-0.4,0.2s-0.3-0.1-0.4-0.2
			c-0.1-0.1-0.2-0.2-0.2-0.4v-10.4l0.3,0l-4.6,6.9c0,0.1-0.1,0.1-0.2,0.2c-0.1,0-0.2,0.1-0.2,0.1s-0.2,0-0.2-0.1
			c-0.1,0-0.1-0.1-0.2-0.2l-4.6-7l0.3-0.2v10.7c0,0.1-0.1,0.3-0.2,0.4c-0.1,0.1-0.2,0.2-0.4,0.2c-0.2,0-0.3-0.1-0.4-0.2
			c-0.1-0.1-0.1-0.2-0.1-0.4v-11.5c0-0.1,0.1-0.3,0.2-0.4C209.7,99.7,209.8,99.6,210,99.6z"/>
		<path class="st4" d="M232.1,101l-4.4,10.9c0,0.1-0.1,0.2-0.2,0.3c-0.1,0.1-0.2,0.1-0.3,0.1c-0.2,0-0.3,0-0.4-0.1
			c-0.1-0.1-0.1-0.2-0.1-0.3c0-0.1,0-0.1,0-0.2l4.8-11.6c0-0.1,0.1-0.2,0.2-0.3c0.1-0.1,0.2-0.1,0.3-0.1c0.1,0,0.2,0,0.3,0.1
			c0.1,0.1,0.2,0.2,0.2,0.3l4.7,11.6c0,0.1,0,0.1,0,0.2c0,0.2-0.1,0.3-0.2,0.4s-0.2,0.1-0.4,0.1c-0.1,0-0.2,0-0.3-0.1
			c-0.1-0.1-0.2-0.2-0.2-0.3l-4.5-10.9L232.1,101z M228.8,108.6l0.5-1.1h5.6l0.2,1.1H228.8z"/>
		<path class="st4" d="M246.6,112.4c-0.9,0-1.7-0.1-2.4-0.4s-1.3-0.7-1.9-1.3c-0.1-0.1-0.1-0.1-0.2-0.2c0-0.1-0.1-0.2-0.1-0.3
			c0-0.1,0.1-0.3,0.2-0.4c0.1-0.1,0.2-0.2,0.4-0.2c0.1,0,0.3,0.1,0.4,0.2c0.5,0.5,1,0.9,1.6,1.2c0.6,0.3,1.2,0.4,1.9,0.4
			c0.6,0,1.1-0.1,1.5-0.3c0.4-0.2,0.8-0.4,1.1-0.8s0.4-0.7,0.4-1.2c0-0.6-0.2-1-0.5-1.3s-0.7-0.6-1.2-0.8c-0.5-0.2-1-0.4-1.6-0.6
			c-0.5-0.2-1-0.3-1.4-0.5s-0.8-0.4-1.2-0.7c-0.3-0.3-0.6-0.6-0.8-1c-0.2-0.4-0.3-0.9-0.3-1.4c0-0.6,0.2-1.2,0.5-1.7
			s0.8-0.9,1.4-1.2c0.6-0.3,1.3-0.4,2.2-0.4c0.7,0,1.4,0.1,2,0.4c0.7,0.2,1.2,0.6,1.6,1.1c0.2,0.2,0.3,0.4,0.3,0.5
			c0,0.1-0.1,0.3-0.2,0.4s-0.3,0.2-0.4,0.2c-0.1,0-0.2,0-0.3-0.1c-0.2-0.3-0.5-0.5-0.8-0.7c-0.3-0.2-0.7-0.4-1-0.5
			c-0.4-0.1-0.8-0.2-1.2-0.2c-0.6,0-1.1,0.1-1.5,0.3s-0.8,0.4-1.1,0.7c-0.3,0.3-0.4,0.7-0.4,1.2c0,0.5,0.1,0.9,0.4,1.2
			c0.3,0.3,0.7,0.6,1.1,0.8s1,0.4,1.5,0.6c0.5,0.1,1,0.3,1.5,0.5c0.5,0.2,0.9,0.4,1.3,0.7c0.4,0.3,0.7,0.6,0.9,1s0.3,0.9,0.3,1.6
			c0,0.6-0.2,1.2-0.5,1.7c-0.3,0.5-0.8,0.9-1.4,1.2C248.1,112.2,247.4,112.4,246.6,112.4z"/>
		<path class="st4" d="M260.3,112.4c-0.9,0-1.7-0.1-2.4-0.4s-1.3-0.7-1.9-1.3c-0.1-0.1-0.1-0.1-0.2-0.2c0-0.1-0.1-0.2-0.1-0.3
			c0-0.1,0.1-0.3,0.2-0.4c0.1-0.1,0.2-0.2,0.4-0.2c0.1,0,0.3,0.1,0.4,0.2c0.5,0.5,1,0.9,1.6,1.2c0.6,0.3,1.2,0.4,1.9,0.4
			c0.6,0,1.1-0.1,1.5-0.3c0.4-0.2,0.8-0.4,1.1-0.8s0.4-0.7,0.4-1.2c0-0.6-0.2-1-0.5-1.3s-0.7-0.6-1.2-0.8c-0.5-0.2-1-0.4-1.6-0.6
			c-0.5-0.2-1-0.3-1.4-0.5s-0.8-0.4-1.2-0.7c-0.3-0.3-0.6-0.6-0.8-1c-0.2-0.4-0.3-0.9-0.3-1.4c0-0.6,0.2-1.2,0.5-1.7
			s0.8-0.9,1.4-1.2c0.6-0.3,1.3-0.4,2.2-0.4c0.7,0,1.4,0.1,2,0.4c0.7,0.2,1.2,0.6,1.6,1.1c0.2,0.2,0.3,0.4,0.3,0.5
			c0,0.1-0.1,0.3-0.2,0.4s-0.3,0.2-0.4,0.2c-0.1,0-0.2,0-0.3-0.1c-0.2-0.3-0.5-0.5-0.8-0.7c-0.3-0.2-0.7-0.4-1-0.5
			c-0.4-0.1-0.8-0.2-1.2-0.2c-0.6,0-1.1,0.1-1.5,0.3s-0.8,0.4-1.1,0.7c-0.3,0.3-0.4,0.7-0.4,1.2c0,0.5,0.1,0.9,0.4,1.2
			c0.3,0.3,0.7,0.6,1.1,0.8s1,0.4,1.5,0.6c0.5,0.1,1,0.3,1.5,0.5c0.5,0.2,0.9,0.4,1.3,0.7c0.4,0.3,0.7,0.6,0.9,1s0.3,0.9,0.3,1.6
			c0,0.6-0.2,1.2-0.5,1.7c-0.3,0.5-0.8,0.9-1.4,1.2C261.9,112.2,261.1,112.4,260.3,112.4z"/>
		<path class="st4" d="M278.1,99.5c0.2,0,0.3,0.1,0.4,0.2c0.1,0.1,0.2,0.2,0.2,0.4c0,0.1,0,0.1,0,0.2c0,0.1,0,0.1-0.1,0.2l-4.2,5.8
			l0.2-0.7v6.1c0,0.1-0.1,0.3-0.2,0.4c-0.1,0.1-0.2,0.2-0.4,0.2c-0.2,0-0.3-0.1-0.4-0.2c-0.1-0.1-0.2-0.2-0.2-0.4v-6l0.1,0.4
			l-4.1-5.6c0-0.1-0.1-0.1-0.1-0.2c0-0.1,0-0.1,0-0.2c0-0.2,0.1-0.3,0.2-0.4c0.1-0.1,0.3-0.2,0.4-0.2c0.2,0,0.3,0.1,0.5,0.3l3.9,5.3
			l-0.3,0l3.8-5.2C277.7,99.6,277.9,99.5,278.1,99.5z"/>
		<path class="st4" d="M293.4,112.2c-0.2,0-0.3-0.1-0.4-0.2c-0.1-0.1-0.2-0.2-0.2-0.4v-11.5c0-0.1,0.1-0.3,0.2-0.4
			c0.1-0.1,0.2-0.2,0.4-0.2h4.9c0.7,0,1.3,0.1,1.8,0.4s1,0.7,1.3,1.2c0.3,0.5,0.5,1.1,0.5,1.8c0,0.5-0.1,1-0.3,1.4
			c-0.2,0.4-0.5,0.8-0.8,1.1c-0.3,0.3-0.7,0.5-1.2,0.7l-0.6-0.2c0.4,0,0.9,0.2,1.2,0.4c0.4,0.2,0.7,0.6,0.9,1
			c0.2,0.4,0.4,0.9,0.4,1.5c0,0.5,0,0.9,0.1,1.2s0.1,0.5,0.2,0.6c0.1,0.1,0.2,0.3,0.3,0.3c0.1,0.1,0.2,0.2,0.2,0.3s0,0.3,0,0.4
			c0,0.1-0.1,0.2-0.2,0.2c-0.1,0-0.2,0.1-0.3,0.1s-0.2,0-0.3-0.1c-0.2-0.1-0.4-0.2-0.5-0.5s-0.3-0.5-0.4-0.9
			c-0.1-0.4-0.2-0.9-0.2-1.7c0-0.5-0.1-0.8-0.2-1.1c-0.1-0.3-0.3-0.5-0.6-0.7c-0.2-0.2-0.5-0.3-0.8-0.3c-0.3-0.1-0.5-0.1-0.8-0.1
			h-4.2l0.2-0.3v5.1c0,0.1,0,0.3-0.1,0.4C293.6,112.2,293.5,112.2,293.4,112.2z M293.7,105.8h4.5c0.4,0,0.8-0.2,1.1-0.4
			c0.4-0.2,0.6-0.5,0.9-1c0.2-0.4,0.3-0.9,0.3-1.4c0-0.7-0.2-1.3-0.7-1.7s-1.1-0.7-1.8-0.7h-4.3l0.1-0.2v5.7L293.7,105.8z"/>
		<path class="st4" d="M308.9,99.6h6.6c0.2,0,0.3,0.1,0.4,0.2c0.1,0.1,0.2,0.2,0.2,0.4c0,0.2-0.1,0.3-0.2,0.4
			c-0.1,0.1-0.2,0.1-0.4,0.1h-6.2l0.2-0.3v5.1l-0.2-0.2h5.4c0.2,0,0.3,0.1,0.4,0.2c0.1,0.1,0.2,0.2,0.2,0.4c0,0.2-0.1,0.3-0.2,0.4
			c-0.1,0.1-0.2,0.1-0.4,0.1h-5.3l0.2-0.2v5.2l-0.1-0.1h6.1c0.2,0,0.3,0.1,0.4,0.2c0.1,0.1,0.2,0.2,0.2,0.4c0,0.2-0.1,0.3-0.2,0.4
			c-0.1,0.1-0.2,0.1-0.4,0.1h-6.6c-0.2,0-0.3-0.1-0.4-0.2c-0.1-0.1-0.2-0.2-0.2-0.4v-11.5c0-0.1,0.1-0.3,0.2-0.4
			C308.7,99.7,308.8,99.6,308.9,99.6z"/>
		<path class="st4" d="M331.4,100.5c0.1,0.1,0.2,0.2,0.3,0.4c0,0.2,0,0.3-0.1,0.4c-0.1,0.1-0.2,0.2-0.3,0.2s-0.3,0-0.4-0.1
			c-0.4-0.3-0.9-0.5-1.5-0.7c-0.5-0.2-1.1-0.3-1.7-0.3c-0.7,0-1.4,0.1-2,0.4s-1.2,0.6-1.6,1.1c-0.5,0.5-0.8,1.1-1.1,1.7
			c-0.3,0.7-0.4,1.4-0.4,2.2c0,0.8,0.1,1.6,0.4,2.2c0.3,0.7,0.6,1.2,1.1,1.7c0.5,0.5,1,0.8,1.6,1.1s1.3,0.4,2,0.4
			c0.6,0,1.1-0.1,1.7-0.3c0.5-0.2,1-0.4,1.5-0.7c0.1-0.1,0.2-0.1,0.4-0.1c0.1,0,0.2,0.1,0.3,0.2c0.1,0.1,0.1,0.3,0.1,0.4
			c0,0.2-0.1,0.3-0.2,0.3c-0.3,0.2-0.7,0.4-1.1,0.5s-0.8,0.3-1.3,0.4s-0.9,0.1-1.4,0.1c-0.9,0-1.7-0.2-2.4-0.5
			c-0.8-0.3-1.4-0.8-2-1.3c-0.6-0.6-1-1.3-1.4-2s-0.5-1.7-0.5-2.6c0-0.9,0.2-1.8,0.5-2.6s0.8-1.5,1.4-2s1.2-1,2-1.4
			c0.8-0.3,1.6-0.5,2.5-0.5c0.7,0,1.3,0.1,2,0.3C330.3,99.9,330.9,100.2,331.4,100.5z"/>
		<path class="st4" d="M338.7,111.6c0,0.2-0.1,0.3-0.2,0.4c-0.1,0.1-0.2,0.2-0.4,0.2c-0.2,0-0.3-0.1-0.4-0.2
			c-0.1-0.1-0.1-0.2-0.1-0.4v-11.5c0-0.2,0.1-0.3,0.2-0.4c0.1-0.1,0.2-0.2,0.4-0.2c0.1,0,0.3,0.1,0.4,0.2c0.1,0.1,0.2,0.2,0.2,0.4
			V111.6z"/>
		<path class="st4" d="M350.5,99.6c0.7,0,1.3,0.2,1.8,0.5c0.5,0.3,0.9,0.7,1.2,1.3s0.5,1.2,0.5,1.9c0,0.7-0.2,1.3-0.5,1.9
			c-0.3,0.6-0.7,1-1.2,1.3c-0.5,0.3-1.1,0.5-1.8,0.5h-3.8l0.1-0.2v5c0,0.1-0.1,0.3-0.2,0.4c-0.1,0.1-0.2,0.2-0.4,0.2
			c-0.2,0-0.3-0.1-0.4-0.2c-0.1-0.1-0.1-0.2-0.1-0.4v-11.5c0-0.1,0.1-0.3,0.2-0.4c0.1-0.1,0.2-0.2,0.4-0.2H350.5z M350.5,105.8
			c0.5,0,0.9-0.1,1.2-0.4c0.3-0.2,0.6-0.6,0.8-1s0.3-0.8,0.3-1.3c0-0.5-0.1-0.9-0.3-1.3s-0.5-0.7-0.8-0.9c-0.3-0.2-0.8-0.3-1.2-0.3
			h-3.8l0.1-0.1v5.4l-0.1-0.1H350.5z"/>
		<path class="st4" d="M360.6,99.6h6.6c0.2,0,0.3,0.1,0.4,0.2c0.1,0.1,0.2,0.2,0.2,0.4c0,0.2-0.1,0.3-0.2,0.4
			c-0.1,0.1-0.2,0.1-0.4,0.1H361l0.2-0.3v5.1l-0.2-0.2h5.4c0.2,0,0.3,0.1,0.4,0.2c0.1,0.1,0.2,0.2,0.2,0.4c0,0.2-0.1,0.3-0.2,0.4
			c-0.1,0.1-0.2,0.1-0.4,0.1H361l0.2-0.2v5.2l-0.1-0.1h6.1c0.2,0,0.3,0.1,0.4,0.2c0.1,0.1,0.2,0.2,0.2,0.4c0,0.2-0.1,0.3-0.2,0.4
			c-0.1,0.1-0.2,0.1-0.4,0.1h-6.6c-0.2,0-0.3-0.1-0.4-0.2c-0.1-0.1-0.2-0.2-0.2-0.4v-11.5c0-0.1,0.1-0.3,0.2-0.4
			C360.3,99.7,360.4,99.6,360.6,99.6z"/>
		<path class="st4" d="M377.3,112.4c-0.9,0-1.7-0.1-2.4-0.4s-1.3-0.7-1.9-1.3c-0.1-0.1-0.1-0.1-0.2-0.2c0-0.1-0.1-0.2-0.1-0.3
			c0-0.1,0.1-0.3,0.2-0.4c0.1-0.1,0.2-0.2,0.4-0.2c0.1,0,0.3,0.1,0.4,0.2c0.5,0.5,1,0.9,1.6,1.2c0.6,0.3,1.2,0.4,1.9,0.4
			c0.6,0,1.1-0.1,1.5-0.3c0.4-0.2,0.8-0.4,1.1-0.8s0.4-0.7,0.4-1.2c0-0.6-0.2-1-0.5-1.3s-0.7-0.6-1.2-0.8c-0.5-0.2-1-0.4-1.6-0.6
			c-0.5-0.2-1-0.3-1.4-0.5s-0.8-0.4-1.2-0.7c-0.3-0.3-0.6-0.6-0.8-1c-0.2-0.4-0.3-0.9-0.3-1.4c0-0.6,0.2-1.2,0.5-1.7
			s0.8-0.9,1.4-1.2c0.6-0.3,1.3-0.4,2.2-0.4c0.7,0,1.4,0.1,2,0.4c0.7,0.2,1.2,0.6,1.6,1.1c0.2,0.2,0.3,0.4,0.3,0.5
			c0,0.1-0.1,0.3-0.2,0.4s-0.3,0.2-0.4,0.2c-0.1,0-0.2,0-0.3-0.1c-0.2-0.3-0.5-0.5-0.8-0.7c-0.3-0.2-0.7-0.4-1-0.5
			c-0.4-0.1-0.8-0.2-1.2-0.2c-0.6,0-1.1,0.1-1.5,0.3s-0.8,0.4-1.1,0.7c-0.3,0.3-0.4,0.7-0.4,1.2c0,0.5,0.1,0.9,0.4,1.2
			c0.3,0.3,0.7,0.6,1.1,0.8s1,0.4,1.5,0.6c0.5,0.1,1,0.3,1.5,0.5c0.5,0.2,0.9,0.4,1.3,0.7c0.4,0.3,0.7,0.6,0.9,1s0.3,0.9,0.3,1.6
			c0,0.6-0.2,1.2-0.5,1.7c-0.3,0.5-0.8,0.9-1.4,1.2C378.8,112.2,378.1,112.4,377.3,112.4z"/>
	</g>
</g>
<g>
	<g id="XMLID_00000118381103978609195740000017748634117039307940_">
		<g>
			<path class="st5" d="M78.9,47c4.2,6.8,2.7,13.3-5.9,17.9c-8.6,4.6,2,12.1,5.2,15.5c3.2,3.4,8.3,10.4,0,18.4
				c-8.3,8-17.9-2.2-17.9-2.2c-7.1-10.2-5.9,4.1-5.9,4.1c-0.7,14.3-12.5,12.1-12.5,12.1c-12.7-1.2-11.5-16.9-11.5-16.9
				c1.9-13.9-5.5-11.5-7.2-10.8c-0.3,0.1-0.6,0.2-0.9,0.3C9.2,87.6,6.6,78.2,6.6,78.2c-4.2-14.5,15-16,15-16
				c-9.3-8.2-8.6-17.4-8.6-17.4c1.5-22,21.8-22.5,21.8-22.5c-1.3,3.3-1,5.4-0.2,6.7c1.4,2.3,4.4,2.5,4.4,2.5
				c-0.2,10.6,10,6.3,10,6.3c3.4,4.8,8.8,0.7,8.8,0.7l0.2,9C65.2,42.8,74.7,40.2,78.9,47z"/>
		</g>
		<g>
			<path class="st6" d="M34.8,22.3c0,0-20.3,0.5-21.8,22.5c0,0-0.7,9.2,8.6,17.4c0,0-19.1,1.4-15,16c0,0,2.6,9.4,15.7,7.1
				c0.3-0.1,0.6-0.1,0.9-0.3c1.8-0.7,9.2-3.1,7.2,10.8c0,0-1.2,15.7,11.5,16.9c0,0,11.8,2.2,12.5-12.1c0,0-1.2-14.3,5.9-4.1
				c0,0,9.6,10.2,17.9,2.2c8.3-8,3.2-15,0-18.4C75,77,64.4,69.5,73,64.9C81.6,60.3,83,53.7,78.9,47c-4.2-6.8-13.7-4.1-20.8,0.5
				l-0.2-9c0,0-5.4,4.1-8.8-0.7c0,0-10.3,4.3-10-6.3c0,0-3-0.2-4.4-2.5C33.7,27.7,33.5,25.6,34.8,22.3z"/>
		</g>
	</g>
	<g id="XMLID_00000093865934286334569460000005793768914387519129_">
		<g>
			<path class="st5" d="M77.8,46.9c4,6.7,2.6,13.1-5.7,17.6c-8.3,4.5,1.9,11.9,5,15.2c3.1,3.3,8.1,10.2,0,18.1
				c-8.1,7.8-17.4-2.1-17.4-2.1c-6.9-10-5.7,4-5.7,4c-0.7,14-12.1,11.9-12.1,11.9c-12.4-1.2-11.2-16.6-11.2-16.6
				c1.9-13.6-5.3-11.3-7-10.6c-0.3,0.1-0.6,0.2-0.8,0.3c-12.7,2.3-15.2-7-15.2-7c-4-14.3,14.5-15.7,14.5-15.7
				c-9-8.1-8.3-17.1-8.3-17.1c1.4-21.6,21.1-22.1,21.1-22.1c-1.2,3.2-1,5.3-0.2,6.6c1.4,2.2,4.2,2.4,4.2,2.4
				c-0.2,10.4,9.8,6.2,9.8,6.2c3.3,4.7,8.5,0.7,8.5,0.7l0.3,8.8C64.5,42.8,73.8,40.2,77.8,46.9z"/>
		</g>
		<g>
			<path class="st7" d="M35.1,22.7c0,0-19.7,0.5-21.1,22.1c0,0-0.7,9,8.3,17.1c0,0-18.5,1.4-14.5,15.7c0,0,2.5,9.3,15.2,7
				c0.3-0.1,0.6-0.1,0.8-0.3c1.7-0.7,8.9-3,7,10.6c0,0-1.2,15.5,11.2,16.6c0,0,11.4,2.1,12.1-11.9c0,0-1.2-14,5.7-4
				c0,0,9.3,10,17.4,2.1c8.1-7.8,3.1-14.7,0-18.1c-3.1-3.3-13.3-10.7-5-15.2c8.3-4.5,9.7-10.9,5.7-17.6s-13.3-4.1-20.2,0.5l-0.3-8.8
				c0,0-5.2,4-8.5-0.7c0,0-10,4.3-9.8-6.2c0,0-2.9-0.2-4.2-2.4C34.1,27.9,33.8,25.9,35.1,22.7z"/>
		</g>
	</g>
	<path class="st8" d="M50.5,39.5V50c0,0,0.4,8.9,9.4,4.4l5.8-3.3c0.5-0.3,1-0.5,1.6-0.6c2.4-0.4,8.4-0.8,4.5,5.3
		c-0.5,0.8-1.3,1.5-2.1,1.9c-3.3,1.8-12.3,7.6-7,15.7c4.9,7.5,5.9,8.9,7.1,9.9c0.7,0.7,3.2,3.2,3.6,3.7c3.1,3.6,0.6,10.5-7.5,4.5
		c-0.5-0.4-1.6-1.3-1.8-1.6l-3.6-3.6c0,0-9.1-7.1-12.4,4.1c-0.1,0.4-0.3,2.6-0.3,3.1l-0.3,4.9c0,1-0.1,2.4-0.5,3.3
		c-1.1,2.5-5.9,5.7-8.1-0.4c-0.4-1.1-0.7-2.5-0.8-3.3l-0.7-11.9c0,0,0.4-11-11.7-9.6l-5.3,1.2c-0.8,0.2-1.6,0.1-2.3-0.2
		c-2.2-0.9-5.8-3.1-0.4-7.1c0.7-0.5,1.4-0.8,2.2-1c2.1-0.5,6.6-1.5,7.5-2.2c1-0.7,4.8-3,2.1-8.8c-0.5-1.1-1.4-2.1-2.4-2.8
		c-2-1.3-5.7-4.6-6.4-12.3c0,0-0.4-14,13.5-14.8c0,0,0.4,2.4,4.8,3c0,0-0.1,8.6,9.7,6.2C48.8,37.9,50.1,39.2,50.5,39.5z"/>
	<path class="st9" d="M31.6,47.1c0,0,1.4,2,3.2,2.8c2.2,1,5.5,0.4,6-3.3c0.1-0.9-0.1-2.1-0.2-3.4"/>
	<ellipse transform="matrix(0.8785 -0.4778 0.4778 0.8785 -17.2065 18.9539)" class="st5" cx="28.7" cy="43.3" rx="1.5" ry="1.9"/>
	<circle class="st5" cx="44.3" cy="64.7" r="4.1"/>
	<circle class="st5" cx="49.4" cy="76.3" r="4.1"/>
</g>
</svg>
