<?xml version="1.0" standalone="no"?>
<!DOCTYPE svg PUBLIC "-//W3C//DTD SVG 20010904//EN"
 "http://www.w3.org/TR/2001/REC-SVG-20010904/DTD/svg10.dtd">
<svg version="1.0" xmlns="http://www.w3.org/2000/svg"
 width="600.000000pt" height="150.000000pt" viewBox="0 0 600.000000 150.000000"
 preserveAspectRatio="xMidYMid meet">

<g transform="translate(0.000000,150.000000) scale(0.100000,-0.100000)"
fill="#000000" stroke="none">
<path d="M640 1247 c-14 -6 -41 -24 -61 -39 -105 -80 -110 -266 -10 -366 22
-22 28 -33 19 -36 -7 -3 -37 -12 -66 -21 -62 -20 -89 -45 -98 -91 -9 -46 3
-88 32 -115 21 -20 36 -24 82 -24 31 0 73 2 92 5 30 4 36 2 48 -24 8 -16 17
-76 21 -133 6 -102 7 -106 39 -134 27 -24 41 -29 82 -29 43 0 56 5 86 33 33
30 36 37 41 110 3 43 10 80 15 83 5 3 25 -7 44 -23 19 -15 49 -38 66 -51 77
-56 198 1 198 93 0 41 -20 79 -69 130 -26 28 -58 68 -71 89 -27 44 -34 33 58
97 88 61 84 176 -8 213 -46 18 -72 15 -142 -20 -26 -13 -49 -24 -51 -24 -2 0
-4 21 -5 46 0 54 -2 57 -36 48 -25 -6 -26 -10 -26 -69 0 -102 39 -120 137 -65
61 35 93 38 118 10 29 -32 13 -64 -50 -102 -44 -26 -58 -41 -67 -70 -10 -33
-8 -43 16 -92 15 -31 47 -76 71 -101 65 -66 71 -82 48 -114 -32 -42 -60 -38
-126 19 -48 41 -65 50 -97 50 -62 0 -73 -18 -85 -135 -6 -65 -26 -95 -62 -95
-44 0 -59 29 -66 126 -7 107 -25 161 -60 188 -25 18 -32 19 -85 8 -80 -16 -96
-15 -117 8 -15 16 -17 26 -9 46 11 30 40 48 107 65 59 15 77 31 77 70 0 23
-10 40 -41 67 -46 41 -59 62 -70 109 -18 82 39 175 128 209 34 13 43 22 43 40
0 21 -5 24 -32 23 -18 0 -44 -5 -58 -12z"/>
<path d="M1775 1221 c-101 -49 -175 -141 -221 -278 -22 -64 -28 -102 -32 -208
-5 -148 5 -212 48 -302 95 -201 326 -250 493 -104 50 45 131 167 123 188 -5
12 -20 -4 -56 -59 -73 -111 -144 -159 -235 -159 -173 0 -284 165 -285 423 0
196 52 351 146 437 104 95 213 86 272 -24 21 -38 23 -203 3 -258 -37 -106
-127 -142 -166 -66 -28 53 -12 152 31 200 9 10 11 20 6 23 -18 11 -73 -58 -88
-112 -21 -70 -5 -126 45 -159 129 -87 296 98 262 289 -6 33 -20 75 -32 94 -62
101 -194 133 -314 75z"/>
<path d="M675 1174 c-16 -8 -44 -29 -61 -45 -64 -62 -50 -170 31 -245 34 -31
45 -48 45 -70 0 -47 -21 -66 -106 -93 -75 -25 -79 -27 -79 -56 0 -37 23 -42
105 -25 49 10 61 10 88 -4 52 -27 71 -78 81 -216 l6 -95 33 -3 c27 -3 34 1 42
23 6 14 10 49 10 76 0 86 35 129 103 129 28 0 48 -11 95 -50 67 -56 97 -63
114 -25 10 23 7 30 -46 84 -54 58 -106 147 -106 184 0 32 30 76 63 93 72 37
97 82 57 104 -16 9 -33 4 -90 -26 -115 -59 -160 -34 -160 91 l0 70 -46 0 c-36
0 -50 5 -65 24 -10 13 -19 32 -19 43 0 24 -23 48 -47 48 -10 0 -31 -7 -48 -16z
m-11 -139 c3 -9 0 -15 -9 -15 -8 0 -15 7 -15 15 0 8 4 15 9 15 5 0 11 -7 15
-15z m138 -35 c-4 -34 -21 -50 -51 -50 -31 0 -70 24 -58 36 4 4 13 2 19 -4 29
-29 93 6 72 40 -4 6 -1 9 7 6 8 -3 13 -16 11 -28z m78 -180 c11 -11 20 -29 20
-40 0 -26 -34 -60 -62 -60 -31 0 -58 28 -58 61 0 55 60 79 100 39z m54 -136
c23 -22 21 -81 -3 -94 -64 -34 -123 40 -78 98 13 17 62 15 81 -4z"/>
<path d="M813 813 c-7 -2 -13 -15 -13 -27 0 -47 53 -63 72 -21 18 39 -15 66
-59 48z"/>
<path d="M861 658 c-11 -29 -4 -46 20 -53 26 -8 49 11 49 40 0 39 -56 49 -69
13z"/>
<path d="M3472 1120 c-67 -63 -82 -146 -92 -515 -7 -281 -6 -311 9 -323 9 -7
25 -11 36 -10 17 3 21 15 30 90 6 47 13 89 16 92 3 4 29 -25 58 -63 28 -39 66
-80 84 -93 45 -32 98 -30 135 5 39 38 127 206 114 219 -6 6 -23 -16 -50 -65
-62 -112 -103 -140 -151 -103 -20 15 -91 106 -91 116 0 4 15 13 33 21 98 39
147 94 147 165 0 49 -30 82 -83 91 -49 8 -115 -26 -168 -85 -23 -26 -39 -38
-35 -27 103 282 135 430 106 486 -14 26 -69 25 -98 -1z m68 -60 c0 -57 -27
-196 -54 -280 l-24 -75 -1 81 c-1 117 18 285 35 312 21 32 44 12 44 -38z m114
-376 c50 -49 21 -124 -64 -166 -30 -14 -72 -29 -92 -33 l-38 -6 0 48 c0 37 7
57 30 87 58 77 128 107 164 70z"/>
<path d="M5359 790 c-28 -16 -32 -58 -9 -104 l20 -43 -25 -58 c-17 -39 -23
-61 -16 -68 7 -7 19 10 36 49 14 32 27 60 30 62 8 9 155 -111 174 -142 36 -58
20 -150 -31 -177 -11 -6 -39 -11 -61 -11 -86 1 -122 97 -58 154 17 15 38 28
46 28 8 0 15 5 15 10 0 13 -46 13 -73 -1 -61 -31 -77 -114 -32 -168 48 -56
130 -64 204 -19 40 25 81 106 81 161 0 73 -34 114 -152 177 -43 23 -80 45 -83
49 -2 5 0 23 5 41 16 57 -22 89 -71 60z m51 -39 c0 -38 -18 -49 -29 -19 -10
28 -4 48 15 48 9 0 14 -11 14 -29z"/>
<path d="M2395 748 c-40 -22 -78 -64 -101 -113 -46 -96 -24 -258 42 -317 84
-75 205 -56 265 40 21 34 43 55 71 68 54 24 107 104 69 104 -4 0 -14 -12 -21
-26 -12 -21 -56 -54 -74 -54 -2 0 -2 24 1 53 12 118 -54 237 -132 237 -20 0
-45 -5 -57 -11 -46 -25 -62 -132 -29 -204 19 -43 82 -105 106 -105 23 0 27
-17 11 -53 -26 -64 -91 -87 -134 -47 -47 44 -57 78 -57 195 0 101 2 114 27
162 15 28 32 54 38 58 12 7 14 25 3 25 -5 0 -17 -6 -28 -12z m132 -70 c28 -30
43 -89 43 -165 0 -55 -2 -63 -19 -63 -60 0 -127 136 -101 205 19 50 45 58 77
23z"/>
<path d="M2945 748 c-40 -22 -78 -64 -101 -113 -46 -96 -24 -258 42 -317 84
-75 205 -56 265 40 21 34 43 55 71 68 54 24 107 104 69 104 -4 0 -14 -12 -21
-26 -12 -21 -56 -54 -74 -54 -2 0 -2 24 1 53 12 118 -54 237 -132 237 -20 0
-45 -5 -57 -11 -46 -25 -62 -132 -29 -204 19 -43 82 -105 106 -105 23 0 27
-17 11 -53 -26 -64 -91 -87 -134 -47 -47 44 -57 78 -57 195 0 101 2 114 27
162 15 28 32 54 38 58 12 7 14 25 3 25 -5 0 -17 -6 -28 -12z m132 -70 c28 -30
43 -89 43 -165 0 -55 -2 -63 -19 -63 -60 0 -127 136 -101 205 19 50 45 58 77
23z"/>
<path d="M3958 738 c-14 -11 -17 -41 -22 -203 -3 -104 -7 -206 -8 -225 -4 -41
19 -51 57 -26 24 16 25 20 25 142 0 125 0 127 35 194 36 67 70 98 99 87 35
-14 46 -149 24 -323 -12 -104 -8 -119 35 -109 34 9 37 20 44 160 5 103 9 127
31 168 29 54 84 107 110 107 47 0 50 -33 26 -228 -8 -70 -13 -142 -9 -159 11
-58 69 -71 114 -25 39 39 124 200 116 219 -4 12 -21 -11 -58 -77 -51 -91 -78
-122 -94 -107 -9 10 -6 103 7 182 5 33 10 88 10 123 0 54 -4 67 -25 87 -14 14
-36 25 -51 25 -42 0 -109 -45 -143 -96 l-30 -46 -7 43 c-8 50 -50 99 -84 99
-37 0 -80 -30 -110 -77 l-29 -45 -3 58 c-3 50 -6 59 -23 62 -11 1 -28 -3 -37
-10z"/>
<path d="M4833 729 c-76 -37 -123 -136 -123 -258 0 -109 50 -185 130 -197 45
-6 90 21 132 82 18 25 33 41 34 37 2 -4 5 -25 9 -46 6 -40 35 -77 60 -77 8 0
30 14 49 30 42 37 133 207 118 222 -7 7 -24 -17 -52 -70 -45 -87 -71 -118 -94
-109 -29 12 -29 83 0 350 7 61 2 67 -39 46 -28 -15 -37 -28 -37 -59 0 -24 0
-24 -22 7 -24 34 -72 63 -105 63 -10 0 -37 -9 -60 -21z m113 -28 c73 -44 86
-184 28 -291 -47 -87 -106 -97 -158 -27 -18 24 -21 43 -21 125 0 115 20 166
76 194 42 22 37 22 75 -1z"/>
</g>
</svg>
