<?xml version="1.0" standalone="no"?>
<!DOCTYPE svg PUBLIC "-//W3C//DTD SVG 20010904//EN"
 "http://www.w3.org/TR/2001/REC-SVG-20010904/DTD/svg10.dtd">
<svg version="1.0" xmlns="http://www.w3.org/2000/svg"
 width="150.000000pt" height="150.000000pt" viewBox="0 0 150.000000 150.000000"
 preserveAspectRatio="xMidYMid meet">

<g transform="translate(0.000000,150.000000) scale(0.100000,-0.100000)"
fill="#000000" stroke="none">
<path d="M559 1276 c-176 -63 -236 -295 -111 -428 19 -21 22 -29 11 -32 -8 -2
-30 -9 -50 -15 -96 -30 -134 -157 -68 -227 36 -38 99 -58 145 -45 71 20 82 16
89 -31 3 -24 7 -76 9 -116 3 -78 17 -107 69 -146 37 -27 117 -27 155 0 50 38
72 81 72 145 0 33 3 59 6 59 4 0 26 -18 49 -39 77 -70 155 -74 222 -9 68 66
58 141 -32 239 -69 74 -86 107 -64 120 60 33 98 72 114 114 18 45 18 48 -1 93
-14 34 -30 53 -59 69 -49 28 -87 29 -144 3 -53 -25 -51 -25 -51 3 0 12 -3 32
-6 43 -6 22 -4 22 -141 23 -33 0 -45 5 -58 25 -9 13 -15 30 -13 38 2 7 -7 23
-20 36 -14 14 -22 34 -22 57 0 33 -2 35 -32 35 -18 -1 -49 -7 -69 -14z m81
-41 c0 -20 -7 -26 -40 -35 -98 -26 -157 -129 -131 -228 8 -28 28 -57 61 -89
78 -75 66 -118 -40 -144 -91 -21 -126 -72 -80 -114 19 -17 27 -18 95 -6 56 9
79 9 96 1 35 -19 60 -92 66 -197 4 -62 11 -100 20 -109 16 -15 60 -18 81 -5
16 10 31 71 32 129 0 32 6 49 25 67 38 39 73 33 145 -25 65 -52 93 -60 125
-36 35 25 24 70 -34 131 -29 30 -63 80 -77 110 -34 73 -25 97 52 150 48 33 60
46 62 71 6 63 -55 74 -135 25 -92 -57 -137 -34 -129 65 3 45 8 60 22 65 32 13
34 10 34 -41 0 -56 8 -61 55 -30 74 50 147 44 193 -15 45 -58 20 -133 -63
-186 -30 -19 -54 -38 -55 -42 -1 -21 46 -92 89 -136 59 -60 77 -106 61 -156
-16 -47 -66 -85 -114 -85 -45 0 -63 9 -118 60 -64 59 -74 55 -83 -37 -8 -91
-15 -107 -58 -133 -60 -37 -142 -18 -172 40 -9 18 -15 56 -15 102 0 70 -11
128 -28 156 -7 10 -22 10 -79 0 -84 -14 -125 -2 -154 46 -44 72 -9 148 81 178
30 10 61 21 68 23 9 3 1 20 -26 52 -51 64 -62 92 -62 165 0 68 23 129 66 171
33 33 102 67 137 67 22 0 27 -4 27 -25z m36 -94 c27 -56 50 -73 94 -69 l35 3
5 -76 c8 -127 51 -148 166 -84 53 30 67 34 84 25 34 -18 21 -51 -35 -87 -64
-42 -85 -68 -85 -104 0 -45 46 -127 106 -191 40 -42 52 -61 47 -75 -16 -45
-43 -43 -98 8 -54 50 -107 71 -146 57 -46 -16 -60 -41 -70 -124 -11 -82 -21
-104 -48 -104 -31 0 -41 22 -41 95 0 91 -23 170 -61 208 -28 28 -33 29 -82 22
-89 -13 -119 -11 -130 7 -17 26 14 53 79 68 76 18 104 42 104 87 0 29 -9 46
-49 88 -74 78 -85 154 -33 224 25 34 95 73 122 68 8 -1 25 -22 36 -46z"/>
<path d="M550 1043 c0 -25 15 -38 25 -22 4 6 0 18 -9 27 -15 15 -16 15 -16 -5z"/>
<path d="M697 1034 c-4 -4 -7 -18 -7 -30 0 -32 -47 -45 -66 -19 -8 10 -17 16
-20 12 -11 -11 5 -37 30 -49 32 -14 73 10 82 48 7 25 -6 50 -19 38z"/>
<path d="M699 819 c-36 -36 -6 -99 48 -99 30 0 63 33 63 63 0 53 -71 76 -111
36z m75 -15 c9 -8 16 -19 16 -24 0 -13 -30 -40 -44 -40 -31 0 -47 45 -24 68
16 16 33 15 52 -4z"/>
<path d="M754 674 c-35 -53 21 -113 80 -86 58 26 36 112 -29 112 -26 0 -39 -6
-51 -26z m74 -6 c16 -16 15 -43 -2 -57 -21 -18 -56 3 -56 34 0 32 35 46 58 23z"/>
</g>
</svg>
