<?xml version="1.0" encoding="utf-8"?>
<!-- Generator: Adobe Illustrator 25.4.1, SVG Export Plug-In . SVG Version: 6.00 Build 0)  -->
<svg version="1.1" xmlns="http://www.w3.org/2000/svg" xmlns:xlink="http://www.w3.org/1999/xlink" x="0px" y="0px"
	 viewBox="0 0 400 120" style="enable-background:new 0 0 400 120;" xml:space="preserve">
<style type="text/css">
	.st0{fill:none;}
	.st1{fill:#303030;stroke:#303030;stroke-miterlimit:10;}
	.st2{font-family:'Rochester-Regular';}
	.st3{font-size:100px;}
	.st4{fill:#303030;}
	.st5{fill:#303030;stroke:#FAFAFA;stroke-miterlimit:10;}
	.st6{fill:none;stroke:#FAFAFA;stroke-miterlimit:10;}
	.st7{fill:#FAFAFA;}
	.st8{display:none;}
	.st9{display:inline;}
</style>
<g id="Layer_1">
	<rect x="93.4" y="20.1" class="st0" width="521" height="93"/>
	<text transform="matrix(1 0 0 1 93.3617 93.0483)" class="st1 st2 st3">Cookmas</text>
	<g>
		<g id="XMLID_00000007396626004945752900000014170694929939523479_">
			<g>
				<path class="st4" d="M83.3,39.8c4,6.6,2.6,13-5.7,17.5c-8.3,4.5,1.9,11.8,5,15.1c3.1,3.3,8,10.2,0,18c-8,7.8-17.3-2.1-17.3-2.1
					c-6.9-9.9-5.7,4-5.7,4c-0.7,13.9-12.1,11.8-12.1,11.8C35.3,103,36.5,87.6,36.5,87.6c1.9-13.6-5.3-11.3-7-10.6
					c-0.3,0.1-0.5,0.2-0.8,0.3c-12.6,2.3-15.1-7-15.1-7C9.5,56.2,28,54.7,28,54.7c-9-8-8.3-17-8.3-17c1.4-21.5,21-22,21-22
					c-1.2,3.2-1,5.3-0.2,6.6c1.3,2.2,4.2,2.4,4.2,2.4c-0.2,10.4,9.7,6.1,9.7,6.1c3.3,4.7,8.5,0.7,8.5,0.7l0.2,8.8
					C70.1,35.8,79.3,33.2,83.3,39.8z"/>
			</g>
			<g>
			</g>
		</g>
		<path class="st5" d="M56.1,32.5v10.5c0,0,0.4,8.9,9.4,4.4l5.8-3.3c0.5-0.3,1-0.5,1.6-0.6c2.4-0.4,8.4-0.8,4.5,5.3
			c-0.5,0.8-1.2,1.4-2.1,1.9c-3.3,1.7-12.3,7.6-7,15.7c4.9,7.5,5.9,8.8,7.1,9.9c0.7,0.7,3.2,3.2,3.6,3.7c3.1,3.6,0.6,10.5-7.5,4.4
			c-0.5-0.4-1.6-1.3-1.8-1.6L66,79.2c0,0-9-7-12.3,4.1c-0.1,0.4-0.3,2.6-0.3,3.1l-0.3,4.9c0,1-0.1,2.4-0.5,3.3
			c-1.1,2.5-5.9,5.7-8-0.4c-0.4-1.1-0.7-2.5-0.8-3.3l-0.7-11.8c0,0,0.4-10.9-11.6-9.5l-5.2,1.2c-0.8,0.2-1.6,0.1-2.3-0.2
			c-2.1-0.9-5.8-3.1-0.4-7.1c0.7-0.5,1.4-0.8,2.2-1c2.1-0.5,6.6-1.5,7.4-2.2c1-0.7,4.8-3,2.1-8.8c-0.5-1.1-1.4-2.1-2.4-2.8
			c-2-1.2-5.7-4.6-6.4-12.2c0,0-0.4-13.9,13.5-14.8c0,0,0.4,2.4,4.8,3c0,0-0.1,8.6,9.7,6.1C54.4,30.9,55.7,32.2,56.1,32.5z"/>
		<path class="st6" d="M37.3,40c0,0,1.4,2,3.2,2.8c2.2,1,5.5,0.4,5.9-3.3c0.1-0.9-0.1-2.1-0.2-3.4"/>
		<ellipse transform="matrix(0.8785 -0.4778 0.4778 0.8785 -13.1545 20.8255)" class="st7" cx="34.4" cy="36.3" rx="1.5" ry="1.9"/>
		<circle class="st6" cx="50" cy="57.6" r="4.1"/>
		<circle class="st6" cx="55" cy="69.1" r="4.1"/>
	</g>
</g>
<g id="Layer_2" class="st8">
	<g class="st9">
		<g>
			<path class="st4" d="M134.2,97.3c0.1,0.1,0.2,0.2,0.3,0.4c0,0.2,0,0.3-0.1,0.4c-0.1,0.1-0.2,0.2-0.3,0.2s-0.3,0-0.4-0.1
				c-0.4-0.3-0.9-0.5-1.5-0.7c-0.5-0.2-1.1-0.3-1.7-0.3c-0.7,0-1.4,0.1-2,0.4c-0.6,0.3-1.2,0.6-1.6,1.1c-0.5,0.5-0.8,1.1-1.1,1.7
				c-0.3,0.7-0.4,1.4-0.4,2.2c0,0.8,0.1,1.6,0.4,2.2c0.3,0.7,0.6,1.2,1.1,1.7c0.5,0.5,1,0.8,1.6,1.1s1.3,0.4,2,0.4
				c0.6,0,1.1-0.1,1.7-0.3s1-0.4,1.5-0.7c0.1-0.1,0.2-0.1,0.4-0.1c0.1,0,0.2,0.1,0.3,0.2c0.1,0.1,0.1,0.3,0.1,0.4
				c0,0.2-0.1,0.3-0.2,0.3c-0.3,0.2-0.7,0.4-1.1,0.5c-0.4,0.2-0.8,0.3-1.3,0.4s-0.9,0.1-1.4,0.1c-0.9,0-1.7-0.2-2.4-0.5
				c-0.8-0.3-1.4-0.8-2-1.3c-0.6-0.6-1-1.3-1.4-2c-0.3-0.8-0.5-1.7-0.5-2.6c0-0.9,0.2-1.8,0.5-2.6s0.8-1.5,1.4-2
				c0.6-0.6,1.2-1,2-1.4c0.8-0.3,1.6-0.5,2.5-0.5c0.7,0,1.3,0.1,2,0.3C133.1,96.7,133.7,96.9,134.2,97.3z"/>
			<path class="st4" d="M140.9,96.3c0.1,0,0.3,0.1,0.4,0.2c0.1,0.1,0.2,0.2,0.2,0.4v11.5c0,0.2-0.1,0.3-0.2,0.4
				c-0.1,0.1-0.2,0.2-0.4,0.2c-0.2,0-0.3-0.1-0.4-0.2c-0.1-0.1-0.1-0.2-0.1-0.4V96.9c0-0.2,0.1-0.3,0.2-0.4
				C140.6,96.4,140.8,96.3,140.9,96.3z M140.8,102h8.5l0,1.1h-8.6L140.8,102z M149.4,96.3c0.2,0,0.3,0.1,0.4,0.2
				c0.1,0.1,0.2,0.2,0.2,0.4v11.5c0,0.2-0.1,0.3-0.2,0.4c-0.1,0.1-0.2,0.2-0.4,0.2c-0.2,0-0.3-0.1-0.4-0.2c-0.1-0.1-0.2-0.2-0.2-0.4
				V96.9c0-0.2,0.1-0.3,0.2-0.4C149.1,96.4,149.2,96.3,149.4,96.3z"/>
			<path class="st4" d="M157.5,108.9c-0.2,0-0.3-0.1-0.4-0.2c-0.1-0.1-0.2-0.2-0.2-0.4V96.9c0-0.1,0.1-0.3,0.2-0.4
				c0.1-0.1,0.2-0.2,0.4-0.2h4.9c0.7,0,1.3,0.1,1.8,0.4c0.5,0.3,1,0.7,1.3,1.2c0.3,0.5,0.5,1.1,0.5,1.8c0,0.5-0.1,1-0.3,1.4
				c-0.2,0.4-0.5,0.8-0.8,1.1c-0.3,0.3-0.7,0.5-1.2,0.7l-0.6-0.2c0.4,0,0.9,0.2,1.2,0.4c0.4,0.2,0.7,0.6,0.9,1
				c0.2,0.4,0.4,0.9,0.4,1.5c0,0.5,0,0.9,0.1,1.2s0.1,0.5,0.2,0.6c0.1,0.1,0.2,0.3,0.3,0.3c0.1,0.1,0.2,0.2,0.2,0.3s0,0.3,0,0.4
				c0,0.1-0.1,0.2-0.2,0.2c-0.1,0-0.2,0.1-0.3,0.1c-0.1,0-0.2,0-0.3-0.1c-0.2-0.1-0.4-0.2-0.5-0.5s-0.3-0.5-0.4-0.9
				c-0.1-0.4-0.2-0.9-0.2-1.7c0-0.5-0.1-0.8-0.2-1.1c-0.2-0.3-0.3-0.5-0.6-0.7s-0.5-0.3-0.8-0.3c-0.3-0.1-0.5-0.1-0.8-0.1h-4.2
				l0.2-0.3v5.1c0,0.1,0,0.3-0.1,0.4C157.8,108.9,157.7,108.9,157.5,108.9z M157.8,102.6h4.5c0.4,0,0.8-0.2,1.1-0.4
				c0.4-0.2,0.6-0.5,0.9-1c0.2-0.4,0.3-0.9,0.3-1.4c0-0.7-0.2-1.3-0.7-1.7s-1.1-0.7-1.8-0.7h-4.3l0.1-0.2v5.7L157.8,102.6z"/>
			<path class="st4" d="M173.7,108.4c0,0.2-0.1,0.3-0.2,0.4c-0.1,0.1-0.2,0.2-0.4,0.2c-0.2,0-0.3-0.1-0.4-0.2
				c-0.1-0.1-0.1-0.2-0.1-0.4V96.9c0-0.2,0.1-0.3,0.2-0.4c0.1-0.1,0.2-0.2,0.4-0.2c0.1,0,0.3,0.1,0.4,0.2c0.1,0.1,0.2,0.2,0.2,0.4
				V108.4z"/>
			<path class="st4" d="M184.1,109.1c-0.9,0-1.7-0.1-2.4-0.4c-0.7-0.3-1.3-0.7-1.9-1.3c-0.1-0.1-0.1-0.1-0.2-0.2
				c0-0.1-0.1-0.2-0.1-0.3c0-0.1,0.1-0.3,0.2-0.4s0.2-0.2,0.4-0.2s0.3,0.1,0.4,0.2c0.5,0.5,1,0.9,1.6,1.2c0.6,0.3,1.2,0.4,1.9,0.4
				c0.6,0,1.1-0.1,1.5-0.3c0.5-0.2,0.8-0.4,1.1-0.8c0.3-0.3,0.4-0.7,0.4-1.2c0-0.6-0.2-1-0.5-1.3c-0.3-0.3-0.7-0.6-1.2-0.8
				c-0.5-0.2-1-0.4-1.6-0.6c-0.5-0.2-1-0.3-1.4-0.5c-0.5-0.2-0.8-0.4-1.2-0.7c-0.3-0.3-0.6-0.6-0.8-1c-0.2-0.4-0.3-0.9-0.3-1.4
				c0-0.6,0.2-1.2,0.5-1.7s0.8-0.9,1.4-1.2c0.6-0.3,1.3-0.4,2.2-0.4c0.7,0,1.4,0.1,2,0.4c0.7,0.2,1.2,0.6,1.6,1.1
				c0.2,0.2,0.3,0.4,0.3,0.5c0,0.1-0.1,0.3-0.2,0.4c-0.1,0.1-0.3,0.2-0.4,0.2c-0.1,0-0.2,0-0.3-0.1c-0.2-0.3-0.5-0.5-0.8-0.7
				c-0.3-0.2-0.7-0.4-1-0.5c-0.4-0.1-0.8-0.2-1.2-0.2c-0.6,0-1.1,0.1-1.5,0.3c-0.4,0.2-0.8,0.4-1.1,0.7c-0.3,0.3-0.4,0.7-0.4,1.2
				c0,0.5,0.1,0.9,0.4,1.2c0.3,0.3,0.7,0.6,1.1,0.8s1,0.4,1.5,0.6c0.5,0.1,1,0.3,1.5,0.5c0.5,0.2,0.9,0.4,1.3,0.7
				c0.4,0.3,0.7,0.6,0.9,1s0.3,0.9,0.3,1.6c0,0.6-0.2,1.2-0.5,1.7c-0.3,0.5-0.8,0.9-1.4,1.2C185.7,109,185,109.1,184.1,109.1z"/>
			<path class="st4" d="M194.9,96.3c0.1,0,0.2,0,0.3,0.1c0.1,0,0.2,0.1,0.2,0.2l5,7.5l-0.5,0l5-7.4c0.1-0.2,0.3-0.3,0.5-0.2
				c0.1,0,0.3,0.1,0.4,0.2c0.1,0.1,0.2,0.2,0.2,0.4v11.5c0,0.1-0.1,0.3-0.2,0.4c-0.1,0.1-0.2,0.2-0.4,0.2s-0.3-0.1-0.4-0.2
				c-0.1-0.1-0.2-0.2-0.2-0.4V98l0.3,0l-4.6,6.9c0,0.1-0.1,0.1-0.2,0.2c-0.1,0-0.2,0.1-0.2,0.1s-0.2,0-0.2-0.1
				c-0.1,0-0.1-0.1-0.2-0.2l-4.6-7l0.3-0.2v10.7c0,0.1-0.1,0.3-0.2,0.4c-0.1,0.1-0.2,0.2-0.4,0.2s-0.3-0.1-0.4-0.2
				c-0.1-0.1-0.1-0.2-0.1-0.4V96.9c0-0.1,0.1-0.3,0.2-0.4C194.6,96.4,194.8,96.3,194.9,96.3z"/>
			<path class="st4" d="M217.1,97.7l-4.4,10.9c0,0.1-0.1,0.2-0.2,0.3c-0.1,0.1-0.2,0.1-0.3,0.1c-0.2,0-0.3,0-0.4-0.1
				c-0.1-0.1-0.1-0.2-0.1-0.3c0-0.1,0-0.1,0-0.2l4.8-11.6c0-0.1,0.1-0.2,0.2-0.3c0.1-0.1,0.2-0.1,0.3-0.1c0.1,0,0.2,0,0.3,0.1
				c0.1,0.1,0.2,0.2,0.2,0.3l4.7,11.6c0,0.1,0,0.1,0,0.2c0,0.2-0.1,0.3-0.2,0.4s-0.2,0.1-0.4,0.1c-0.1,0-0.2,0-0.3-0.1
				c-0.1-0.1-0.2-0.2-0.2-0.3l-4.5-10.9L217.1,97.7z M213.7,105.3l0.5-1.1h5.6l0.2,1.1H213.7z"/>
			<path class="st4" d="M231.5,109.1c-0.9,0-1.7-0.1-2.4-0.4s-1.3-0.7-1.9-1.3c-0.1-0.1-0.1-0.1-0.2-0.2c0-0.1-0.1-0.2-0.1-0.3
				c0-0.1,0.1-0.3,0.2-0.4c0.1-0.1,0.2-0.2,0.4-0.2c0.1,0,0.3,0.1,0.4,0.2c0.5,0.5,1,0.9,1.6,1.2c0.6,0.3,1.2,0.4,1.9,0.4
				c0.6,0,1.1-0.1,1.5-0.3c0.4-0.2,0.8-0.4,1.1-0.8s0.4-0.7,0.4-1.2c0-0.6-0.2-1-0.5-1.3s-0.7-0.6-1.2-0.8c-0.5-0.2-1-0.4-1.6-0.6
				c-0.5-0.2-1-0.3-1.4-0.5s-0.8-0.4-1.2-0.7c-0.3-0.3-0.6-0.6-0.8-1c-0.2-0.4-0.3-0.9-0.3-1.4c0-0.6,0.2-1.2,0.5-1.7
				s0.8-0.9,1.4-1.2c0.6-0.3,1.3-0.4,2.2-0.4c0.7,0,1.4,0.1,2,0.4c0.7,0.2,1.2,0.6,1.6,1.1c0.2,0.2,0.3,0.4,0.3,0.5
				c0,0.1-0.1,0.3-0.2,0.4s-0.3,0.2-0.4,0.2c-0.1,0-0.2,0-0.3-0.1c-0.2-0.3-0.5-0.5-0.8-0.7c-0.3-0.2-0.7-0.4-1-0.5
				c-0.4-0.1-0.8-0.2-1.2-0.2c-0.6,0-1.1,0.1-1.5,0.3s-0.8,0.4-1.1,0.7c-0.3,0.3-0.4,0.7-0.4,1.2c0,0.5,0.1,0.9,0.4,1.2
				c0.3,0.3,0.7,0.6,1.1,0.8s1,0.4,1.5,0.6c0.5,0.1,1,0.3,1.5,0.5c0.5,0.2,0.9,0.4,1.3,0.7c0.4,0.3,0.7,0.6,0.9,1s0.3,0.9,0.3,1.6
				c0,0.6-0.2,1.2-0.5,1.7c-0.3,0.5-0.8,0.9-1.4,1.2C233.1,109,232.4,109.1,231.5,109.1z"/>
			<path class="st4" d="M245.3,109.1c-0.9,0-1.7-0.1-2.4-0.4s-1.3-0.7-1.9-1.3c-0.1-0.1-0.1-0.1-0.2-0.2c0-0.1-0.1-0.2-0.1-0.3
				c0-0.1,0.1-0.3,0.2-0.4c0.1-0.1,0.2-0.2,0.4-0.2c0.1,0,0.3,0.1,0.4,0.2c0.5,0.5,1,0.9,1.6,1.2c0.6,0.3,1.2,0.4,1.9,0.4
				c0.6,0,1.1-0.1,1.5-0.3c0.4-0.2,0.8-0.4,1.1-0.8s0.4-0.7,0.4-1.2c0-0.6-0.2-1-0.5-1.3s-0.7-0.6-1.2-0.8c-0.5-0.2-1-0.4-1.6-0.6
				c-0.5-0.2-1-0.3-1.4-0.5s-0.8-0.4-1.2-0.7c-0.3-0.3-0.6-0.6-0.8-1c-0.2-0.4-0.3-0.9-0.3-1.4c0-0.6,0.2-1.2,0.5-1.7
				s0.8-0.9,1.4-1.2c0.6-0.3,1.3-0.4,2.2-0.4c0.7,0,1.4,0.1,2,0.4c0.7,0.2,1.2,0.6,1.6,1.1c0.2,0.2,0.3,0.4,0.3,0.5
				c0,0.1-0.1,0.3-0.2,0.4s-0.3,0.2-0.4,0.2c-0.1,0-0.2,0-0.3-0.1c-0.2-0.3-0.5-0.5-0.8-0.7c-0.3-0.2-0.7-0.4-1-0.5
				c-0.4-0.1-0.8-0.2-1.2-0.2c-0.6,0-1.1,0.1-1.5,0.3s-0.8,0.4-1.1,0.7c-0.3,0.3-0.4,0.7-0.4,1.2c0,0.5,0.1,0.9,0.4,1.2
				c0.3,0.3,0.7,0.6,1.1,0.8s1,0.4,1.5,0.6c0.5,0.1,1,0.3,1.5,0.5c0.5,0.2,0.9,0.4,1.3,0.7c0.4,0.3,0.7,0.6,0.9,1s0.3,0.9,0.3,1.6
				c0,0.6-0.2,1.2-0.5,1.7c-0.3,0.5-0.8,0.9-1.4,1.2C246.8,109,246.1,109.1,245.3,109.1z"/>
			<path class="st4" d="M263,96.3c0.2,0,0.3,0.1,0.4,0.2c0.1,0.1,0.2,0.2,0.2,0.4c0,0.1,0,0.1,0,0.2c0,0.1,0,0.1-0.1,0.2l-4.2,5.8
				l0.2-0.7v6.1c0,0.1-0.1,0.3-0.2,0.4c-0.1,0.1-0.2,0.2-0.4,0.2c-0.2,0-0.3-0.1-0.4-0.2c-0.1-0.1-0.2-0.2-0.2-0.4v-6l0.1,0.4
				l-4.1-5.6c0-0.1-0.1-0.1-0.1-0.2c0-0.1,0-0.1,0-0.2c0-0.2,0.1-0.3,0.2-0.4c0.1-0.1,0.3-0.2,0.4-0.2c0.2,0,0.3,0.1,0.5,0.3
				l3.9,5.3l-0.3,0l3.8-5.2C262.7,96.4,262.8,96.3,263,96.3z"/>
			<path class="st4" d="M278.3,108.9c-0.2,0-0.3-0.1-0.4-0.2c-0.1-0.1-0.2-0.2-0.2-0.4V96.9c0-0.1,0.1-0.3,0.2-0.4
				c0.1-0.1,0.2-0.2,0.4-0.2h4.9c0.7,0,1.3,0.1,1.8,0.4s1,0.7,1.3,1.2c0.3,0.5,0.5,1.1,0.5,1.8c0,0.5-0.1,1-0.3,1.4
				c-0.2,0.4-0.5,0.8-0.8,1.1c-0.3,0.3-0.7,0.5-1.2,0.7l-0.6-0.2c0.4,0,0.9,0.2,1.2,0.4c0.4,0.2,0.7,0.6,0.9,1
				c0.2,0.4,0.4,0.9,0.4,1.5c0,0.5,0,0.9,0.1,1.2s0.1,0.5,0.2,0.6c0.1,0.1,0.2,0.3,0.3,0.3c0.1,0.1,0.2,0.2,0.2,0.3s0,0.3,0,0.4
				c0,0.1-0.1,0.2-0.2,0.2c-0.1,0-0.2,0.1-0.3,0.1s-0.2,0-0.3-0.1c-0.2-0.1-0.4-0.2-0.5-0.5s-0.3-0.5-0.4-0.9
				c-0.1-0.4-0.2-0.9-0.2-1.7c0-0.5-0.1-0.8-0.2-1.1c-0.1-0.3-0.3-0.5-0.6-0.7c-0.2-0.2-0.5-0.3-0.8-0.3c-0.3-0.1-0.5-0.1-0.8-0.1
				h-4.2l0.2-0.3v5.1c0,0.1,0,0.3-0.1,0.4C278.6,108.9,278.4,108.9,278.3,108.9z M278.6,102.6h4.5c0.4,0,0.8-0.2,1.1-0.4
				c0.4-0.2,0.6-0.5,0.9-1c0.2-0.4,0.3-0.9,0.3-1.4c0-0.7-0.2-1.3-0.7-1.7s-1.1-0.7-1.8-0.7h-4.3l0.1-0.2v5.7L278.6,102.6z"/>
			<path class="st4" d="M293.9,96.3h6.6c0.2,0,0.3,0.1,0.4,0.2c0.1,0.1,0.2,0.2,0.2,0.4c0,0.2-0.1,0.3-0.2,0.4
				c-0.1,0.1-0.2,0.1-0.4,0.1h-6.2l0.2-0.3v5.1l-0.2-0.2h5.4c0.2,0,0.3,0.1,0.4,0.2c0.1,0.1,0.2,0.2,0.2,0.4c0,0.2-0.1,0.3-0.2,0.4
				c-0.1,0.1-0.2,0.1-0.4,0.1h-5.3l0.2-0.2v5.2l-0.1-0.1h6.1c0.2,0,0.3,0.1,0.4,0.2c0.1,0.1,0.2,0.2,0.2,0.4c0,0.2-0.1,0.3-0.2,0.4
				c-0.1,0.1-0.2,0.1-0.4,0.1h-6.6c-0.2,0-0.3-0.1-0.4-0.2c-0.1-0.1-0.2-0.2-0.2-0.4V96.9c0-0.1,0.1-0.3,0.2-0.4
				C293.6,96.4,293.7,96.3,293.9,96.3z"/>
			<path class="st4" d="M316.4,97.3c0.1,0.1,0.2,0.2,0.3,0.4c0,0.2,0,0.3-0.1,0.4c-0.1,0.1-0.2,0.2-0.3,0.2s-0.3,0-0.4-0.1
				c-0.4-0.3-0.9-0.5-1.5-0.7c-0.5-0.2-1.1-0.3-1.7-0.3c-0.7,0-1.4,0.1-2,0.4s-1.2,0.6-1.6,1.1c-0.5,0.5-0.8,1.1-1.1,1.7
				c-0.3,0.7-0.4,1.4-0.4,2.2c0,0.8,0.1,1.6,0.4,2.2c0.3,0.7,0.6,1.2,1.1,1.7c0.5,0.5,1,0.8,1.6,1.1s1.3,0.4,2,0.4
				c0.6,0,1.1-0.1,1.7-0.3c0.5-0.2,1-0.4,1.5-0.7c0.1-0.1,0.2-0.1,0.4-0.1c0.1,0,0.2,0.1,0.3,0.2c0.1,0.1,0.1,0.3,0.1,0.4
				c0,0.2-0.1,0.3-0.2,0.3c-0.3,0.2-0.7,0.4-1.1,0.5s-0.8,0.3-1.3,0.4s-0.9,0.1-1.4,0.1c-0.9,0-1.7-0.2-2.4-0.5
				c-0.8-0.3-1.4-0.8-2-1.3c-0.6-0.6-1-1.3-1.4-2s-0.5-1.7-0.5-2.6c0-0.9,0.2-1.8,0.5-2.6s0.8-1.5,1.4-2s1.2-1,2-1.4
				c0.8-0.3,1.6-0.5,2.5-0.5c0.7,0,1.3,0.1,2,0.3C315.3,96.7,315.8,96.9,316.4,97.3z"/>
			<path class="st4" d="M323.7,108.4c0,0.2-0.1,0.3-0.2,0.4c-0.1,0.1-0.2,0.2-0.4,0.2c-0.2,0-0.3-0.1-0.4-0.2
				c-0.1-0.1-0.1-0.2-0.1-0.4V96.9c0-0.2,0.1-0.3,0.2-0.4c0.1-0.1,0.2-0.2,0.4-0.2c0.1,0,0.3,0.1,0.4,0.2c0.1,0.1,0.2,0.2,0.2,0.4
				V108.4z"/>
			<path class="st4" d="M335.4,96.3c0.7,0,1.3,0.2,1.8,0.5c0.5,0.3,0.9,0.7,1.2,1.3s0.5,1.2,0.5,1.9c0,0.7-0.2,1.3-0.5,1.9
				c-0.3,0.6-0.7,1-1.2,1.3c-0.5,0.3-1.1,0.5-1.8,0.5h-3.8l0.1-0.2v5c0,0.1-0.1,0.3-0.2,0.4c-0.1,0.1-0.2,0.2-0.4,0.2
				c-0.2,0-0.3-0.1-0.4-0.2c-0.1-0.1-0.1-0.2-0.1-0.4V96.9c0-0.1,0.1-0.3,0.2-0.4c0.1-0.1,0.2-0.2,0.4-0.2H335.4z M335.4,102.6
				c0.5,0,0.9-0.1,1.2-0.4c0.3-0.2,0.6-0.6,0.8-1s0.3-0.8,0.3-1.3c0-0.5-0.1-0.9-0.3-1.3s-0.5-0.7-0.8-0.9c-0.3-0.2-0.8-0.3-1.2-0.3
				h-3.8l0.1-0.1v5.4l-0.1-0.1H335.4z"/>
			<path class="st4" d="M345.5,96.3h6.6c0.2,0,0.3,0.1,0.4,0.2c0.1,0.1,0.2,0.2,0.2,0.4c0,0.2-0.1,0.3-0.2,0.4
				c-0.1,0.1-0.2,0.1-0.4,0.1h-6.2l0.2-0.3v5.1l-0.2-0.2h5.4c0.2,0,0.3,0.1,0.4,0.2c0.1,0.1,0.2,0.2,0.2,0.4c0,0.2-0.1,0.3-0.2,0.4
				c-0.1,0.1-0.2,0.1-0.4,0.1h-5.3l0.2-0.2v5.2l-0.1-0.1h6.1c0.2,0,0.3,0.1,0.4,0.2c0.1,0.1,0.2,0.2,0.2,0.4c0,0.2-0.1,0.3-0.2,0.4
				c-0.1,0.1-0.2,0.1-0.4,0.1h-6.6c-0.2,0-0.3-0.1-0.4-0.2c-0.1-0.1-0.2-0.2-0.2-0.4V96.9c0-0.1,0.1-0.3,0.2-0.4
				C345.2,96.4,345.3,96.3,345.5,96.3z"/>
			<path class="st4" d="M362.2,109.1c-0.9,0-1.7-0.1-2.4-0.4s-1.3-0.7-1.9-1.3c-0.1-0.1-0.1-0.1-0.2-0.2c0-0.1-0.1-0.2-0.1-0.3
				c0-0.1,0.1-0.3,0.2-0.4c0.1-0.1,0.2-0.2,0.4-0.2c0.1,0,0.3,0.1,0.4,0.2c0.5,0.5,1,0.9,1.6,1.2c0.6,0.3,1.2,0.4,1.9,0.4
				c0.6,0,1.1-0.1,1.5-0.3c0.4-0.2,0.8-0.4,1.1-0.8s0.4-0.7,0.4-1.2c0-0.6-0.2-1-0.5-1.3s-0.7-0.6-1.2-0.8c-0.5-0.2-1-0.4-1.6-0.6
				c-0.5-0.2-1-0.3-1.4-0.5s-0.8-0.4-1.2-0.7c-0.3-0.3-0.6-0.6-0.8-1c-0.2-0.4-0.3-0.9-0.3-1.4c0-0.6,0.2-1.2,0.5-1.7
				s0.8-0.9,1.4-1.2c0.6-0.3,1.3-0.4,2.2-0.4c0.7,0,1.4,0.1,2,0.4c0.7,0.2,1.2,0.6,1.6,1.1c0.2,0.2,0.3,0.4,0.3,0.5
				c0,0.1-0.1,0.3-0.2,0.4s-0.3,0.2-0.4,0.2c-0.1,0-0.2,0-0.3-0.1c-0.2-0.3-0.5-0.5-0.8-0.7c-0.3-0.2-0.7-0.4-1-0.5
				c-0.4-0.1-0.8-0.2-1.2-0.2c-0.6,0-1.1,0.1-1.5,0.3s-0.8,0.4-1.1,0.7c-0.3,0.3-0.4,0.7-0.4,1.2c0,0.5,0.1,0.9,0.4,1.2
				c0.3,0.3,0.7,0.6,1.1,0.8s1,0.4,1.5,0.6c0.5,0.1,1,0.3,1.5,0.5c0.5,0.2,0.9,0.4,1.3,0.7c0.4,0.3,0.7,0.6,0.9,1s0.3,0.9,0.3,1.6
				c0,0.6-0.2,1.2-0.5,1.7c-0.3,0.5-0.8,0.9-1.4,1.2C363.8,109,363.1,109.1,362.2,109.1z"/>
		</g>
	</g>
</g>
</svg>
