<?xml version="1.0" encoding="utf-8"?>
<!-- Generator: Adobe Illustrator 25.4.1, SVG Export Plug-In . SVG Version: 6.00 Build 0)  -->
<svg version="1.1" id="Layer_1" xmlns="http://www.w3.org/2000/svg" xmlns:xlink="http://www.w3.org/1999/xlink" x="0px" y="0px"
	 viewBox="0 0 100 100" style="enable-background:new 0 0 100 100;" xml:space="preserve">
<style type="text/css">
	.st0{fill:#FAFAFA;}
	.st1{fill:none;stroke:#303030;stroke-miterlimit:10;}
	.st2{fill:none;stroke:#BEA6A1;stroke-miterlimit:10;}
	.st3{fill:#BEA6A1;stroke:#BEA6A1;stroke-miterlimit:10;}
	.st4{fill:none;stroke:#FAFAFA;stroke-miterlimit:10;}
</style>
<g>
	<g id="XMLID_00000118381103978609195740000017748634117039307940_">
		<g>
			<path class="st0" d="M84.5,29.4c4.2,6.8,2.7,13.3-5.9,17.9s2,12.1,5.2,15.5s8.3,10.4,0,18.4S65.9,79,65.9,79
				c-7.1-10.2-5.9,4.1-5.9,4.1c-0.7,14.3-12.5,12.1-12.5,12.1C34.8,94,36,78.3,36,78.3c1.9-13.9-5.5-11.5-7.2-10.8
				c-0.3,0.1-0.6,0.2-0.9,0.3c-13.1,2.2-15.7-7.2-15.7-7.2c-4.2-14.5,15-16,15-16c-9.3-8.2-8.6-17.4-8.6-17.4
				c1.5-22,21.8-22.5,21.8-22.5c-1.3,3.3-1,5.4-0.2,6.7c1.4,2.3,4.4,2.5,4.4,2.5c-0.2,10.6,10,6.3,10,6.3c3.4,4.8,8.8,0.7,8.8,0.7
				l0.2,9C70.8,25.2,80.3,22.6,84.5,29.4z"/>
		</g>
		<g>
			<path class="st1" d="M40.4,4.7c0,0-20.3,0.5-21.8,22.5c0,0-0.7,9.2,8.6,17.4c0,0-19.1,1.4-15,16c0,0,2.6,9.4,15.7,7.1
				c0.3-0.1,0.6-0.1,0.9-0.3c1.8-0.7,9.2-3.1,7.2,10.8c0,0-1.2,15.7,11.5,16.9c0,0,11.8,2.2,12.5-12.1c0,0-1.2-14.3,5.9-4.1
				c0,0,9.6,10.2,17.9,2.2s3.2-15,0-18.4c-3.2-3.3-13.8-10.8-5.2-15.4s10-11.2,5.9-17.9c-4.2-6.8-13.7-4.1-20.8,0.5l-0.2-9
				c0,0-5.4,4.1-8.8-0.7c0,0-10.3,4.3-10-6.3c0,0-3-0.2-4.4-2.5C39.3,10.1,39.1,8,40.4,4.7z"/>
		</g>
	</g>
	<g id="XMLID_00000093865934286334569460000005793768914387519129_">
		<g>
			<path class="st0" d="M83.4,29.3c4,6.7,2.6,13.1-5.7,17.6s1.9,11.9,5,15.2c3.1,3.3,8.1,10.2,0,18.1c-8.1,7.8-17.4-2.1-17.4-2.1
				c-6.9-10-5.7,4-5.7,4C58.9,96.1,47.5,94,47.5,94c-12.4-1.2-11.2-16.6-11.2-16.6c1.9-13.6-5.3-11.3-7-10.6
				c-0.3,0.1-0.6,0.2-0.8,0.3c-12.7,2.3-15.2-7-15.2-7c-4-14.3,14.5-15.7,14.5-15.7c-9-8.1-8.3-17.1-8.3-17.1
				C20.9,5.7,40.6,5.2,40.6,5.2c-1.2,3.2-1,5.3-0.2,6.6c1.4,2.2,4.2,2.4,4.2,2.4c-0.2,10.4,9.8,6.2,9.8,6.2c3.3,4.7,8.5,0.7,8.5,0.7
				l0.3,8.8C70.1,25.2,79.4,22.6,83.4,29.3z"/>
		</g>
		<g>
			<path class="st2" d="M40.7,5.1c0,0-19.7,0.5-21.1,22.1c0,0-0.7,9,8.3,17.1c0,0-18.5,1.4-14.5,15.7c0,0,2.5,9.3,15.2,7
				c0.3-0.1,0.6-0.1,0.8-0.3c1.7-0.7,8.9-3,7,10.6c0,0-1.2,15.5,11.2,16.6c0,0,11.4,2.1,12.1-11.9c0,0-1.2-14,5.7-4
				c0,0,9.3,10,17.4,2.1c8.1-7.8,3.1-14.7,0-18.1c-3.1-3.3-13.3-10.7-5-15.2s9.7-10.9,5.7-17.6s-13.3-4.1-20.2,0.5L63,20.9
				c0,0-5.2,4-8.5-0.7c0,0-10,4.3-9.8-6.2c0,0-2.9-0.2-4.2-2.4C39.7,10.3,39.4,8.3,40.7,5.1z"/>
		</g>
	</g>
	<path class="st3" d="M56.1,21.9v10.5c0,0,0.4,8.9,9.4,4.4l5.8-3.3c0.5-0.3,1-0.5,1.6-0.6c2.4-0.4,8.4-0.8,4.5,5.3
		c-0.5,0.8-1.3,1.5-2.1,1.9c-3.3,1.8-12.3,7.6-7,15.7c4.9,7.5,5.9,8.9,7.1,9.9c0.7,0.7,3.2,3.2,3.6,3.7c3.1,3.6,0.6,10.5-7.5,4.5
		c-0.5-0.4-1.6-1.3-1.8-1.6l-3.6-3.6c0,0-9.1-7.1-12.4,4.1c-0.1,0.4-0.3,2.6-0.3,3.1l-0.3,4.9c0,1-0.1,2.4-0.5,3.3
		c-1.1,2.5-5.9,5.7-8.1-0.4c-0.4-1.1-0.7-2.5-0.8-3.3L43,68.5c0,0,0.4-11-11.7-9.6L26,60.1c-0.8,0.2-1.6,0.1-2.3-0.2
		c-2.2-0.9-5.8-3.1-0.4-7.1c0.7-0.5,1.4-0.8,2.2-1c2.1-0.5,6.6-1.5,7.5-2.2c1-0.7,4.8-3,2.1-8.8c-0.5-1.1-1.4-2.1-2.4-2.8
		c-2-1.3-5.7-4.6-6.4-12.3c0,0-0.4-14,13.5-14.8c0,0,0.4,2.4,4.8,3c0,0-0.1,8.6,9.7,6.2C54.4,20.3,55.7,21.6,56.1,21.9z"/>
	<path class="st4" d="M37.2,29.5c0,0,1.4,2,3.2,2.8c2.2,1,5.5,0.4,6-3.3c0.1-0.9-0.1-2.1-0.2-3.4"/>
	<ellipse transform="matrix(0.8785 -0.4778 0.4778 0.8785 -8.091 19.5275)" class="st0" cx="34.3" cy="25.7" rx="1.5" ry="1.9"/>
	<circle class="st0" cx="49.9" cy="47.1" r="4.1"/>
	<circle class="st0" cx="55" cy="58.7" r="4.1"/>
</g>
</svg>
