<?xml version="1.0" standalone="no"?>
<!DOCTYPE svg PUBLIC "-//W3C//DTD SVG 20010904//EN"
 "http://www.w3.org/TR/2001/REC-SVG-20010904/DTD/svg10.dtd">
<svg version="1.0" xmlns="http://www.w3.org/2000/svg"
 width="600.000000pt" height="150.000000pt" viewBox="0 0 600.000000 150.000000"
 preserveAspectRatio="xMidYMid meet">

<g transform="translate(0.000000,150.000000) scale(0.100000,-0.100000)"
fill="#000000" stroke="none">
<path d="M669 1276 c-176 -63 -236 -295 -111 -428 19 -21 22 -29 11 -32 -8 -2
-30 -9 -50 -15 -96 -30 -134 -157 -68 -227 36 -38 99 -58 145 -45 71 20 82 16
89 -31 3 -24 7 -76 9 -116 3 -78 17 -107 69 -146 37 -27 117 -27 155 0 50 38
72 81 72 145 0 33 3 59 6 59 4 0 26 -18 49 -39 77 -70 155 -74 222 -9 68 66
58 141 -32 239 -69 74 -86 107 -64 120 60 33 98 72 114 114 18 45 18 48 -1 93
-14 34 -30 53 -59 69 -49 28 -87 29 -144 3 -53 -25 -51 -25 -51 3 0 12 -3 32
-6 43 -6 22 -4 22 -141 23 -33 0 -45 5 -58 25 -9 13 -15 30 -13 38 2 7 -7 23
-20 36 -14 14 -22 34 -22 57 0 33 -2 35 -32 35 -18 -1 -49 -7 -69 -14z m81
-41 c0 -20 -7 -26 -40 -35 -98 -26 -157 -129 -131 -228 8 -28 28 -57 61 -89
78 -75 66 -118 -40 -144 -91 -21 -126 -72 -80 -114 19 -17 27 -18 95 -6 56 9
79 9 96 1 35 -19 60 -92 66 -197 4 -62 11 -100 20 -109 16 -15 60 -18 81 -5
16 10 31 71 32 129 0 32 6 49 25 67 38 39 73 33 145 -25 65 -52 93 -60 125
-36 35 25 24 70 -34 131 -29 30 -63 80 -77 110 -34 73 -25 97 52 150 48 33 60
46 62 71 6 63 -55 74 -135 25 -92 -57 -137 -34 -129 65 3 45 8 60 22 65 32 13
34 10 34 -41 0 -56 8 -61 55 -30 74 50 147 44 193 -15 45 -58 20 -133 -63
-186 -30 -19 -54 -38 -55 -42 -1 -21 46 -92 89 -136 59 -60 77 -106 61 -156
-16 -47 -66 -85 -114 -85 -45 0 -63 9 -118 60 -64 59 -74 55 -83 -37 -8 -91
-15 -107 -58 -133 -60 -37 -142 -18 -172 40 -9 18 -15 56 -15 102 0 70 -11
128 -28 156 -7 10 -22 10 -79 0 -84 -14 -125 -2 -154 46 -44 72 -9 148 81 178
30 10 61 21 68 23 9 3 1 20 -26 52 -51 64 -62 92 -62 165 0 68 23 129 66 171
33 33 102 67 137 67 22 0 27 -4 27 -25z m36 -94 c27 -56 50 -73 94 -69 l35 3
5 -76 c8 -127 51 -148 166 -84 53 30 67 34 84 25 34 -18 21 -51 -35 -87 -64
-42 -85 -68 -85 -104 0 -45 46 -127 106 -191 40 -42 52 -61 47 -75 -16 -45
-43 -43 -98 8 -54 50 -107 71 -146 57 -46 -16 -60 -41 -70 -124 -11 -82 -21
-104 -48 -104 -31 0 -41 22 -41 95 0 91 -23 170 -61 208 -28 28 -33 29 -82 22
-89 -13 -119 -11 -130 7 -17 26 14 53 79 68 76 18 104 42 104 87 0 29 -9 46
-49 88 -74 78 -85 154 -33 224 25 34 95 73 122 68 8 -1 25 -22 36 -46z"/>
<path d="M660 1043 c0 -25 15 -38 25 -22 4 6 0 18 -9 27 -15 15 -16 15 -16 -5z"/>
<path d="M807 1034 c-4 -4 -7 -18 -7 -30 0 -32 -47 -45 -66 -19 -8 10 -17 16
-20 12 -11 -11 5 -37 30 -49 32 -14 73 10 82 48 7 25 -6 50 -19 38z"/>
<path d="M809 819 c-36 -36 -6 -99 48 -99 30 0 63 33 63 63 0 53 -71 76 -111
36z m75 -15 c9 -8 16 -19 16 -24 0 -13 -30 -40 -44 -40 -31 0 -47 45 -24 68
16 16 33 15 52 -4z"/>
<path d="M864 674 c-35 -53 21 -113 80 -86 58 26 36 112 -29 112 -26 0 -39 -6
-51 -26z m74 -6 c16 -16 15 -43 -2 -57 -21 -18 -56 3 -56 34 0 32 35 46 58 23z"/>
<path d="M1730 1271 c-197 -64 -321 -286 -322 -574 0 -228 72 -376 220 -449
138 -68 288 -35 404 90 29 32 68 86 86 120 l33 61 -21 21 c-31 31 -46 25 -86
-37 -77 -122 -146 -173 -236 -173 -140 1 -235 135 -245 350 -11 224 44 392
155 477 36 27 52 33 94 33 41 0 54 -5 78 -28 37 -38 54 -101 47 -183 -11 -137
-77 -221 -121 -157 -25 36 -20 95 14 154 29 52 29 53 11 75 -16 21 -22 22 -45
11 -31 -14 -82 -91 -97 -147 -16 -57 2 -121 45 -162 91 -85 224 -40 295 100
30 59 35 76 35 145 0 120 -47 207 -139 254 -43 23 -161 34 -205 19z m190 -41
c147 -75 174 -302 51 -433 -36 -40 -73 -57 -121 -57 -79 0 -130 52 -130 134 0
43 32 115 65 146 37 35 49 15 20 -34 -34 -59 -41 -121 -18 -166 37 -71 101
-61 145 23 18 34 23 63 26 147 3 94 1 110 -20 150 -62 121 -215 101 -310 -40
-49 -73 -76 -160 -90 -286 -25 -232 42 -423 174 -488 122 -61 252 -6 344 145
35 58 47 68 58 50 9 -15 -43 -99 -100 -160 -73 -79 -139 -113 -229 -119 -63
-4 -80 -1 -134 23 -152 68 -233 247 -218 480 14 201 95 377 209 452 96 64 195
75 278 33z"/>
<path d="M3383 1155 c-34 -24 -62 -77 -84 -161 -18 -68 -22 -122 -29 -394 l-9
-315 25 -22 c49 -44 113 -19 115 45 1 74 10 77 58 21 52 -61 117 -94 166 -85
45 9 100 71 153 173 47 90 51 117 23 133 -37 19 -50 11 -82 -52 -45 -90 -77
-130 -101 -126 -11 2 -36 22 -55 45 l-35 42 44 21 c85 43 128 100 128 170 0
81 -45 125 -129 125 -25 0 -61 -8 -80 -17 -33 -18 -33 -17 -27 5 90 302 86
407 -18 407 -23 0 -51 -7 -63 -15z m99 -22 c27 -31 30 -61 13 -150 -14 -74
-70 -257 -100 -327 -5 -11 9 -2 31 20 73 73 164 96 217 54 28 -22 43 -74 32
-110 -12 -39 -72 -95 -127 -120 -29 -13 -55 -25 -57 -27 -7 -5 74 -104 97
-119 38 -25 69 -10 111 55 21 33 44 73 51 90 12 29 29 39 43 25 11 -11 -81
-179 -119 -218 -66 -68 -139 -40 -235 90 -22 30 -44 54 -49 54 -6 0 -10 -30
-10 -67 0 -96 -6 -113 -40 -113 -49 0 -60 21 -55 108 3 42 7 169 10 282 6 284
33 411 97 465 35 29 69 32 90 8z"/>
<path d="M3410 1069 c-10 -35 -30 -265 -29 -324 0 -11 9 4 20 34 45 129 67
331 34 331 -8 0 -19 -17 -25 -41z"/>
<path d="M3490 682 c-53 -28 -110 -109 -110 -154 0 -34 3 -38 25 -38 43 0 133
40 160 71 33 40 35 101 3 123 -29 20 -36 20 -78 -2z m73 -33 c20 -31 -11 -79
-67 -105 -67 -31 -86 -31 -86 1 0 36 90 128 120 123 13 -2 28 -10 33 -19z"/>
<path d="M5263 815 c-13 -9 -28 -33 -34 -55 -10 -33 -9 -44 8 -78 l19 -40 -23
-53 c-28 -63 -27 -90 5 -104 15 -7 20 -15 15 -25 -4 -8 -8 -37 -10 -65 -5 -66
21 -109 84 -137 91 -40 201 -1 251 89 25 45 38 126 28 167 -11 43 -75 105
-152 147 l-72 40 1 43 c3 75 -61 112 -120 71z m82 -22 c13 -13 16 -27 11 -63
l-6 -47 42 -19 c77 -34 156 -92 174 -125 33 -65 11 -171 -48 -226 -74 -69
-204 -53 -244 31 -35 73 16 156 97 156 48 0 50 -12 4 -29 -58 -21 -84 -96 -47
-141 24 -30 93 -38 128 -16 34 23 57 80 49 122 -3 19 -18 48 -33 65 -27 33
-138 119 -152 119 -4 0 -19 -27 -34 -61 -22 -50 -29 -59 -40 -49 -12 9 -10 21
15 77 l29 65 -20 25 c-27 35 -26 78 5 108 28 29 47 31 70 8z m24 -235 l36 -23
-35 -6 c-19 -3 -45 -9 -58 -13 l-22 -7 17 35 c9 20 19 36 21 36 3 0 21 -10 41
-22z m111 -139 c0 -32 -16 -69 -34 -81 -19 -13 -83 -9 -95 6 -7 8 -11 30 -9
48 3 28 10 36 46 53 29 13 42 26 42 40 1 18 3 17 25 -8 15 -17 25 -40 25 -58z"/>
<path d="M5302 748 c2 -13 8 -23 13 -23 6 0 11 10 13 23 2 15 -2 22 -13 22
-11 0 -15 -7 -13 -22z"/>
<path d="M2305 778 c-11 -6 -39 -29 -63 -51 -142 -138 -94 -431 79 -477 89
-24 171 9 224 92 17 25 39 49 51 52 30 8 73 45 95 80 l19 31 0 -32 c0 -94 77
-201 161 -223 89 -24 171 9 224 92 17 25 40 49 52 52 33 9 89 61 103 96 11 26
10 33 -5 50 -25 27 -50 25 -73 -6 l-19 -27 -7 58 c-8 73 -34 131 -74 169 -25
24 -43 30 -89 34 -32 2 -64 9 -70 14 -38 31 -150 -61 -183 -148 -11 -30 -20
-67 -20 -81 0 -25 -1 -25 -18 -10 -26 24 -47 21 -70 -9 l-19 -27 -7 58 c-8 73
-34 131 -75 169 -25 24 -42 30 -91 34 -33 2 -63 8 -66 13 -7 12 -35 11 -59 -3z
m48 -24 c3 -4 -7 -23 -23 -43 -64 -81 -78 -239 -29 -338 45 -90 116 -95 158
-10 l21 42 -22 8 c-41 15 -88 58 -110 100 -29 58 -30 146 -2 184 44 60 109 66
159 15 44 -44 58 -82 63 -169 3 -46 9 -83 15 -83 5 0 25 16 43 36 31 32 54 38
54 14 0 -20 -63 -80 -96 -92 -18 -6 -37 -20 -40 -31 -9 -27 -63 -86 -95 -103
-15 -7 -46 -14 -69 -14 -161 0 -250 203 -165 377 34 69 114 131 138 107z m550
0 c3 -4 -7 -23 -23 -43 -64 -81 -78 -239 -29 -338 45 -90 116 -95 158 -10 l21
42 -22 8 c-41 15 -88 58 -110 100 -29 58 -30 146 -2 184 44 60 109 66 159 15
44 -44 58 -82 63 -169 3 -46 9 -83 15 -83 5 0 25 16 43 36 31 32 54 38 54 14
0 -20 -63 -80 -96 -92 -18 -6 -37 -20 -40 -31 -9 -27 -63 -86 -95 -103 -15 -7
-46 -14 -69 -14 -161 0 -250 203 -165 377 34 69 114 131 138 107z m-507 -336
c24 -17 44 -34 44 -37 0 -19 -34 -51 -54 -51 -46 0 -86 77 -86 167 l0 57 26
-52 c16 -33 42 -64 70 -84z m550 0 c24 -17 44 -34 44 -37 0 -19 -34 -51 -54
-51 -46 0 -86 77 -86 167 l0 57 26 -52 c16 -33 42 -64 70 -84z"/>
<path d="M2390 680 c-43 -43 -15 -164 50 -210 45 -32 54 -19 46 66 -10 126
-52 188 -96 144z m60 -69 c5 -20 10 -56 10 -81 l0 -45 -26 26 c-31 32 -48 97
-34 135 9 21 13 24 25 14 8 -7 19 -29 25 -49z"/>
<path d="M2940 680 c-43 -43 -15 -164 50 -210 45 -32 54 -19 46 66 -10 126
-52 188 -96 144z m60 -69 c5 -20 10 -56 10 -81 l0 -45 -26 26 c-31 32 -48 97
-34 135 9 21 13 24 25 14 8 -7 19 -29 25 -49z"/>
<path d="M3880 773 c-47 -18 -50 -28 -50 -198 0 -89 -5 -187 -11 -218 -5 -32
-7 -67 -4 -77 14 -44 81 -49 124 -9 19 18 21 30 21 145 0 113 2 130 25 178 14
29 34 61 45 71 19 17 20 17 27 -1 11 -25 10 -186 -1 -306 -8 -92 -7 -97 13
-107 31 -17 89 -3 107 25 11 16 17 60 21 146 6 133 17 168 71 226 58 62 60 54
36 -163 -15 -137 -15 -153 -1 -188 30 -70 113 -75 168 -9 17 20 53 80 80 132
l49 95 0 -50 c0 -73 17 -121 57 -166 64 -70 155 -74 218 -9 l28 30 19 -30 c38
-63 99 -64 155 -2 38 42 123 201 123 231 0 22 -34 46 -54 38 -7 -3 -35 -44
-62 -91 -60 -108 -69 -99 -54 61 25 272 26 241 -4 249 -17 4 -40 -1 -67 -14
l-41 -21 -39 21 c-104 54 -235 -38 -270 -188 -12 -51 -12 -51 -31 -32 -11 11
-27 18 -36 16 -10 -2 -37 -41 -62 -88 -51 -95 -59 -89 -41 30 6 38 11 100 11
139 0 60 -3 74 -26 100 -48 57 -145 48 -209 -19 l-29 -30 -13 30 c-24 59 -118
75 -176 30 l-25 -20 -16 25 c-16 24 -42 30 -76 18z m60 -80 l0 -58 19 30 c69
113 189 111 207 -4 l6 -40 32 42 c42 55 91 87 133 87 88 0 102 -41 77 -239
-25 -209 -9 -230 67 -90 61 111 65 116 79 102 9 -8 1 -32 -36 -99 -64 -118
-97 -154 -139 -154 -67 0 -78 57 -50 260 8 58 15 115 15 127 0 22 -24 53 -40
53 -19 0 -83 -66 -111 -114 -27 -48 -29 -58 -29 -161 0 -134 -10 -160 -60
-160 -33 0 -35 2 -33 30 2 17 6 103 9 192 6 139 4 166 -9 187 -29 43 -67 19
-110 -69 -21 -43 -26 -70 -31 -185 -7 -147 -14 -164 -66 -158 -23 3 -25 7 -22
48 1 25 4 128 6 228 3 198 4 202 59 202 26 0 27 -1 27 -57z m960 17 c38 -38
40 -39 40 -16 0 14 10 32 22 40 23 16 68 22 68 9 0 -5 -7 -53 -15 -108 -17
-114 -19 -263 -5 -285 16 -25 41 0 87 86 24 43 44 83 46 88 2 5 11 7 21 3 15
-6 12 -17 -30 -98 -78 -151 -136 -193 -183 -133 -12 15 -21 34 -21 43 -1 40
-17 42 -43 4 -49 -72 -119 -92 -181 -53 -159 98 -72 460 110 460 38 0 50 -6
84 -40z"/>
<path d="M4771 684 c-81 -68 -78 -298 4 -336 58 -26 115 27 141 135 22 86 13
146 -28 192 -37 43 -74 46 -117 9z m110 -44 c50 -93 -7 -279 -83 -268 -71 10
-81 224 -13 291 29 29 74 18 96 -23z"/>
</g>
</svg>
