<?xml version="1.0" encoding="utf-8"?>
<!-- Generator: Adobe Illustrator 25.4.1, SVG Export Plug-In . SVG Version: 6.00 Build 0)  -->
<svg version="1.1" id="Layer_1" xmlns="http://www.w3.org/2000/svg" xmlns:xlink="http://www.w3.org/1999/xlink" x="0px" y="0px"
	 viewBox="0 0 400 120" style="enable-background:new 0 0 400 120;" xml:space="preserve">
<style type="text/css">
	.st0{fill:none;}
	.st1{enable-background:new    ;}
	.st2{fill:#C30F16;}
	.st3{fill:none;stroke:#C30F16;stroke-miterlimit:10;}
	.st4{fill:#303030;}
	.st5{fill:#FAFAFA;}
	.st6{fill:none;stroke:#303030;stroke-miterlimit:10;}
	.st7{fill:none;stroke:#BEA6A1;stroke-miterlimit:10;}
	.st8{fill:#BEA6A1;stroke:#BEA6A1;stroke-miterlimit:10;}
	.st9{fill:none;stroke:#FAFAFA;stroke-miterlimit:10;}
</style>
<rect x="92.2" y="15.9" class="st0" width="521" height="93"/>
<g class="st1">
	<path class="st2" d="M99.7,51.8c0,5.9,0.7,11,2,15.3c1.3,4.4,3.1,8,5.3,10.9c2.2,2.9,4.7,5.1,7.5,6.5c2.8,1.4,5.7,2.2,8.7,2.2
		c2.1,0,4.2-0.4,6.3-1.2c2.1-0.8,4.1-2,6-3.5s3.8-3.5,5.6-5.9s3.5-5.1,5.1-8.3l0.5-1l2,1.5l-0.5,1c-1.8,3.6-3.8,6.8-5.9,9.5
		c-2.2,2.7-4.5,5-6.9,6.9c-2.4,1.8-5,3.2-7.6,4.2c-2.6,0.9-5.3,1.4-8,1.4c-2.3,0-4.7-0.3-7-1c-2.3-0.7-4.5-1.7-6.5-3
		c-2.1-1.4-4-3.1-5.8-5.1c-1.8-2.1-3.3-4.5-4.6-7.2c-1.3-2.8-2.3-5.9-3.1-9.3s-1.1-7.3-1.1-11.4c0-5.5,0.5-10.5,1.4-15
		c0.9-4.5,2.2-8.5,3.8-12c1.6-3.5,3.4-6.5,5.5-9.1c2.1-2.6,4.3-4.7,6.6-6.4c2.3-1.7,4.7-2.9,7.1-3.7c2.4-0.8,4.7-1.2,6.9-1.2
		c2.9,0,5.6,0.5,8,1.5c2.4,1,4.5,2.4,6.3,4.2s3.1,4,4.1,6.6c1,2.6,1.5,5.5,1.5,8.6c0,3-0.5,5.9-1.4,8.5c-0.9,2.7-2.2,5-3.7,7
		c-1.5,2-3.3,3.6-5.3,4.8s-4.1,1.8-6.3,1.8c-1.5,0-2.8-0.3-4.1-0.8c-1.3-0.5-2.4-1.3-3.3-2.2c-0.9-0.9-1.7-2.1-2.2-3.5
		c-0.6-1.4-0.8-2.9-0.8-4.5c0-1.6,0.2-3.1,0.7-4.6c0.5-1.5,1.1-2.8,1.9-4.1c0.7-1.3,1.6-2.4,2.5-3.3c0.9-1,1.8-1.7,2.6-2.3l1.3,1.3
		c-0.7,0.8-1.3,1.6-1.9,2.5c-0.6,0.9-1.1,1.9-1.6,2.9c-0.5,1-0.8,2.1-1.1,3.3c-0.3,1.2-0.4,2.4-0.4,3.8c0,1.4,0.2,2.7,0.5,3.8
		c0.3,1.1,0.8,2.1,1.4,2.8c0.6,0.8,1.3,1.4,2.1,1.8c0.8,0.4,1.6,0.6,2.5,0.6c1.2,0,2.4-0.4,3.6-1.3c1.2-0.9,2.3-2.2,3.2-4
		c0.9-1.7,1.7-3.9,2.3-6.4s0.9-5.5,0.9-8.8c0-3-0.3-5.6-1-7.8c-0.7-2.2-1.6-4-2.8-5.4c-1.2-1.4-2.6-2.5-4.2-3.2
		c-1.6-0.7-3.3-1-5.1-1c-1.3,0-2.8,0.3-4.4,0.9c-1.7,0.6-3.4,1.5-5.1,2.8c-1.7,1.3-3.4,3-5.1,5.2c-1.7,2.1-3.1,4.8-4.5,7.9
		c-1.3,3.1-2.4,6.8-3.2,11.1C100.1,41.5,99.7,46.3,99.7,51.8z"/>
	<path class="st2" d="M187.6,68.4l-0.5,1c-1.1,2.2-2.6,4-4.4,5.3c-1.8,1.3-3.8,2.2-6,2.6c-0.6,1.7-1.3,3.2-2.3,4.6s-2,2.6-3.2,3.7
		c-1.2,1-2.5,1.9-4,2.4c-1.5,0.6-3.1,0.9-4.8,0.9c-2.5,0-4.8-0.5-6.8-1.6c-2-1.1-3.7-2.5-5.1-4.3c-1.4-1.8-2.5-3.9-3.2-6.3
		c-0.7-2.4-1.1-5-1.1-7.8c0-2.4,0.3-4.6,0.8-6.6c0.6-2,1.3-3.7,2.1-5.3c0.8-1.5,1.8-2.9,2.8-4.1c1-1.2,2.1-2.1,3.1-2.9
		c1-0.7,1.9-1.3,2.8-1.7c0.8-0.4,1.5-0.6,1.9-0.6l0.6,1.7c-1.3,1-2.5,2.3-3.6,4.1c-0.9,1.5-1.7,3.5-2.5,6c-0.7,2.5-1.1,5.6-1.1,9.2
		c0,2.2,0.2,4.4,0.6,6.5c0.4,2.1,1,4,1.9,5.6c0.8,1.6,1.8,2.9,3,3.9c1.2,1,2.5,1.5,4,1.5c2.1,0,3.8-0.8,5.1-2.5
		c1.4-1.6,2.4-3.9,3-6.8c-1.7-0.4-3.3-1-4.8-2c-1.5-1-2.9-2.2-4.1-3.6c-1.2-1.4-2.1-3.1-2.8-5c-0.7-1.9-1-3.9-1-6.2
		c0-1.8,0.2-3.4,0.7-4.8c0.5-1.4,1.1-2.5,1.9-3.5s1.7-1.6,2.7-2.1c1-0.5,2.1-0.7,3.2-0.7c1.3,0,2.7,0.4,4.1,1.1
		c1.4,0.8,2.7,1.9,3.8,3.4c1.1,1.5,2.1,3.4,2.8,5.7c0.7,2.3,1.1,4.9,1.1,8c0,1.1-0.1,2.3-0.2,3.4c-0.1,1.1-0.3,2.2-0.6,3.2
		c1.6-0.5,3-1.2,4.3-2.2c1.3-1,2.4-2.3,3.2-4l0.5-1L187.6,68.4z M161.3,60c0,1.9,0.3,3.7,0.8,5.3s1.3,3,2.2,4.2
		c0.9,1.2,2,2.2,3.2,3.1c1.2,0.8,2.5,1.4,3.9,1.7c0.2-0.9,0.3-1.9,0.3-2.9c0-1,0.1-2,0.1-3.1c0-2.3-0.2-4.4-0.5-6.3
		c-0.4-1.9-0.8-3.5-1.4-4.8s-1.3-2.3-2.1-3.1c-0.8-0.7-1.6-1.1-2.4-1.1c-1.1,0-2.1,0.6-2.8,1.8C161.7,56.2,161.3,57.9,161.3,60z"/>
	<path class="st2" d="M226.5,68.4l-0.5,1c-1.1,2.2-2.6,4-4.4,5.3c-1.8,1.3-3.8,2.2-6,2.6c-0.6,1.7-1.3,3.2-2.3,4.6s-2,2.6-3.2,3.7
		c-1.2,1-2.5,1.9-4,2.4c-1.5,0.6-3.1,0.9-4.8,0.9c-2.5,0-4.8-0.5-6.8-1.6c-2-1.1-3.7-2.5-5.1-4.3c-1.4-1.8-2.5-3.9-3.2-6.3
		c-0.7-2.4-1.1-5-1.1-7.8c0-2.4,0.3-4.6,0.8-6.6c0.6-2,1.3-3.7,2.1-5.3c0.8-1.5,1.8-2.9,2.8-4.1c1-1.2,2.1-2.1,3.1-2.9
		c1-0.7,1.9-1.3,2.8-1.7c0.8-0.4,1.5-0.6,1.9-0.6l0.6,1.7c-1.3,1-2.5,2.3-3.6,4.1c-0.9,1.5-1.7,3.5-2.5,6c-0.7,2.5-1.1,5.6-1.1,9.2
		c0,2.2,0.2,4.4,0.6,6.5c0.4,2.1,1,4,1.9,5.6c0.8,1.6,1.8,2.9,3,3.9c1.2,1,2.5,1.5,4,1.5c2.1,0,3.8-0.8,5.1-2.5
		c1.4-1.6,2.4-3.9,3-6.8c-1.7-0.4-3.3-1-4.8-2c-1.5-1-2.9-2.2-4.1-3.6c-1.2-1.4-2.1-3.1-2.8-5c-0.7-1.9-1-3.9-1-6.2
		c0-1.8,0.2-3.4,0.7-4.8c0.5-1.4,1.1-2.5,1.9-3.5s1.7-1.6,2.7-2.1c1-0.5,2.1-0.7,3.2-0.7c1.3,0,2.7,0.4,4.1,1.1
		c1.4,0.8,2.7,1.9,3.8,3.4c1.1,1.5,2.1,3.4,2.8,5.7c0.7,2.3,1.1,4.9,1.1,8c0,1.1-0.1,2.3-0.2,3.4c-0.1,1.1-0.3,2.2-0.6,3.2
		c1.6-0.5,3-1.2,4.3-2.2c1.3-1,2.4-2.3,3.2-4l0.5-1L226.5,68.4z M200.2,60c0,1.9,0.3,3.7,0.8,5.3s1.3,3,2.2,4.2
		c0.9,1.2,2,2.2,3.2,3.1c1.2,0.8,2.5,1.4,3.9,1.7c0.2-0.9,0.3-1.9,0.3-2.9c0-1,0.1-2,0.1-3.1c0-2.3-0.2-4.4-0.5-6.3
		c-0.4-1.9-0.8-3.5-1.4-4.8s-1.3-2.3-2.1-3.1c-0.8-0.7-1.6-1.1-2.4-1.1c-1.1,0-2.1,0.6-2.8,1.8C200.6,56.2,200.2,57.9,200.2,60z"/>
	<path class="st2" d="M265.8,68.4l-0.5,1c-1.4,2.7-2.7,5.3-3.9,7.7c-1.2,2.4-2.5,4.4-3.7,6.2c-1.2,1.8-2.5,3.1-3.8,4.1
		c-1.3,1-2.7,1.5-4.1,1.5s-2.9-0.4-4.3-1.2c-1.4-0.8-2.8-1.9-4.2-3.3c-1.4-1.4-2.8-3-4.2-4.9c-1.4-1.9-2.8-3.9-4.3-6.1l-1.7,0.3
		c-0.1,2.9-0.2,5.4-0.3,7.7c-0.1,2.3-0.3,4.2-0.5,5.6c-0.1,0.7-0.4,1.1-0.8,1.4c-0.4,0.3-1,0.4-1.8,0.4c-0.9,0-1.6-0.1-2.2-0.3
		c-0.6-0.2-1-0.5-1.4-0.9s-0.6-0.7-0.7-1.1c-0.1-0.4-0.2-0.8-0.2-1.2c0-2.1,0.3-4.7,1-7.8V52.4c0-6.2,0.3-11.7,1-16.2
		c0.7-4.6,1.5-8.4,2.6-11.4c1.1-3,2.4-5.2,3.9-6.7c1.5-1.4,3.1-2.2,4.7-2.2c1.8,0,3.1,0.6,3.8,1.7c0.8,1.2,1.1,2.7,1.1,4.8
		c0,1.8-0.3,4-0.8,6.8c-0.5,2.8-1.2,5.8-2.2,9.1c-0.9,3.3-2,6.7-3.2,10.3c-1.2,3.6-2.6,7-4,10.4V60c0.9-1.5,2-2.9,3.2-4.2
		c1.2-1.3,2.5-2.5,3.9-3.5c1.4-1,2.8-1.8,4.3-2.4c1.5-0.6,2.9-0.9,4.4-0.9c1.3,0,2.4,0.2,3.5,0.5c1.1,0.4,2,0.9,2.8,1.6
		s1.4,1.5,1.8,2.6c0.4,1,0.6,2.2,0.6,3.5c0,1.4-0.3,2.7-0.9,4.1c-0.6,1.4-1.5,2.7-2.8,4c-1.3,1.3-2.9,2.5-5,3.6
		c-2,1.1-4.5,2.1-7.3,3c0.2,0.3,0.5,0.8,1,1.5c0.5,0.7,1,1.5,1.6,2.3c0.6,0.9,1.3,1.8,2.1,2.7c0.7,0.9,1.5,1.8,2.3,2.5
		c0.8,0.8,1.6,1.4,2.4,1.9c0.8,0.5,1.5,0.8,2.1,0.8c0.9,0,1.8-0.4,2.7-1.1c0.9-0.7,1.9-1.8,2.9-3.1c1-1.4,2-3,3.1-4.9s2.2-4,3.4-6.4
		l0.5-1L265.8,68.4z M235.6,18.4c-0.7,0-1.3,0.7-1.8,2c-0.5,1.3-0.9,3.4-1.3,6.2c-0.4,2.8-0.7,6.4-0.9,10.7
		c-0.2,4.3-0.4,9.5-0.5,15.6c1.4-3.6,2.5-7,3.3-10.2c0.8-3.2,1.5-6,2-8.6c0.5-2.6,0.8-4.8,1-6.7c0.2-1.9,0.2-3.4,0.2-4.6
		c0-1.7-0.2-2.9-0.5-3.5C236.8,18.7,236.3,18.4,235.6,18.4z M231.3,64.2c0,0.7,0,1.4,0,2c0,0.6,0,1.1,0,1.7s0,1.1,0,1.6
		c0,0.6,0,1.2,0,1.9c3.3-0.5,6.1-1.1,8.4-2c2.3-0.8,4.2-1.8,5.6-2.8c1.4-1.1,2.5-2.3,3.1-3.5c0.7-1.3,1-2.6,1-4.1
		c0-0.7-0.1-1.5-0.4-2.2c-0.2-0.7-0.6-1.3-1-1.9c-0.5-0.5-1-1-1.7-1.3c-0.7-0.3-1.4-0.5-2.2-0.5c-1.1,0-2.3,0.3-3.4,0.9
		c-1.2,0.6-2.3,1.4-3.4,2.4c-1.1,1-2.2,2.2-3.2,3.5C233,61.4,232.1,62.8,231.3,64.2z"/>
	<path class="st2" d="M279.7,52.4c-0.9,0-1.8,0.3-2.7,1c-0.9,0.7-1.7,1.6-2.5,2.7c-0.8,1.2-1.5,2.5-2.3,4.1c-0.7,1.5-1.5,3.2-2.2,5
		v0.6c-0.1,2.9-0.2,5.9-0.3,9.1c-0.1,3.2-0.1,6.7-0.1,10.5c0,0.7-0.2,1.2-0.7,1.6s-1,0.8-1.5,1.1c-0.6,0.3-1.2,0.5-1.8,0.6
		c-0.6,0.1-1.1,0.2-1.5,0.2c-0.5,0-0.9-0.1-1.4-0.4s-0.6-0.9-0.6-2c0-0.5,0-1.1,0.1-1.8s0.2-1.5,0.4-2.4c0.1-0.8,0.3-1.7,0.5-2.6
		c0.2-0.9,0.3-1.7,0.5-2.5c0-2.8,0-5.3,0-7.5c0-2.2,0-4.2,0-5.9c0-1.7,0-3.2,0-4.5c0-1.3,0-2.4,0-3.4c0-1.6,0-2.7,0.1-3.4
		s0.1-1.2,0.2-1.5c0.2-0.5,0.5-0.8,0.9-1.1c0.4-0.3,0.9-0.5,1.4-0.6s1-0.2,1.5-0.3c0.5,0,0.9,0,1.1,0c0.6,0,1,0.2,1.2,0.5
		c0.2,0.4,0.3,0.9,0.3,1.7c0,1.7,0,3.2,0,4.6s0,2.7-0.1,4.1c0.6-1.5,1.3-2.9,2.2-4.2s1.7-2.5,2.8-3.5c1-1,2.1-1.8,3.2-2.4
		s2.3-0.9,3.5-0.9c1.5,0,2.7,0.3,3.6,0.9c1,0.6,1.7,1.4,2.3,2.5c0.6,1.1,1,2.3,1.3,3.8c0.3,1.4,0.5,3,0.6,4.7c0.9-1.7,1.9-3.2,3-4.7
		c1.1-1.4,2.2-2.7,3.4-3.8c1.2-1.1,2.4-1.9,3.8-2.5c1.3-0.6,2.7-0.9,4.1-0.9c2.5,0,4.3,0.8,5.4,2.3c1.1,1.5,1.7,3.6,1.7,6.3
		c0,1.7-0.1,3.5-0.4,5.6c-0.3,2.1-0.5,4.1-0.8,6.2s-0.6,4.2-0.8,6.2c-0.3,2-0.4,3.9-0.4,5.5c0,2,0.5,3,1.5,3c0.5,0,1.1-0.3,1.7-1
		c0.6-0.6,1.3-1.6,2.1-2.9c0.8-1.3,1.7-3,2.8-5c1.1-2,2.3-4.4,3.7-7.2l0.5-1l2,1.5l-0.5,1c-1.9,3.8-3.6,7-4.9,9.5
		c-1.4,2.5-2.6,4.5-3.6,6c-1.1,1.5-2.1,2.5-3.1,3.1c-1,0.6-2,0.9-3.2,0.9c-0.7,0-1.4-0.1-2-0.3c-0.7-0.2-1.2-0.5-1.7-1
		s-0.9-1.1-1.2-2s-0.4-1.9-0.4-3.2c0-2,0.1-4.2,0.4-6.6c0.3-2.4,0.6-4.9,0.9-7.3c0.3-2.4,0.6-4.7,0.9-6.9c0.3-2.2,0.4-3.9,0.4-5.3
		c0-1.2-0.3-2.2-0.8-2.9c-0.5-0.7-1.3-1.1-2.3-1.1c-1,0-2.1,0.4-3.2,1.2c-1.1,0.8-2.2,1.9-3.3,3.1c-1.1,1.3-2.1,2.7-3,4.3
		c-0.9,1.6-1.7,3.2-2.4,4.7c0,3.4,0,6.4-0.1,9c-0.1,2.6-0.2,4.7-0.3,6.5c-0.1,1.8-0.3,3.1-0.5,4.2s-0.4,1.7-0.6,2.1
		c-0.2,0.2-0.4,0.4-0.8,0.6s-0.8,0.4-1.3,0.5c-0.5,0.1-0.9,0.2-1.4,0.3c-0.4,0.1-0.8,0.1-1,0.1c-0.5,0-1-0.2-1.3-0.5
		c-0.4-0.3-0.6-0.9-0.6-1.8c0-0.4,0-1,0.1-1.7c0.1-0.7,0.2-1.5,0.3-2.4c0.1-0.9,0.3-1.8,0.4-2.8c0.2-1,0.3-2,0.5-3.1
		c0-1,0.1-2.1,0.1-3.3c0-1.2,0.1-2.4,0.1-3.6c0-1.2,0.1-2.3,0.1-3.4c0-1.1,0-2,0-2.8c0-1.7,0-3.2-0.1-4.5s-0.3-2.5-0.6-3.5
		c-0.3-1-0.7-1.7-1.1-2.3S280.5,52.4,279.7,52.4z"/>
	<path class="st2" d="M350.4,76.8c0,1.9,0.2,3.4,0.5,4.7c0.3,1.3,0.9,1.9,1.7,1.9c0.5,0,1-0.2,1.6-0.7c0.6-0.5,1.2-1.2,2-2.3
		c0.7-1.1,1.6-2.5,2.6-4.2c1-1.7,2.1-3.8,3.3-6.3l1.5-3l2,1.5l-1.5,3c-1.4,2.7-2.6,5.2-3.8,7.3c-1.2,2.2-2.3,4-3.4,5.5
		c-1.1,1.5-2.1,2.6-3.1,3.4c-1,0.8-2,1.2-3.1,1.2c-1.1,0-2-0.3-2.7-0.9s-1.3-1.4-1.8-2.4s-0.9-2.2-1.1-3.6c-0.3-1.4-0.4-2.8-0.5-4.3
		c-0.8,1.6-1.6,3-2.6,4.4c-0.9,1.4-1.9,2.5-3,3.5c-1,1-2.1,1.8-3.2,2.4c-1.1,0.6-2.2,0.9-3.3,0.9c-1.6,0-3.2-0.3-4.7-1
		c-1.5-0.7-2.9-1.7-4.1-3.1c-1.2-1.4-2.1-3.2-2.9-5.3c-0.7-2.1-1.1-4.6-1.1-7.5c0-3.4,0.4-6.5,1.3-9.3c0.9-2.8,2.1-5.2,3.6-7.3
		c1.5-2,3.2-3.6,5.2-4.7s4-1.7,6.2-1.7c1.3,0,2.5,0.3,3.6,0.9c1.1,0.6,2.1,1.3,2.9,2.1s1.5,1.7,2.1,2.6c0.6,0.9,0.9,1.7,1.1,2.4
		l0.6-4.7c0.1-0.6,0.4-1.1,0.9-1.6c0.5-0.4,1.1-0.8,1.8-1c0.7-0.2,1.3-0.4,1.9-0.5c0.6-0.1,1.1-0.2,1.3-0.2c0.4,0,0.7,0.1,0.8,0.2
		c0.1,0.1,0.2,0.4,0.2,0.8c0,0.5-0.1,1.5-0.4,3c-0.3,1.5-0.6,3.4-0.9,5.7c-0.3,2.3-0.6,5-0.9,8.1C350.5,69.7,350.4,73.1,350.4,76.8z
		 M345,63.9c0-1.5-0.2-3-0.7-4.4c-0.5-1.4-1.1-2.7-1.9-3.9s-1.7-2-2.7-2.7s-2.1-1-3.2-1c-1.4,0-2.7,0.4-3.9,1.2
		c-1.2,0.8-2.3,1.9-3.2,3.4c-0.9,1.4-1.6,3.2-2.1,5.2c-0.5,2-0.8,4.3-0.8,6.7c0,4.9,0.8,8.6,2.3,11.2c1.5,2.6,3.6,3.8,6.1,3.8
		c1.1,0,2.3-0.4,3.4-1.3c1.2-0.9,2.3-2.2,3.3-3.9c1-1.7,1.8-3.7,2.4-6.1C344.7,69.7,345,67,345,63.9z"/>
	<path class="st2" d="M392,71.9c0,2.2-0.3,4.3-1,6.4c-0.7,2-1.6,3.8-2.9,5.4c-1.3,1.6-2.9,2.8-4.8,3.8c-1.9,0.9-4.1,1.4-6.5,1.4
		c-1.8,0-3.3-0.3-4.7-0.9c-1.4-0.6-2.6-1.3-3.5-2.3c-1-1-1.7-2.1-2.2-3.3c-0.5-1.2-0.8-2.5-0.8-3.8c0-1.3,0.3-2.5,0.8-3.6
		c0.5-1.1,1.2-2.1,2.1-2.9c0.9-0.8,1.8-1.4,3-1.9c1.1-0.5,2.3-0.7,3.5-0.7c0.8,0,1.6,0.1,2.4,0.3v1.4c-1,0-2.1,0.2-3.1,0.6
		c-1,0.4-1.9,1-2.6,1.7c-0.8,0.7-1.4,1.6-1.8,2.6c-0.5,1-0.7,2.1-0.7,3.3c0,2.1,0.7,3.9,2.2,5.2c1.5,1.3,3.5,1.9,6.1,1.9
		c1.3,0,2.5-0.3,3.6-0.8c1.1-0.5,2-1.2,2.8-2.1c0.8-0.9,1.4-2,1.8-3.2c0.4-1.2,0.6-2.6,0.6-4.1c0-1.4-0.3-2.7-0.8-3.9
		c-0.6-1.2-1.3-2.3-2.2-3.4c-0.9-1.1-1.9-2.1-3.1-3c-1.2-0.9-2.3-1.8-3.5-2.7c-1.2-0.9-2.4-1.7-3.5-2.5c-1.1-0.8-2.1-1.6-3-2.4
		L365,69.4l-2-1.5l5-10.9c-1.2-1.1-2.1-2.2-2.7-3.2c-0.6-1-0.9-2.3-0.9-3.7c0-0.8,0.1-1.5,0.4-2.2c0.3-0.7,0.7-1.3,1.1-1.8
		c0.5-0.5,1-0.9,1.6-1.2c0.6-0.3,1.3-0.4,2-0.4c1.2,0,2.2,0.4,2.8,1c0.6,0.7,0.9,1.6,0.9,2.6c0,0.5,0,1-0.1,1.5s-0.2,1.1-0.4,1.6
		s-0.3,1-0.4,1.5c-0.1,0.5-0.3,0.8-0.4,1.2c1,0.7,2.1,1.5,3.5,2.2c1.4,0.7,2.8,1.4,4.3,2.2c1.5,0.7,3,1.6,4.4,2.4
		c1.5,0.9,2.8,1.9,3.9,2.9c1.2,1.1,2.1,2.3,2.8,3.7C391.6,68.7,392,70.2,392,71.9z M369.7,46.6c-0.5,0-0.8,0.2-1.1,0.5
		c-0.3,0.3-0.4,0.7-0.4,1.2c0,0.6,0.1,1.2,0.4,2c0.3,0.7,0.8,1.4,1.6,2.1c0.3-0.7,0.6-1.4,0.8-2c0.2-0.7,0.3-1.3,0.3-2
		c0-0.5-0.1-1-0.4-1.3C370.5,46.8,370.1,46.6,369.7,46.6z"/>
</g>
<g class="st1">
	<path class="st3" d="M99.7,51.8c0,5.9,0.7,11,2,15.3c1.3,4.4,3.1,8,5.3,10.9c2.2,2.9,4.7,5.1,7.5,6.5c2.8,1.4,5.7,2.2,8.7,2.2
		c2.1,0,4.2-0.4,6.3-1.2c2.1-0.8,4.1-2,6-3.5s3.8-3.5,5.6-5.9s3.5-5.1,5.1-8.3l0.5-1l2,1.5l-0.5,1c-1.8,3.6-3.8,6.8-5.9,9.5
		c-2.2,2.7-4.5,5-6.9,6.9c-2.4,1.8-5,3.2-7.6,4.2c-2.6,0.9-5.3,1.4-8,1.4c-2.3,0-4.7-0.3-7-1c-2.3-0.7-4.5-1.7-6.5-3
		c-2.1-1.4-4-3.1-5.8-5.1c-1.8-2.1-3.3-4.5-4.6-7.2c-1.3-2.8-2.3-5.9-3.1-9.3s-1.1-7.3-1.1-11.4c0-5.5,0.5-10.5,1.4-15
		c0.9-4.5,2.2-8.5,3.8-12c1.6-3.5,3.4-6.5,5.5-9.1c2.1-2.6,4.3-4.7,6.6-6.4c2.3-1.7,4.7-2.9,7.1-3.7c2.4-0.8,4.7-1.2,6.9-1.2
		c2.9,0,5.6,0.5,8,1.5c2.4,1,4.5,2.4,6.3,4.2s3.1,4,4.1,6.6c1,2.6,1.5,5.5,1.5,8.6c0,3-0.5,5.9-1.4,8.5c-0.9,2.7-2.2,5-3.7,7
		c-1.5,2-3.3,3.6-5.3,4.8s-4.1,1.8-6.3,1.8c-1.5,0-2.8-0.3-4.1-0.8c-1.3-0.5-2.4-1.3-3.3-2.2c-0.9-0.9-1.7-2.1-2.2-3.5
		c-0.6-1.4-0.8-2.9-0.8-4.5c0-1.6,0.2-3.1,0.7-4.6c0.5-1.5,1.1-2.8,1.9-4.1c0.7-1.3,1.6-2.4,2.5-3.3c0.9-1,1.8-1.7,2.6-2.3l1.3,1.3
		c-0.7,0.8-1.3,1.6-1.9,2.5c-0.6,0.9-1.1,1.9-1.6,2.9c-0.5,1-0.8,2.1-1.1,3.3c-0.3,1.2-0.4,2.4-0.4,3.8c0,1.4,0.2,2.7,0.5,3.8
		c0.3,1.1,0.8,2.1,1.4,2.8c0.6,0.8,1.3,1.4,2.1,1.8c0.8,0.4,1.6,0.6,2.5,0.6c1.2,0,2.4-0.4,3.6-1.3c1.2-0.9,2.3-2.2,3.2-4
		c0.9-1.7,1.7-3.9,2.3-6.4s0.9-5.5,0.9-8.8c0-3-0.3-5.6-1-7.8c-0.7-2.2-1.6-4-2.8-5.4c-1.2-1.4-2.6-2.5-4.2-3.2
		c-1.6-0.7-3.3-1-5.1-1c-1.3,0-2.8,0.3-4.4,0.9c-1.7,0.6-3.4,1.5-5.1,2.8c-1.7,1.3-3.4,3-5.1,5.2c-1.7,2.1-3.1,4.8-4.5,7.9
		c-1.3,3.1-2.4,6.8-3.2,11.1C100.1,41.5,99.7,46.3,99.7,51.8z"/>
	<path class="st3" d="M187.6,68.4l-0.5,1c-1.1,2.2-2.6,4-4.4,5.3c-1.8,1.3-3.8,2.2-6,2.6c-0.6,1.7-1.3,3.2-2.3,4.6s-2,2.6-3.2,3.7
		c-1.2,1-2.5,1.9-4,2.4c-1.5,0.6-3.1,0.9-4.8,0.9c-2.5,0-4.8-0.5-6.8-1.6c-2-1.1-3.7-2.5-5.1-4.3c-1.4-1.8-2.5-3.9-3.2-6.3
		c-0.7-2.4-1.1-5-1.1-7.8c0-2.4,0.3-4.6,0.8-6.6c0.6-2,1.3-3.7,2.1-5.3c0.8-1.5,1.8-2.9,2.8-4.1c1-1.2,2.1-2.1,3.1-2.9
		c1-0.7,1.9-1.3,2.8-1.7c0.8-0.4,1.5-0.6,1.9-0.6l0.6,1.7c-1.3,1-2.5,2.3-3.6,4.1c-0.9,1.5-1.7,3.5-2.5,6c-0.7,2.5-1.1,5.6-1.1,9.2
		c0,2.2,0.2,4.4,0.6,6.5c0.4,2.1,1,4,1.9,5.6c0.8,1.6,1.8,2.9,3,3.9c1.2,1,2.5,1.5,4,1.5c2.1,0,3.8-0.8,5.1-2.5
		c1.4-1.6,2.4-3.9,3-6.8c-1.7-0.4-3.3-1-4.8-2c-1.5-1-2.9-2.2-4.1-3.6c-1.2-1.4-2.1-3.1-2.8-5c-0.7-1.9-1-3.9-1-6.2
		c0-1.8,0.2-3.4,0.7-4.8c0.5-1.4,1.1-2.5,1.9-3.5s1.7-1.6,2.7-2.1c1-0.5,2.1-0.7,3.2-0.7c1.3,0,2.7,0.4,4.1,1.1
		c1.4,0.8,2.7,1.9,3.8,3.4c1.1,1.5,2.1,3.4,2.8,5.7c0.7,2.3,1.1,4.9,1.1,8c0,1.1-0.1,2.3-0.2,3.4c-0.1,1.1-0.3,2.2-0.6,3.2
		c1.6-0.5,3-1.2,4.3-2.2c1.3-1,2.4-2.3,3.2-4l0.5-1L187.6,68.4z M161.3,60c0,1.9,0.3,3.7,0.8,5.3s1.3,3,2.2,4.2
		c0.9,1.2,2,2.2,3.2,3.1c1.2,0.8,2.5,1.4,3.9,1.7c0.2-0.9,0.3-1.9,0.3-2.9c0-1,0.1-2,0.1-3.1c0-2.3-0.2-4.4-0.5-6.3
		c-0.4-1.9-0.8-3.5-1.4-4.8s-1.3-2.3-2.1-3.1c-0.8-0.7-1.6-1.1-2.4-1.1c-1.1,0-2.1,0.6-2.8,1.8C161.7,56.2,161.3,57.9,161.3,60z"/>
	<path class="st3" d="M226.5,68.4l-0.5,1c-1.1,2.2-2.6,4-4.4,5.3c-1.8,1.3-3.8,2.2-6,2.6c-0.6,1.7-1.3,3.2-2.3,4.6s-2,2.6-3.2,3.7
		c-1.2,1-2.5,1.9-4,2.4c-1.5,0.6-3.1,0.9-4.8,0.9c-2.5,0-4.8-0.5-6.8-1.6c-2-1.1-3.7-2.5-5.1-4.3c-1.4-1.8-2.5-3.9-3.2-6.3
		c-0.7-2.4-1.1-5-1.1-7.8c0-2.4,0.3-4.6,0.8-6.6c0.6-2,1.3-3.7,2.1-5.3c0.8-1.5,1.8-2.9,2.8-4.1c1-1.2,2.1-2.1,3.1-2.9
		c1-0.7,1.9-1.3,2.8-1.7c0.8-0.4,1.5-0.6,1.9-0.6l0.6,1.7c-1.3,1-2.5,2.3-3.6,4.1c-0.9,1.5-1.7,3.5-2.5,6c-0.7,2.5-1.1,5.6-1.1,9.2
		c0,2.2,0.2,4.4,0.6,6.5c0.4,2.1,1,4,1.9,5.6c0.8,1.6,1.8,2.9,3,3.9c1.2,1,2.5,1.5,4,1.5c2.1,0,3.8-0.8,5.1-2.5
		c1.4-1.6,2.4-3.9,3-6.8c-1.7-0.4-3.3-1-4.8-2c-1.5-1-2.9-2.2-4.1-3.6c-1.2-1.4-2.1-3.1-2.8-5c-0.7-1.9-1-3.9-1-6.2
		c0-1.8,0.2-3.4,0.7-4.8c0.5-1.4,1.1-2.5,1.9-3.5s1.7-1.6,2.7-2.1c1-0.5,2.1-0.7,3.2-0.7c1.3,0,2.7,0.4,4.1,1.1
		c1.4,0.8,2.7,1.9,3.8,3.4c1.1,1.5,2.1,3.4,2.8,5.7c0.7,2.3,1.1,4.9,1.1,8c0,1.1-0.1,2.3-0.2,3.4c-0.1,1.1-0.3,2.2-0.6,3.2
		c1.6-0.5,3-1.2,4.3-2.2c1.3-1,2.4-2.3,3.2-4l0.5-1L226.5,68.4z M200.2,60c0,1.9,0.3,3.7,0.8,5.3s1.3,3,2.2,4.2
		c0.9,1.2,2,2.2,3.2,3.1c1.2,0.8,2.5,1.4,3.9,1.7c0.2-0.9,0.3-1.9,0.3-2.9c0-1,0.1-2,0.1-3.1c0-2.3-0.2-4.4-0.5-6.3
		c-0.4-1.9-0.8-3.5-1.4-4.8s-1.3-2.3-2.1-3.1c-0.8-0.7-1.6-1.1-2.4-1.1c-1.1,0-2.1,0.6-2.8,1.8C200.6,56.2,200.2,57.9,200.2,60z"/>
	<path class="st3" d="M265.8,68.4l-0.5,1c-1.4,2.7-2.7,5.3-3.9,7.7c-1.2,2.4-2.5,4.4-3.7,6.2c-1.2,1.8-2.5,3.1-3.8,4.1
		c-1.3,1-2.7,1.5-4.1,1.5s-2.9-0.4-4.3-1.2c-1.4-0.8-2.8-1.9-4.2-3.3c-1.4-1.4-2.8-3-4.2-4.9c-1.4-1.9-2.8-3.9-4.3-6.1l-1.7,0.3
		c-0.1,2.9-0.2,5.4-0.3,7.7c-0.1,2.3-0.3,4.2-0.5,5.6c-0.1,0.7-0.4,1.1-0.8,1.4c-0.4,0.3-1,0.4-1.8,0.4c-0.9,0-1.6-0.1-2.2-0.3
		c-0.6-0.2-1-0.5-1.4-0.9s-0.6-0.7-0.7-1.1c-0.1-0.4-0.2-0.8-0.2-1.2c0-2.1,0.3-4.7,1-7.8V52.4c0-6.2,0.3-11.7,1-16.2
		c0.7-4.6,1.5-8.4,2.6-11.4c1.1-3,2.4-5.2,3.9-6.7c1.5-1.4,3.1-2.2,4.7-2.2c1.8,0,3.1,0.6,3.8,1.7c0.8,1.2,1.1,2.7,1.1,4.8
		c0,1.8-0.3,4-0.8,6.8c-0.5,2.8-1.2,5.8-2.2,9.1c-0.9,3.3-2,6.7-3.2,10.3c-1.2,3.6-2.6,7-4,10.4V60c0.9-1.5,2-2.9,3.2-4.2
		c1.2-1.3,2.5-2.5,3.9-3.5c1.4-1,2.8-1.8,4.3-2.4c1.5-0.6,2.9-0.9,4.4-0.9c1.3,0,2.4,0.2,3.5,0.5c1.1,0.4,2,0.9,2.8,1.6
		s1.4,1.5,1.8,2.6c0.4,1,0.6,2.2,0.6,3.5c0,1.4-0.3,2.7-0.9,4.1c-0.6,1.4-1.5,2.7-2.8,4c-1.3,1.3-2.9,2.5-5,3.6
		c-2,1.1-4.5,2.1-7.3,3c0.2,0.3,0.5,0.8,1,1.5c0.5,0.7,1,1.5,1.6,2.3c0.6,0.9,1.3,1.8,2.1,2.7c0.7,0.9,1.5,1.8,2.3,2.5
		c0.8,0.8,1.6,1.4,2.4,1.9c0.8,0.5,1.5,0.8,2.1,0.8c0.9,0,1.8-0.4,2.7-1.1c0.9-0.7,1.9-1.8,2.9-3.1c1-1.4,2-3,3.1-4.9s2.2-4,3.4-6.4
		l0.5-1L265.8,68.4z M235.6,18.4c-0.7,0-1.3,0.7-1.8,2c-0.5,1.3-0.9,3.4-1.3,6.2c-0.4,2.8-0.7,6.4-0.9,10.7
		c-0.2,4.3-0.4,9.5-0.5,15.6c1.4-3.6,2.5-7,3.3-10.2c0.8-3.2,1.5-6,2-8.6c0.5-2.6,0.8-4.8,1-6.7c0.2-1.9,0.2-3.4,0.2-4.6
		c0-1.7-0.2-2.9-0.5-3.5C236.8,18.7,236.3,18.4,235.6,18.4z M231.3,64.2c0,0.7,0,1.4,0,2c0,0.6,0,1.1,0,1.7s0,1.1,0,1.6
		c0,0.6,0,1.2,0,1.9c3.3-0.5,6.1-1.1,8.4-2c2.3-0.8,4.2-1.8,5.6-2.8c1.4-1.1,2.5-2.3,3.1-3.5c0.7-1.3,1-2.6,1-4.1
		c0-0.7-0.1-1.5-0.4-2.2c-0.2-0.7-0.6-1.3-1-1.9c-0.5-0.5-1-1-1.7-1.3c-0.7-0.3-1.4-0.5-2.2-0.5c-1.1,0-2.3,0.3-3.4,0.9
		c-1.2,0.6-2.3,1.4-3.4,2.4c-1.1,1-2.2,2.2-3.2,3.5C233,61.4,232.1,62.8,231.3,64.2z"/>
	<path class="st3" d="M279.7,52.4c-0.9,0-1.8,0.3-2.7,1c-0.9,0.7-1.7,1.6-2.5,2.7c-0.8,1.2-1.5,2.5-2.3,4.1c-0.7,1.5-1.5,3.2-2.2,5
		v0.6c-0.1,2.9-0.2,5.9-0.3,9.1c-0.1,3.2-0.1,6.7-0.1,10.5c0,0.7-0.2,1.2-0.7,1.6s-1,0.8-1.5,1.1c-0.6,0.3-1.2,0.5-1.8,0.6
		c-0.6,0.1-1.1,0.2-1.5,0.2c-0.5,0-0.9-0.1-1.4-0.4s-0.6-0.9-0.6-2c0-0.5,0-1.1,0.1-1.8s0.2-1.5,0.4-2.4c0.1-0.8,0.3-1.7,0.5-2.6
		c0.2-0.9,0.3-1.7,0.5-2.5c0-2.8,0-5.3,0-7.5c0-2.2,0-4.2,0-5.9c0-1.7,0-3.2,0-4.5c0-1.3,0-2.4,0-3.4c0-1.6,0-2.7,0.1-3.4
		s0.1-1.2,0.2-1.5c0.2-0.5,0.5-0.8,0.9-1.1c0.4-0.3,0.9-0.5,1.4-0.6s1-0.2,1.5-0.3c0.5,0,0.9,0,1.1,0c0.6,0,1,0.2,1.2,0.5
		c0.2,0.4,0.3,0.9,0.3,1.7c0,1.7,0,3.2,0,4.6s0,2.7-0.1,4.1c0.6-1.5,1.3-2.9,2.2-4.2s1.7-2.5,2.8-3.5c1-1,2.1-1.8,3.2-2.4
		s2.3-0.9,3.5-0.9c1.5,0,2.7,0.3,3.6,0.9c1,0.6,1.7,1.4,2.3,2.5c0.6,1.1,1,2.3,1.3,3.8c0.3,1.4,0.5,3,0.6,4.7c0.9-1.7,1.9-3.2,3-4.7
		c1.1-1.4,2.2-2.7,3.4-3.8c1.2-1.1,2.4-1.9,3.8-2.5c1.3-0.6,2.7-0.9,4.1-0.9c2.5,0,4.3,0.8,5.4,2.3c1.1,1.5,1.7,3.6,1.7,6.3
		c0,1.7-0.1,3.5-0.4,5.6c-0.3,2.1-0.5,4.1-0.8,6.2s-0.6,4.2-0.8,6.2c-0.3,2-0.4,3.9-0.4,5.5c0,2,0.5,3,1.5,3c0.5,0,1.1-0.3,1.7-1
		c0.6-0.6,1.3-1.6,2.1-2.9c0.8-1.3,1.7-3,2.8-5c1.1-2,2.3-4.4,3.7-7.2l0.5-1l2,1.5l-0.5,1c-1.9,3.8-3.6,7-4.9,9.5
		c-1.4,2.5-2.6,4.5-3.6,6c-1.1,1.5-2.1,2.5-3.1,3.1c-1,0.6-2,0.9-3.2,0.9c-0.7,0-1.4-0.1-2-0.3c-0.7-0.2-1.2-0.5-1.7-1
		s-0.9-1.1-1.2-2s-0.4-1.9-0.4-3.2c0-2,0.1-4.2,0.4-6.6c0.3-2.4,0.6-4.9,0.9-7.3c0.3-2.4,0.6-4.7,0.9-6.9c0.3-2.2,0.4-3.9,0.4-5.3
		c0-1.2-0.3-2.2-0.8-2.9c-0.5-0.7-1.3-1.1-2.3-1.1c-1,0-2.1,0.4-3.2,1.2c-1.1,0.8-2.2,1.9-3.3,3.1c-1.1,1.3-2.1,2.7-3,4.3
		c-0.9,1.6-1.7,3.2-2.4,4.7c0,3.4,0,6.4-0.1,9c-0.1,2.6-0.2,4.7-0.3,6.5c-0.1,1.8-0.3,3.1-0.5,4.2s-0.4,1.7-0.6,2.1
		c-0.2,0.2-0.4,0.4-0.8,0.6s-0.8,0.4-1.3,0.5c-0.5,0.1-0.9,0.2-1.4,0.3c-0.4,0.1-0.8,0.1-1,0.1c-0.5,0-1-0.2-1.3-0.5
		c-0.4-0.3-0.6-0.9-0.6-1.8c0-0.4,0-1,0.1-1.7c0.1-0.7,0.2-1.5,0.3-2.4c0.1-0.9,0.3-1.8,0.4-2.8c0.2-1,0.3-2,0.5-3.1
		c0-1,0.1-2.1,0.1-3.3c0-1.2,0.1-2.4,0.1-3.6c0-1.2,0.1-2.3,0.1-3.4c0-1.1,0-2,0-2.8c0-1.7,0-3.2-0.1-4.5s-0.3-2.5-0.6-3.5
		c-0.3-1-0.7-1.7-1.1-2.3S280.5,52.4,279.7,52.4z"/>
	<path class="st3" d="M350.4,76.8c0,1.9,0.2,3.4,0.5,4.7c0.3,1.3,0.9,1.9,1.7,1.9c0.5,0,1-0.2,1.6-0.7c0.6-0.5,1.2-1.2,2-2.3
		c0.7-1.1,1.6-2.5,2.6-4.2c1-1.7,2.1-3.8,3.3-6.3l1.5-3l2,1.5l-1.5,3c-1.4,2.7-2.6,5.2-3.8,7.3c-1.2,2.2-2.3,4-3.4,5.5
		c-1.1,1.5-2.1,2.6-3.1,3.4c-1,0.8-2,1.2-3.1,1.2c-1.1,0-2-0.3-2.7-0.9s-1.3-1.4-1.8-2.4s-0.9-2.2-1.1-3.6c-0.3-1.4-0.4-2.8-0.5-4.3
		c-0.8,1.6-1.6,3-2.6,4.4c-0.9,1.4-1.9,2.5-3,3.5c-1,1-2.1,1.8-3.2,2.4c-1.1,0.6-2.2,0.9-3.3,0.9c-1.6,0-3.2-0.3-4.7-1
		c-1.5-0.7-2.9-1.7-4.1-3.1c-1.2-1.4-2.1-3.2-2.9-5.3c-0.7-2.1-1.1-4.6-1.1-7.5c0-3.4,0.4-6.5,1.3-9.3c0.9-2.8,2.1-5.2,3.6-7.3
		c1.5-2,3.2-3.6,5.2-4.7s4-1.7,6.2-1.7c1.3,0,2.5,0.3,3.6,0.9c1.1,0.6,2.1,1.3,2.9,2.1s1.5,1.7,2.1,2.6c0.6,0.9,0.9,1.7,1.1,2.4
		l0.6-4.7c0.1-0.6,0.4-1.1,0.9-1.6c0.5-0.4,1.1-0.8,1.8-1c0.7-0.2,1.3-0.4,1.9-0.5c0.6-0.1,1.1-0.2,1.3-0.2c0.4,0,0.7,0.1,0.8,0.2
		c0.1,0.1,0.2,0.4,0.2,0.8c0,0.5-0.1,1.5-0.4,3c-0.3,1.5-0.6,3.4-0.9,5.7c-0.3,2.3-0.6,5-0.9,8.1C350.5,69.7,350.4,73.1,350.4,76.8z
		 M345,63.9c0-1.5-0.2-3-0.7-4.4c-0.5-1.4-1.1-2.7-1.9-3.9s-1.7-2-2.7-2.7s-2.1-1-3.2-1c-1.4,0-2.7,0.4-3.9,1.2
		c-1.2,0.8-2.3,1.9-3.2,3.4c-0.9,1.4-1.6,3.2-2.1,5.2c-0.5,2-0.8,4.3-0.8,6.7c0,4.9,0.8,8.6,2.3,11.2c1.5,2.6,3.6,3.8,6.1,3.8
		c1.1,0,2.3-0.4,3.4-1.3c1.2-0.9,2.3-2.2,3.3-3.9c1-1.7,1.8-3.7,2.4-6.1C344.7,69.7,345,67,345,63.9z"/>
	<path class="st3" d="M392,71.9c0,2.2-0.3,4.3-1,6.4c-0.7,2-1.6,3.8-2.9,5.4c-1.3,1.6-2.9,2.8-4.8,3.8c-1.9,0.9-4.1,1.4-6.5,1.4
		c-1.8,0-3.3-0.3-4.7-0.9c-1.4-0.6-2.6-1.3-3.5-2.3c-1-1-1.7-2.1-2.2-3.3c-0.5-1.2-0.8-2.5-0.8-3.8c0-1.3,0.3-2.5,0.8-3.6
		c0.5-1.1,1.2-2.1,2.1-2.9c0.9-0.8,1.8-1.4,3-1.9c1.1-0.5,2.3-0.7,3.5-0.7c0.8,0,1.6,0.1,2.4,0.3v1.4c-1,0-2.1,0.2-3.1,0.6
		c-1,0.4-1.9,1-2.6,1.7c-0.8,0.7-1.4,1.6-1.8,2.6c-0.5,1-0.7,2.1-0.7,3.3c0,2.1,0.7,3.9,2.2,5.2c1.5,1.3,3.5,1.9,6.1,1.9
		c1.3,0,2.5-0.3,3.6-0.8c1.1-0.5,2-1.2,2.8-2.1c0.8-0.9,1.4-2,1.8-3.2c0.4-1.2,0.6-2.6,0.6-4.1c0-1.4-0.3-2.7-0.8-3.9
		c-0.6-1.2-1.3-2.3-2.2-3.4c-0.9-1.1-1.9-2.1-3.1-3c-1.2-0.9-2.3-1.8-3.5-2.7c-1.2-0.9-2.4-1.7-3.5-2.5c-1.1-0.8-2.1-1.6-3-2.4
		L365,69.4l-2-1.5l5-10.9c-1.2-1.1-2.1-2.2-2.7-3.2c-0.6-1-0.9-2.3-0.9-3.7c0-0.8,0.1-1.5,0.4-2.2c0.3-0.7,0.7-1.3,1.1-1.8
		c0.5-0.5,1-0.9,1.6-1.2c0.6-0.3,1.3-0.4,2-0.4c1.2,0,2.2,0.4,2.8,1c0.6,0.7,0.9,1.6,0.9,2.6c0,0.5,0,1-0.1,1.5s-0.2,1.1-0.4,1.6
		s-0.3,1-0.4,1.5c-0.1,0.5-0.3,0.8-0.4,1.2c1,0.7,2.1,1.5,3.5,2.2c1.4,0.7,2.8,1.4,4.3,2.2c1.5,0.7,3,1.6,4.4,2.4
		c1.5,0.9,2.8,1.9,3.9,2.9c1.2,1.1,2.1,2.3,2.8,3.7C391.6,68.7,392,70.2,392,71.9z M369.7,46.6c-0.5,0-0.8,0.2-1.1,0.5
		c-0.3,0.3-0.4,0.7-0.4,1.2c0,0.6,0.1,1.2,0.4,2c0.3,0.7,0.8,1.4,1.6,2.1c0.3-0.7,0.6-1.4,0.8-2c0.2-0.7,0.3-1.3,0.3-2
		c0-0.5-0.1-1-0.4-1.3C370.5,46.8,370.1,46.6,369.7,46.6z"/>
</g>
<g>
	<g>
		<path class="st4" d="M149.3,100.5c0.1,0.1,0.2,0.2,0.3,0.4c0,0.2,0,0.3-0.1,0.4s-0.2,0.2-0.3,0.2s-0.3,0-0.4-0.1
			c-0.4-0.3-0.9-0.5-1.5-0.7c-0.5-0.2-1.1-0.3-1.7-0.3c-0.7,0-1.4,0.1-2,0.4s-1.2,0.6-1.6,1.1c-0.5,0.5-0.8,1.1-1.1,1.7
			c-0.3,0.7-0.4,1.4-0.4,2.2c0,0.8,0.1,1.6,0.4,2.2c0.3,0.7,0.6,1.2,1.1,1.7s1,0.8,1.6,1.1s1.3,0.4,2,0.4c0.6,0,1.1-0.1,1.7-0.3
			s1-0.4,1.5-0.7c0.1-0.1,0.2-0.1,0.4-0.1c0.1,0,0.2,0.1,0.3,0.2s0.1,0.3,0.1,0.4c0,0.2-0.1,0.3-0.2,0.3c-0.3,0.2-0.7,0.4-1.1,0.5
			c-0.4,0.2-0.8,0.3-1.3,0.4s-0.9,0.1-1.4,0.1c-0.9,0-1.7-0.2-2.4-0.5c-0.8-0.3-1.4-0.8-2-1.3c-0.6-0.6-1-1.3-1.4-2
			c-0.3-0.8-0.5-1.7-0.5-2.6s0.2-1.8,0.5-2.6s0.8-1.5,1.4-2c0.6-0.6,1.2-1,2-1.4c0.8-0.3,1.6-0.5,2.5-0.5c0.7,0,1.3,0.1,2,0.3
			C148.2,99.9,148.7,100.2,149.3,100.5z"/>
		<path class="st4" d="M156,99.6c0.1,0,0.3,0.1,0.4,0.2c0.1,0.1,0.2,0.2,0.2,0.4v11.5c0,0.2-0.1,0.3-0.2,0.4
			c-0.1,0.1-0.2,0.2-0.4,0.2s-0.3-0.1-0.4-0.2c-0.1-0.1-0.1-0.2-0.1-0.4v-11.5c0-0.2,0.1-0.3,0.2-0.4
			C155.7,99.7,155.8,99.6,156,99.6z M155.9,105.2h8.5v1.1h-8.6L155.9,105.2z M164.4,99.6c0.2,0,0.3,0.1,0.4,0.2
			c0.1,0.1,0.2,0.2,0.2,0.4v11.5c0,0.2-0.1,0.3-0.2,0.4c-0.1,0.1-0.2,0.2-0.4,0.2s-0.3-0.1-0.4-0.2c-0.1-0.1-0.2-0.2-0.2-0.4v-11.5
			c0-0.2,0.1-0.3,0.2-0.4C164.1,99.7,164.3,99.6,164.4,99.6z"/>
		<path class="st4" d="M172.6,112.2c-0.2,0-0.3-0.1-0.4-0.2c-0.1-0.1-0.2-0.2-0.2-0.4v-11.5c0-0.1,0.1-0.3,0.2-0.4
			c0.1-0.1,0.2-0.2,0.4-0.2h4.9c0.7,0,1.3,0.1,1.8,0.4s1,0.7,1.3,1.2s0.5,1.1,0.5,1.8c0,0.5-0.1,1-0.3,1.4s-0.5,0.8-0.8,1.1
			c-0.3,0.3-0.7,0.5-1.2,0.7l-0.6-0.2c0.4,0,0.9,0.2,1.2,0.4c0.4,0.2,0.7,0.6,0.9,1s0.4,0.9,0.4,1.5c0,0.5,0,0.9,0.1,1.2
			s0.1,0.5,0.2,0.6c0.1,0.1,0.2,0.3,0.3,0.3c0.1,0.1,0.2,0.2,0.2,0.3s0,0.3,0,0.4s-0.1,0.2-0.2,0.2c-0.1,0-0.2,0.1-0.3,0.1
			s-0.2,0-0.3-0.1c-0.2-0.1-0.4-0.2-0.5-0.5s-0.3-0.5-0.4-0.9c-0.1-0.4-0.2-0.9-0.2-1.7c0-0.5-0.1-0.8-0.2-1.1
			c-0.2-0.3-0.3-0.5-0.6-0.7s-0.5-0.3-0.8-0.3c-0.3-0.1-0.5-0.1-0.8-0.1H173l0.2-0.3v5.1c0,0.1,0,0.3-0.1,0.4
			C172.9,112.2,172.7,112.2,172.6,112.2z M172.9,105.8h4.5c0.4,0,0.8-0.2,1.1-0.4c0.4-0.2,0.6-0.5,0.9-1c0.2-0.4,0.3-0.9,0.3-1.4
			c0-0.7-0.2-1.3-0.7-1.7s-1.1-0.7-1.8-0.7H173l0.1-0.2v5.7L172.9,105.8z"/>
		<path class="st4" d="M188.8,111.6c0,0.2-0.1,0.3-0.2,0.4c-0.1,0.1-0.2,0.2-0.4,0.2s-0.3-0.1-0.4-0.2c-0.1-0.1-0.1-0.2-0.1-0.4
			v-11.5c0-0.2,0.1-0.3,0.2-0.4c0.1-0.1,0.2-0.2,0.4-0.2c0.1,0,0.3,0.1,0.4,0.2c0.1,0.1,0.2,0.2,0.2,0.4L188.8,111.6L188.8,111.6z"
			/>
		<path class="st4" d="M199.2,112.4c-0.9,0-1.7-0.1-2.4-0.4s-1.3-0.7-1.9-1.3c-0.1-0.1-0.1-0.1-0.2-0.2c0-0.1-0.1-0.2-0.1-0.3
			c0-0.1,0.1-0.3,0.2-0.4s0.2-0.2,0.4-0.2s0.3,0.1,0.4,0.2c0.5,0.5,1,0.9,1.6,1.2c0.6,0.3,1.2,0.4,1.9,0.4c0.6,0,1.1-0.1,1.5-0.3
			c0.5-0.2,0.8-0.4,1.1-0.8c0.3-0.3,0.4-0.7,0.4-1.2c0-0.6-0.2-1-0.5-1.3s-0.7-0.6-1.2-0.8c-0.5-0.2-1-0.4-1.6-0.6
			c-0.5-0.2-1-0.3-1.4-0.5c-0.5-0.2-0.8-0.4-1.2-0.7c-0.3-0.3-0.6-0.6-0.8-1s-0.3-0.9-0.3-1.4c0-0.6,0.2-1.2,0.5-1.7
			s0.8-0.9,1.4-1.2c0.6-0.3,1.3-0.4,2.2-0.4c0.7,0,1.4,0.1,2,0.4s1.2,0.6,1.6,1.1c0.2,0.2,0.3,0.4,0.3,0.5s-0.1,0.3-0.2,0.4
			c-0.1,0.1-0.3,0.2-0.4,0.2c-0.1,0-0.2,0-0.3-0.1c-0.2-0.3-0.5-0.5-0.8-0.7s-0.7-0.4-1-0.5c-0.4-0.1-0.8-0.2-1.2-0.2
			c-0.6,0-1.1,0.1-1.5,0.3c-0.4,0.2-0.8,0.4-1.1,0.7c-0.3,0.3-0.4,0.7-0.4,1.2s0.1,0.9,0.4,1.2c0.3,0.3,0.7,0.6,1.1,0.8
			s1,0.4,1.5,0.6c0.5,0.1,1,0.3,1.5,0.5s0.9,0.4,1.3,0.7c0.4,0.3,0.7,0.6,0.9,1s0.3,0.9,0.3,1.6c0,0.6-0.2,1.2-0.5,1.7
			s-0.8,0.9-1.4,1.2C200.7,112.2,200,112.4,199.2,112.4z"/>
		<path class="st4" d="M210,99.6c0.1,0,0.2,0,0.3,0.1s0.2,0.1,0.2,0.2l5,7.5H215l5-7.4c0.1-0.2,0.3-0.3,0.5-0.2
			c0.1,0,0.3,0.1,0.4,0.2c0.1,0.1,0.2,0.2,0.2,0.4v11.5c0,0.1-0.1,0.3-0.2,0.4c-0.1,0.1-0.2,0.2-0.4,0.2s-0.3-0.1-0.4-0.2
			c-0.1-0.1-0.2-0.2-0.2-0.4v-10.4h0.3l-4.6,6.9c0,0.1-0.1,0.1-0.2,0.2c-0.1,0-0.2,0.1-0.2,0.1s-0.2,0-0.2-0.1
			c-0.1,0-0.1-0.1-0.2-0.2l-4.6-7l0.3-0.2v10.7c0,0.1-0.1,0.3-0.2,0.4c-0.1,0.1-0.2,0.2-0.4,0.2s-0.3-0.1-0.4-0.2
			c-0.1-0.1-0.1-0.2-0.1-0.4v-11.5c0-0.1,0.1-0.3,0.2-0.4C209.7,99.7,209.8,99.6,210,99.6z"/>
		<path class="st4" d="M232.1,101l-4.4,10.9c0,0.1-0.1,0.2-0.2,0.3c-0.1,0.1-0.2,0.1-0.3,0.1c-0.2,0-0.3,0-0.4-0.1
			c-0.1-0.1-0.1-0.2-0.1-0.3c0-0.1,0-0.1,0-0.2l4.8-11.6c0-0.1,0.1-0.2,0.2-0.3c0.1-0.1,0.2-0.1,0.3-0.1s0.2,0,0.3,0.1
			s0.2,0.2,0.2,0.3l4.7,11.6c0,0.1,0,0.1,0,0.2c0,0.2-0.1,0.3-0.2,0.4s-0.2,0.1-0.4,0.1c-0.1,0-0.2,0-0.3-0.1s-0.2-0.2-0.2-0.3
			l-4.5-10.9L232.1,101z M228.8,108.6l0.5-1.1h5.6l0.2,1.1H228.8z"/>
		<path class="st4" d="M246.6,112.4c-0.9,0-1.7-0.1-2.4-0.4s-1.3-0.7-1.9-1.3c-0.1-0.1-0.1-0.1-0.2-0.2c0-0.1-0.1-0.2-0.1-0.3
			c0-0.1,0.1-0.3,0.2-0.4c0.1-0.1,0.2-0.2,0.4-0.2c0.1,0,0.3,0.1,0.4,0.2c0.5,0.5,1,0.9,1.6,1.2c0.6,0.3,1.2,0.4,1.9,0.4
			c0.6,0,1.1-0.1,1.5-0.3c0.4-0.2,0.8-0.4,1.1-0.8s0.4-0.7,0.4-1.2c0-0.6-0.2-1-0.5-1.3s-0.7-0.6-1.2-0.8c-0.5-0.2-1-0.4-1.6-0.6
			c-0.5-0.2-1-0.3-1.4-0.5s-0.8-0.4-1.2-0.7c-0.3-0.3-0.6-0.6-0.8-1s-0.3-0.9-0.3-1.4c0-0.6,0.2-1.2,0.5-1.7s0.8-0.9,1.4-1.2
			c0.6-0.3,1.3-0.4,2.2-0.4c0.7,0,1.4,0.1,2,0.4c0.7,0.2,1.2,0.6,1.6,1.1c0.2,0.2,0.3,0.4,0.3,0.5s-0.1,0.3-0.2,0.4
			s-0.3,0.2-0.4,0.2c-0.1,0-0.2,0-0.3-0.1c-0.2-0.3-0.5-0.5-0.8-0.7s-0.7-0.4-1-0.5c-0.4-0.1-0.8-0.2-1.2-0.2
			c-0.6,0-1.1,0.1-1.5,0.3s-0.8,0.4-1.1,0.7c-0.3,0.3-0.4,0.7-0.4,1.2s0.1,0.9,0.4,1.2c0.3,0.3,0.7,0.6,1.1,0.8s1,0.4,1.5,0.6
			c0.5,0.1,1,0.3,1.5,0.5s0.9,0.4,1.3,0.7c0.4,0.3,0.7,0.6,0.9,1s0.3,0.9,0.3,1.6c0,0.6-0.2,1.2-0.5,1.7s-0.8,0.9-1.4,1.2
			C248.1,112.2,247.4,112.4,246.6,112.4z"/>
		<path class="st4" d="M260.3,112.4c-0.9,0-1.7-0.1-2.4-0.4s-1.3-0.7-1.9-1.3c-0.1-0.1-0.1-0.1-0.2-0.2c0-0.1-0.1-0.2-0.1-0.3
			c0-0.1,0.1-0.3,0.2-0.4c0.1-0.1,0.2-0.2,0.4-0.2c0.1,0,0.3,0.1,0.4,0.2c0.5,0.5,1,0.9,1.6,1.2c0.6,0.3,1.2,0.4,1.9,0.4
			c0.6,0,1.1-0.1,1.5-0.3c0.4-0.2,0.8-0.4,1.1-0.8s0.4-0.7,0.4-1.2c0-0.6-0.2-1-0.5-1.3s-0.7-0.6-1.2-0.8c-0.5-0.2-1-0.4-1.6-0.6
			c-0.5-0.2-1-0.3-1.4-0.5s-0.8-0.4-1.2-0.7c-0.3-0.3-0.6-0.6-0.8-1c-0.2-0.4-0.3-0.9-0.3-1.4c0-0.6,0.2-1.2,0.5-1.7
			s0.8-0.9,1.4-1.2c0.6-0.3,1.3-0.4,2.2-0.4c0.7,0,1.4,0.1,2,0.4c0.7,0.2,1.2,0.6,1.6,1.1c0.2,0.2,0.3,0.4,0.3,0.5s-0.1,0.3-0.2,0.4
			s-0.3,0.2-0.4,0.2s-0.2,0-0.3-0.1c-0.2-0.3-0.5-0.5-0.8-0.7s-0.7-0.4-1-0.5c-0.4-0.1-0.8-0.2-1.2-0.2c-0.6,0-1.1,0.1-1.5,0.3
			s-0.8,0.4-1.1,0.7c-0.3,0.3-0.4,0.7-0.4,1.2s0.1,0.9,0.4,1.2c0.3,0.3,0.7,0.6,1.1,0.8s1,0.4,1.5,0.6c0.5,0.1,1,0.3,1.5,0.5
			s0.9,0.4,1.3,0.7c0.4,0.3,0.7,0.6,0.9,1s0.3,0.9,0.3,1.6c0,0.6-0.2,1.2-0.5,1.7s-0.8,0.9-1.4,1.2
			C261.9,112.2,261.1,112.4,260.3,112.4z"/>
		<path class="st4" d="M278.1,99.5c0.2,0,0.3,0.1,0.4,0.2s0.2,0.2,0.2,0.4c0,0.1,0,0.1,0,0.2s0,0.1-0.1,0.2l-4.2,5.8l0.2-0.7v6.1
			c0,0.1-0.1,0.3-0.2,0.4s-0.2,0.2-0.4,0.2c-0.2,0-0.3-0.1-0.4-0.2s-0.2-0.2-0.2-0.4v-6l0.1,0.4l-4.1-5.6c0-0.1-0.1-0.1-0.1-0.2
			s0-0.1,0-0.2c0-0.2,0.1-0.3,0.2-0.4s0.3-0.2,0.4-0.2c0.2,0,0.3,0.1,0.5,0.3l3.9,5.3H274l3.8-5.2C277.7,99.6,277.9,99.5,278.1,99.5
			z"/>
		<path class="st4" d="M293.4,112.2c-0.2,0-0.3-0.1-0.4-0.2s-0.2-0.2-0.2-0.4v-11.5c0-0.1,0.1-0.3,0.2-0.4s0.2-0.2,0.4-0.2h4.9
			c0.7,0,1.3,0.1,1.8,0.4s1,0.7,1.3,1.2s0.5,1.1,0.5,1.8c0,0.5-0.1,1-0.3,1.4c-0.2,0.4-0.5,0.8-0.8,1.1c-0.3,0.3-0.7,0.5-1.2,0.7
			l-0.6-0.2c0.4,0,0.9,0.2,1.2,0.4c0.4,0.2,0.7,0.6,0.9,1c0.2,0.4,0.4,0.9,0.4,1.5c0,0.5,0,0.9,0.1,1.2s0.1,0.5,0.2,0.6
			s0.2,0.3,0.3,0.3c0.1,0.1,0.2,0.2,0.2,0.3s0,0.3,0,0.4s-0.1,0.2-0.2,0.2s-0.2,0.1-0.3,0.1s-0.2,0-0.3-0.1
			c-0.2-0.1-0.4-0.2-0.5-0.5s-0.3-0.5-0.4-0.9s-0.2-0.9-0.2-1.7c0-0.5-0.1-0.8-0.2-1.1c-0.1-0.3-0.3-0.5-0.6-0.7
			c-0.2-0.2-0.5-0.3-0.8-0.3c-0.3-0.1-0.5-0.1-0.8-0.1h-4.2l0.2-0.3v5.1c0,0.1,0,0.3-0.1,0.4C293.6,112.2,293.5,112.2,293.4,112.2z
			 M293.7,105.8h4.5c0.4,0,0.8-0.2,1.1-0.4c0.4-0.2,0.6-0.5,0.9-1c0.2-0.4,0.3-0.9,0.3-1.4c0-0.7-0.2-1.3-0.7-1.7s-1.1-0.7-1.8-0.7
			h-4.3l0.1-0.2v5.7L293.7,105.8z"/>
		<path class="st4" d="M308.9,99.6h6.6c0.2,0,0.3,0.1,0.4,0.2s0.2,0.2,0.2,0.4c0,0.2-0.1,0.3-0.2,0.4s-0.2,0.1-0.4,0.1h-6.2l0.2-0.3
			v5.1l-0.2-0.2h5.4c0.2,0,0.3,0.1,0.4,0.2s0.2,0.2,0.2,0.4c0,0.2-0.1,0.3-0.2,0.4s-0.2,0.1-0.4,0.1h-5.3l0.2-0.2v5.2l-0.1-0.1h6.1
			c0.2,0,0.3,0.1,0.4,0.2s0.2,0.2,0.2,0.4c0,0.2-0.1,0.3-0.2,0.4s-0.2,0.1-0.4,0.1H309c-0.2,0-0.3-0.1-0.4-0.2s-0.2-0.2-0.2-0.4
			v-11.5c0-0.1,0.1-0.3,0.2-0.4C308.7,99.7,308.8,99.6,308.9,99.6z"/>
		<path class="st4" d="M331.4,100.5c0.1,0.1,0.2,0.2,0.3,0.4c0,0.2,0,0.3-0.1,0.4s-0.2,0.2-0.3,0.2s-0.3,0-0.4-0.1
			c-0.4-0.3-0.9-0.5-1.5-0.7c-0.5-0.2-1.1-0.3-1.7-0.3c-0.7,0-1.4,0.1-2,0.4s-1.2,0.6-1.6,1.1c-0.5,0.5-0.8,1.1-1.1,1.7
			c-0.3,0.7-0.4,1.4-0.4,2.2c0,0.8,0.1,1.6,0.4,2.2c0.3,0.7,0.6,1.2,1.1,1.7s1,0.8,1.6,1.1s1.3,0.4,2,0.4c0.6,0,1.1-0.1,1.7-0.3
			c0.5-0.2,1-0.4,1.5-0.7c0.1-0.1,0.2-0.1,0.4-0.1c0.1,0,0.2,0.1,0.3,0.2c0.1,0.1,0.1,0.3,0.1,0.4c0,0.2-0.1,0.3-0.2,0.3
			c-0.3,0.2-0.7,0.4-1.1,0.5s-0.8,0.3-1.3,0.4s-0.9,0.1-1.4,0.1c-0.9,0-1.7-0.2-2.4-0.5c-0.8-0.3-1.4-0.8-2-1.3
			c-0.6-0.6-1-1.3-1.4-2s-0.5-1.7-0.5-2.6s0.2-1.8,0.5-2.6s0.8-1.5,1.4-2s1.2-1,2-1.4c0.8-0.3,1.6-0.5,2.5-0.5c0.7,0,1.3,0.1,2,0.3
			C330.3,99.9,330.9,100.2,331.4,100.5z"/>
		<path class="st4" d="M338.7,111.6c0,0.2-0.1,0.3-0.2,0.4s-0.2,0.2-0.4,0.2c-0.2,0-0.3-0.1-0.4-0.2s-0.1-0.2-0.1-0.4v-11.5
			c0-0.2,0.1-0.3,0.2-0.4s0.2-0.2,0.4-0.2c0.1,0,0.3,0.1,0.4,0.2s0.2,0.2,0.2,0.4v11.5H338.7z"/>
		<path class="st4" d="M350.5,99.6c0.7,0,1.3,0.2,1.8,0.5s0.9,0.7,1.2,1.3s0.5,1.2,0.5,1.9c0,0.7-0.2,1.3-0.5,1.9s-0.7,1-1.2,1.3
			s-1.1,0.5-1.8,0.5h-3.8l0.1-0.2v5c0,0.1-0.1,0.3-0.2,0.4s-0.2,0.2-0.4,0.2c-0.2,0-0.3-0.1-0.4-0.2s-0.1-0.2-0.1-0.4v-11.5
			c0-0.1,0.1-0.3,0.2-0.4s0.2-0.2,0.4-0.2h4.2V99.6z M350.5,105.8c0.5,0,0.9-0.1,1.2-0.4c0.3-0.2,0.6-0.6,0.8-1s0.3-0.8,0.3-1.3
			s-0.1-0.9-0.3-1.3s-0.5-0.7-0.8-0.9c-0.3-0.2-0.8-0.3-1.2-0.3h-3.8l0.1-0.1v5.4l-0.1-0.1C346.7,105.8,350.5,105.8,350.5,105.8z"/>
		<path class="st4" d="M360.6,99.6h6.6c0.2,0,0.3,0.1,0.4,0.2s0.2,0.2,0.2,0.4c0,0.2-0.1,0.3-0.2,0.4s-0.2,0.1-0.4,0.1H361l0.2-0.3
			v5.1l-0.2-0.2h5.4c0.2,0,0.3,0.1,0.4,0.2s0.2,0.2,0.2,0.4c0,0.2-0.1,0.3-0.2,0.4s-0.2,0.1-0.4,0.1H361l0.2-0.2v5.2l-0.1-0.1h6.1
			c0.2,0,0.3,0.1,0.4,0.2s0.2,0.2,0.2,0.4c0,0.2-0.1,0.3-0.2,0.4s-0.2,0.1-0.4,0.1h-6.6c-0.2,0-0.3-0.1-0.4-0.2s-0.2-0.2-0.2-0.4
			v-11.5c0-0.1,0.1-0.3,0.2-0.4C360.3,99.7,360.4,99.6,360.6,99.6z"/>
		<path class="st4" d="M377.3,112.4c-0.9,0-1.7-0.1-2.4-0.4s-1.3-0.7-1.9-1.3c-0.1-0.1-0.1-0.1-0.2-0.2c0-0.1-0.1-0.2-0.1-0.3
			c0-0.1,0.1-0.3,0.2-0.4s0.2-0.2,0.4-0.2c0.1,0,0.3,0.1,0.4,0.2c0.5,0.5,1,0.9,1.6,1.2c0.6,0.3,1.2,0.4,1.9,0.4
			c0.6,0,1.1-0.1,1.5-0.3c0.4-0.2,0.8-0.4,1.1-0.8s0.4-0.7,0.4-1.2c0-0.6-0.2-1-0.5-1.3s-0.7-0.6-1.2-0.8c-0.5-0.2-1-0.4-1.6-0.6
			c-0.5-0.2-1-0.3-1.4-0.5s-0.8-0.4-1.2-0.7c-0.3-0.3-0.6-0.6-0.8-1c-0.2-0.4-0.3-0.9-0.3-1.4c0-0.6,0.2-1.2,0.5-1.7
			s0.8-0.9,1.4-1.2c0.6-0.3,1.3-0.4,2.2-0.4c0.7,0,1.4,0.1,2,0.4c0.7,0.2,1.2,0.6,1.6,1.1c0.2,0.2,0.3,0.4,0.3,0.5s-0.1,0.3-0.2,0.4
			s-0.3,0.2-0.4,0.2s-0.2,0-0.3-0.1c-0.2-0.3-0.5-0.5-0.8-0.7s-0.7-0.4-1-0.5c-0.4-0.1-0.8-0.2-1.2-0.2c-0.6,0-1.1,0.1-1.5,0.3
			s-0.8,0.4-1.1,0.7c-0.3,0.3-0.4,0.7-0.4,1.2s0.1,0.9,0.4,1.2c0.3,0.3,0.7,0.6,1.1,0.8s1,0.4,1.5,0.6c0.5,0.1,1,0.3,1.5,0.5
			s0.9,0.4,1.3,0.7c0.4,0.3,0.7,0.6,0.9,1s0.3,0.9,0.3,1.6c0,0.6-0.2,1.2-0.5,1.7s-0.8,0.9-1.4,1.2
			C378.8,112.2,378.1,112.4,377.3,112.4z"/>
	</g>
</g>
<g>
	<g id="XMLID_00000118381103978609195740000017748634117039307940_">
		<g>
			<path class="st5" d="M78.9,47c4.2,6.8,2.7,13.3-5.9,17.9s2,12.1,5.2,15.5s8.3,10.4,0,18.4s-17.9-2.2-17.9-2.2
				c-7.1-10.2-5.9,4.1-5.9,4.1c-0.7,14.3-12.5,12.1-12.5,12.1c-12.7-1.2-11.5-16.9-11.5-16.9c1.9-13.9-5.5-11.5-7.2-10.8
				c-0.3,0.1-0.6,0.2-0.9,0.3C9.2,87.6,6.6,78.2,6.6,78.2c-4.2-14.5,15-16,15-16C12.3,54,13,44.8,13,44.8
				c1.5-22,21.8-22.5,21.8-22.5c-1.3,3.3-1,5.4-0.2,6.7c1.4,2.3,4.4,2.5,4.4,2.5c-0.2,10.6,10,6.3,10,6.3c3.4,4.8,8.8,0.7,8.8,0.7
				l0.2,9C65.2,42.8,74.7,40.2,78.9,47z"/>
		</g>
		<g>
			<path class="st6" d="M34.8,22.3c0,0-20.3,0.5-21.8,22.5c0,0-0.7,9.2,8.6,17.4c0,0-19.1,1.4-15,16c0,0,2.6,9.4,15.7,7.1
				c0.3-0.1,0.6-0.1,0.9-0.3c1.8-0.7,9.2-3.1,7.2,10.8c0,0-1.2,15.7,11.5,16.9c0,0,11.8,2.2,12.5-12.1c0,0-1.2-14.3,5.9-4.1
				c0,0,9.6,10.2,17.9,2.2s3.2-15,0-18.4C75,77,64.4,69.5,73,64.9S83,53.7,78.9,47c-4.2-6.8-13.7-4.1-20.8,0.5l-0.2-9
				c0,0-5.4,4.1-8.8-0.7c0,0-10.3,4.3-10-6.3c0,0-3-0.2-4.4-2.5C33.7,27.7,33.5,25.6,34.8,22.3z"/>
		</g>
	</g>
	<g id="XMLID_00000093865934286334569460000005793768914387519129_">
		<g>
			<path class="st5" d="M77.8,46.9c4,6.7,2.6,13.1-5.7,17.6s1.9,11.9,5,15.2c3.1,3.3,8.1,10.2,0,18.1c-8.1,7.8-17.4-2.1-17.4-2.1
				c-6.9-10-5.7,4-5.7,4c-0.7,14-12.1,11.9-12.1,11.9C29.5,110.4,30.7,95,30.7,95c1.9-13.6-5.3-11.3-7-10.6
				c-0.3,0.1-0.6,0.2-0.8,0.3c-12.7,2.3-15.2-7-15.2-7C3.7,63.4,22.2,62,22.2,62c-9-8.1-8.3-17.1-8.3-17.1
				C15.3,23.3,35,22.8,35,22.8c-1.2,3.2-1,5.3-0.2,6.6c1.4,2.2,4.2,2.4,4.2,2.4c-0.2,10.4,9.8,6.2,9.8,6.2c3.3,4.7,8.5,0.7,8.5,0.7
				l0.3,8.8C64.5,42.8,73.8,40.2,77.8,46.9z"/>
		</g>
		<g>
			<path class="st7" d="M35.1,22.7c0,0-19.7,0.5-21.1,22.1c0,0-0.7,9,8.3,17.1c0,0-18.5,1.4-14.5,15.7c0,0,2.5,9.3,15.2,7
				c0.3-0.1,0.6-0.1,0.8-0.3c1.7-0.7,8.9-3,7,10.6c0,0-1.2,15.5,11.2,16.6c0,0,11.4,2.1,12.1-11.9c0,0-1.2-14,5.7-4
				c0,0,9.3,10,17.4,2.1c8.1-7.8,3.1-14.7,0-18.1c-3.1-3.3-13.3-10.7-5-15.2s9.7-10.9,5.7-17.6s-13.3-4.1-20.2,0.5l-0.3-8.8
				c0,0-5.2,4-8.5-0.7c0,0-10,4.3-9.8-6.2c0,0-2.9-0.2-4.2-2.4C34.1,27.9,33.8,25.9,35.1,22.7z"/>
		</g>
	</g>
	<path class="st8" d="M50.5,39.5V50c0,0,0.4,8.9,9.4,4.4l5.8-3.3c0.5-0.3,1-0.5,1.6-0.6c2.4-0.4,8.4-0.8,4.5,5.3
		c-0.5,0.8-1.3,1.5-2.1,1.9c-3.3,1.8-12.3,7.6-7,15.7c4.9,7.5,5.9,8.9,7.1,9.9c0.7,0.7,3.2,3.2,3.6,3.7c3.1,3.6,0.6,10.5-7.5,4.5
		c-0.5-0.4-1.6-1.3-1.8-1.6l-3.6-3.6c0,0-9.1-7.1-12.4,4.1c-0.1,0.4-0.3,2.6-0.3,3.1l-0.3,4.9c0,1-0.1,2.4-0.5,3.3
		c-1.1,2.5-5.9,5.7-8.1-0.4c-0.4-1.1-0.7-2.5-0.8-3.3l-0.7-11.9c0,0,0.4-11-11.7-9.6l-5.3,1.2c-0.8,0.2-1.6,0.1-2.3-0.2
		c-2.2-0.9-5.8-3.1-0.4-7.1c0.7-0.5,1.4-0.8,2.2-1c2.1-0.5,6.6-1.5,7.5-2.2c1-0.7,4.8-3,2.1-8.8c-0.5-1.1-1.4-2.1-2.4-2.8
		c-2-1.3-5.7-4.6-6.4-12.3c0,0-0.4-14,13.5-14.8c0,0,0.4,2.4,4.8,3c0,0-0.1,8.6,9.7,6.2C48.8,37.9,50.1,39.2,50.5,39.5z"/>
	<path class="st9" d="M31.6,47.1c0,0,1.4,2,3.2,2.8c2.2,1,5.5,0.4,6-3.3c0.1-0.9-0.1-2.1-0.2-3.4"/>
	<ellipse transform="matrix(0.8785 -0.4778 0.4778 0.8785 -17.1915 18.9698)" class="st5" cx="28.7" cy="43.3" rx="1.5" ry="1.9"/>
	<circle class="st5" cx="44.3" cy="64.7" r="4.1"/>
	<circle class="st5" cx="49.4" cy="76.3" r="4.1"/>
</g>
</svg>
